<?xml version="1.0" encoding="UTF-8"?>
<!DOCTYPE svg PUBLIC "-//W3C//DTD SVG 1.1//EN" "http://www.w3.org/Graphics/SVG/1.1/DTD/svg11.dtd">
<svg xmlns="http://www.w3.org/2000/svg" version="1.1" width="512px" height="512px" style="shape-rendering:geometricPrecision; text-rendering:geometricPrecision; image-rendering:optimizeQuality; fill-rule:evenodd; clip-rule:evenodd" xmlns:xlink="http://www.w3.org/1999/xlink">
<g><path style="opacity:1" fill="#fba74b" d="M 85.5,-0.5 C 90.1667,-0.5 94.8333,-0.5 99.5,-0.5C 102.142,0.895182 104.809,2.39518 107.5,4C 132,28.5 156.5,53 181,77.5C 189.096,93.2878 185.596,105.788 170.5,115C 161.122,117.944 152.455,116.611 144.5,111C 135.333,101.833 126.167,92.6667 117,83.5C 116.015,174.197 116.348,264.863 118,355.5C 126.712,381.614 144.879,394.614 172.5,394.5C 171.737,395.268 170.737,395.768 169.5,396C 141.276,400.881 112.942,401.714 84.5,398.5C 74.7749,384.835 69.2749,369.502 68,352.5C 67.6667,262.833 67.3333,173.167 67,83.5C 57.8333,92.6667 48.6667,101.833 39.5,111C 26.7292,119.173 14.8958,118.006 4,107.5C 2.20496,104.901 0.704964,102.234 -0.5,99.5C -0.5,94.5 -0.5,89.5 -0.5,84.5C 1.30787,81.5638 3.1412,78.5638 5,75.5C 28.1667,52.3333 51.3333,29.1667 74.5,6C 77.9329,3.28937 81.5995,1.1227 85.5,-0.5 Z"/></g>
<g><path style="opacity:1" fill="#fba74b" d="M 227.5,-0.5 C 275.167,-0.5 322.833,-0.5 370.5,-0.5C 377.602,15.0458 383.602,31.0458 388.5,47.5C 334.832,47.6667 281.166,47.5 227.5,47C 213.518,41.5428 208.018,31.3761 211,16.5C 214.019,8.31563 219.519,2.64896 227.5,-0.5 Z"/></g>
<g><path style="opacity:0.997" fill="#f9973d" d="M 370.5,-0.5 C 389.167,-0.5 407.833,-0.5 426.5,-0.5C 473.833,8.83333 502.167,37.1667 511.5,84.5C 511.5,150.833 511.5,217.167 511.5,283.5C 503.447,300.354 490.78,304.854 473.5,297C 468.748,293.586 465.581,289.086 464,283.5C 463.667,221.833 463.333,160.167 463,98.5C 461.197,72.3788 447.697,55.8788 422.5,49C 411.2,47.7792 399.866,47.2792 388.5,47.5C 383.602,31.0458 377.602,15.0458 370.5,-0.5 Z"/></g>
<g><path style="opacity:1" fill="#434364" d="M 398.5,114.5 C 398.5,121.833 398.5,129.167 398.5,136.5C 391.84,134.242 386.34,135.909 382,141.5C 380.667,144.833 379.333,148.167 378,151.5C 372.603,156.396 366.936,156.729 361,152.5C 357.88,145.253 358.546,138.253 363,131.5C 371.374,118.73 383.207,113.064 398.5,114.5 Z"/></g>
<g><path style="opacity:0.963" fill="#34334e" d="M 398.5,114.5 C 422.596,121.351 431.762,137.018 426,161.5C 425,163.5 424,165.5 423,167.5C 414.197,177.304 405.03,186.804 395.5,196C 403.833,196.333 412.167,196.667 420.5,197C 425.297,198.579 427.964,201.912 428.5,207C 427.891,211.554 425.558,214.887 421.5,217C 408.171,217.5 394.837,217.667 381.5,217.5C 387.357,201.207 391.691,184.541 394.5,167.5C 398.877,163.289 402.71,158.622 406,153.5C 407.819,145.813 405.319,140.146 398.5,136.5C 398.5,129.167 398.5,121.833 398.5,114.5 Z"/></g>
<g><path style="opacity:1" fill="#434365" d="M 347.5,223.5 C 346.668,243.663 346.168,263.996 346,284.5C 338.064,294.714 329.898,304.714 321.5,314.5C 316.151,312.65 312.651,308.984 311,303.5C 310.967,274.785 310.301,246.118 309,217.5C 304.108,206.086 295.608,201.92 283.5,205C 276.903,207.263 272.736,211.763 271,218.5C 270.667,245.833 270.333,273.167 270,300.5C 266.175,313.497 257.675,318.33 244.5,315C 239.269,312.768 235.769,308.935 234,303.5C 233.667,275.833 233.333,248.167 233,220.5C 227.646,205.159 217.479,200.659 202.5,207C 198.48,210.011 195.647,213.844 194,218.5C 193.667,246.167 193.333,273.833 193,301.5C 189.875,312.288 182.708,317.121 171.5,316C 163.78,314.614 158.947,310.114 157,302.5C 156.333,260.833 156.333,219.167 157,177.5C 162.16,165.549 170.993,161.715 183.5,166C 185.977,167.643 188.31,169.476 190.5,171.5C 212.789,163.197 233.122,166.53 251.5,181.5C 273.614,164.389 296.947,162.556 321.5,176C 337.619,187.737 346.286,203.57 347.5,223.5 Z"/></g>
<g><path style="opacity:1" fill="#434365" d="M 394.5,167.5 C 391.691,184.541 387.357,201.207 381.5,217.5C 375.379,217.91 369.379,217.41 363.5,216C 358.646,212.064 357.479,207.231 360,201.5C 371.368,189.965 382.868,178.631 394.5,167.5 Z"/></g>
<g><path style="opacity:0.921" fill="#353550" d="M 347.5,223.5 C 347.946,250.537 347.446,277.537 346,304.5C 340.557,314.983 332.391,318.316 321.5,314.5C 329.898,304.714 338.064,294.714 346,284.5C 346.168,263.996 346.668,243.663 347.5,223.5 Z"/></g>
<g><path style="opacity:0.993" fill="#f9973e" d="M 511.5,411.5 C 511.5,416.167 511.5,420.833 511.5,425.5C 509.877,429.4 507.711,433.067 505,436.5C 481.833,459.667 458.667,482.833 435.5,506C 432.436,507.859 429.436,509.692 426.5,511.5C 421.5,511.5 416.5,511.5 411.5,511.5C 394.444,502.829 390.277,489.829 399,472.5C 408.5,463 418,453.5 427.5,444C 335.146,443.978 242.813,443.311 150.5,442C 122.17,436.793 100.17,422.293 84.5,398.5C 112.942,401.714 141.276,400.881 169.5,396C 170.737,395.768 171.737,395.268 172.5,394.5C 257.501,394.667 342.501,394.5 427.5,394C 418.333,384.833 409.167,375.667 400,366.5C 393.48,356.924 392.814,346.924 398,336.5C 408.648,324.436 420.814,322.603 434.5,331C 458.667,355.167 482.833,379.333 507,403.5C 508.795,406.099 510.295,408.766 511.5,411.5 Z"/></g>
</svg>
