<?xml version="1.0" standalone="no"?>
<!DOCTYPE svg PUBLIC "-//W3C//DTD SVG 20010904//EN"
 "http://www.w3.org/TR/2001/REC-SVG-20010904/DTD/svg10.dtd">
<svg version="1.0" xmlns="http://www.w3.org/2000/svg"
 width="512.000000pt" height="512.000000pt" viewBox="0 0 512.000000 512.000000"
 preserveAspectRatio="xMidYMid meet">

<g transform="translate(0.000000,512.000000) scale(0.100000,-0.100000)"
fill="#000000" stroke="none">
<path d="M730 4829 c-30 -12 -415 -393 -436 -431 -53 -101 61 -208 164 -154
15 8 63 51 107 96 l80 80 5 -1677 5 -1678 22 -65 c53 -156 167 -270 323 -323
l65 -22 1679 -3 1679 -2 -97 -100 c-93 -96 -96 -100 -96 -145 0 -52 20 -90 61
-111 36 -18 73 -18 107 0 32 18 415 402 431 433 15 30 14 69 -3 101 -8 15
-106 118 -218 229 -224 223 -240 232 -312 198 -44 -21 -66 -59 -66 -116 0 -39
6 -47 95 -138 52 -54 95 -100 95 -104 0 -12 -3263 -8 -3320 4 -73 16 -137 63
-174 129 l-31 55 -3 1668 c-1 917 1 1667 5 1667 4 0 49 -41 99 -91 83 -82 96
-92 136 -96 58 -7 100 15 123 63 34 72 25 88 -198 313 -227 229 -256 248 -327
220z"/>
<path d="M1563 4820 c-41 -24 -53 -48 -53 -102 0 -47 18 -80 53 -100 17 -10
326 -14 1437 -18 1336 -5 1417 -6 1451 -23 52 -26 99 -75 125 -132 l24 -50 0
-1398 c0 -1515 -3 -1433 52 -1471 29 -21 107 -21 136 0 55 38 52 -44 52 1471
0 1536 2 1464 -61 1583 -64 120 -206 226 -338 250 -34 6 -563 10 -1450 10
-1365 0 -1397 -1 -1428 -20z"/>
<path d="M3653 3976 c-61 -20 -106 -51 -157 -107 -55 -62 -86 -140 -86 -219 0
-51 4 -64 28 -91 23 -26 38 -33 80 -37 48 -4 54 -2 86 30 26 26 36 46 42 84
15 102 112 148 183 88 35 -29 51 -76 40 -116 -4 -15 -92 -118 -195 -228 -103
-110 -196 -213 -206 -228 -40 -61 -13 -161 54 -202 30 -18 51 -20 266 -20 261
0 277 3 307 66 31 67 -3 144 -73 164 -20 5 -77 10 -125 10 l-89 0 125 134 c68
74 134 154 146 179 84 174 9 388 -167 474 -66 32 -191 41 -259 19z"/>
<path d="M1679 3517 c-19 -13 -39 -38 -46 -57 -19 -55 -18 -1589 1 -1634 20
-49 60 -76 113 -76 38 0 50 5 79 34 l34 34 0 609 c0 667 1 677 58 740 110 119
305 88 366 -59 14 -32 16 -119 16 -649 0 -670 -1 -656 59 -692 54 -32 135 -14
163 36 10 17 14 166 18 652 l5 630 28 48 c39 66 93 100 168 105 108 8 199 -51
227 -147 9 -27 12 -212 12 -641 0 -536 2 -606 16 -636 39 -83 167 -85 209 -4
22 43 23 1237 0 1323 -58 224 -242 358 -473 345 -103 -6 -173 -33 -258 -99
l-52 -40 -60 46 c-135 105 -311 124 -482 51 -12 -5 -19 3 -29 29 -25 70 -108
95 -172 52z"/>
</g>
</svg>
