<?xml version="1.0" encoding="UTF-8"?>
<!DOCTYPE svg PUBLIC "-//W3C//DTD SVG 1.1//EN" "http://www.w3.org/Graphics/SVG/1.1/DTD/svg11.dtd">
<svg xmlns="http://www.w3.org/2000/svg" version="1.1" width="512px" height="512px" style="shape-rendering:geometricPrecision; text-rendering:geometricPrecision; image-rendering:optimizeQuality; fill-rule:evenodd; clip-rule:evenodd" xmlns:xlink="http://www.w3.org/1999/xlink">
<g><path style="opacity:0.991" fill="#3a322b" d="M 47.5,3.5 C 70.1691,3.33337 92.8358,3.50004 115.5,4C 125.333,7.16667 131.833,13.6667 135,23.5C 136.276,32.7876 136.776,42.1209 136.5,51.5C 157.411,51.7445 168.078,62.4112 168.5,83.5C 175.438,84.4378 179.438,88.4378 180.5,95.5C 179.923,99.8209 177.923,103.321 174.5,106C 157.588,107.153 140.588,107.653 123.5,107.5C 106.412,107.653 89.4117,107.153 72.5,106C 67.7886,101.86 66.2886,96.6938 68,90.5C 70.2151,85.477 74.0484,83.1437 79.5,83.5C 79.1667,61.8333 89.8333,51.1667 111.5,51.5C 111.666,44.825 111.5,38.1583 111,31.5C 110.5,29.6667 109.333,28.5 107.5,28C 90.1667,27.3333 72.8333,27.3333 55.5,28C 54.5838,28.3742 53.7504,28.8742 53,29.5C 52.5,87.499 52.3333,145.499 52.5,203.5C 55.5184,203.665 58.5184,203.498 61.5,203C 65.1667,200.667 68.8333,198.333 72.5,196C 87.53,193.863 94.1966,200.363 92.5,215.5C 94.1966,230.637 87.53,237.137 72.5,235C 68.8333,232.667 65.1667,230.333 61.5,228C 58.5184,227.502 55.5184,227.335 52.5,227.5C 52.5,243.5 52.5,259.5 52.5,275.5C 55.8984,275.82 59.2317,275.487 62.5,274.5C 67.6201,264.224 75.9535,259.057 87.5,259C 92.0002,251.416 98.6669,247.416 107.5,247C 119.79,221.945 139.29,213.778 166,222.5C 172.537,215.958 180.371,213.791 189.5,216C 192.196,216.765 194.696,217.932 197,219.5C 202.133,208.227 210.966,202.894 223.5,203.5C 237.427,203.621 246.427,210.287 250.5,223.5C 263.681,220.681 273.514,225.014 280,236.5C 285.493,235.191 290.993,235.191 296.5,236.5C 298.946,234.236 301.613,232.069 304.5,230C 312.94,226.329 321.106,226.829 329,231.5C 337.612,218.865 348.779,216.031 362.5,223C 364.683,225.35 367.016,227.517 369.5,229.5C 389.151,223.99 401.818,230.99 407.5,250.5C 413.628,249.766 418.961,251.432 423.5,255.5C 433.269,247.945 444.269,245.445 456.5,248C 470.167,252.333 479.167,261.333 483.5,275C 501.995,275.19 509.829,284.356 507,302.5C 503.296,311.039 496.796,315.372 487.5,315.5C 488.967,354.302 479.8,390.302 460,423.5C 442.351,448.584 418.518,464.584 388.5,471.5C 388.839,480.226 388.339,488.893 387,497.5C 382.527,506.482 375.36,509.649 365.5,507C 361,505.167 357.833,502 356,497.5C 355.5,490.174 355.334,482.841 355.5,475.5C 289.167,475.5 222.833,475.5 156.5,475.5C 156.666,481.176 156.499,486.843 156,492.5C 153.575,504.973 146.075,509.806 133.5,507C 129,505.167 125.833,502 124,497.5C 123.818,488.922 123.318,480.422 122.5,472C 75.3564,458.932 45.1898,428.765 32,381.5C 26.05,359.9 23.2167,337.9 23.5,315.5C 13.7236,315.365 7.22363,310.698 4,301.5C 1.53355,283.468 9.36688,274.801 27.5,275.5C 27.3333,191.499 27.5,107.499 28,23.5C 31.3514,13.6498 37.8514,6.98314 47.5,3.5 Z"/></g>
<g><path style="opacity:1" fill="#e3e4e5" d="M 50.5,11.5 C 71.1694,11.3334 91.836,11.5 112.5,12C 119.573,14.0724 124.406,18.5724 127,25.5C 127.5,34.1603 127.666,42.8269 127.5,51.5C 124.833,51.5 122.167,51.5 119.5,51.5C 119.666,43.4931 119.5,35.4931 119,27.5C 117.084,23.9151 114.251,21.4151 110.5,20C 90.8333,19.3333 71.1667,19.3333 51.5,20C 48.3333,21.8333 45.8333,24.3333 44,27.5C 43.5,110.166 43.3333,192.833 43.5,275.5C 40.8333,275.5 38.1667,275.5 35.5,275.5C 35.3333,192.499 35.5,109.499 36,26.5C 38.3509,18.9841 43.1842,13.9841 50.5,11.5 Z"/></g>
<g><path style="opacity:1" fill="#ced1d1" d="M 102.5,59.5 C 117.572,59.0489 132.572,59.5489 147.5,61C 156.61,65.7184 160.61,73.2184 159.5,83.5C 135.5,83.5 111.5,83.5 87.5,83.5C 86.8679,71.8306 91.8679,63.8306 102.5,59.5 Z"/></g>
<g><path style="opacity:1" fill="#a9adb0" d="M 77.5,91.5 C 108.168,91.3334 138.835,91.5 169.5,92C 172.167,94.3333 172.167,96.6667 169.5,99C 138.833,99.6667 108.167,99.6667 77.5,99C 74.9142,96.506 74.9142,94.006 77.5,91.5 Z"/></g>
<g><path style="opacity:1" fill="#a7abae" d="M 75.5,203.5 C 78.505,203.253 81.005,204.253 83,206.5C 83.6667,212.5 83.6667,218.5 83,224.5C 81.53,226.152 79.6967,227.152 77.5,227.5C 73.957,226.129 70.7904,224.129 68,221.5C 67.3333,217.5 67.3333,213.5 68,209.5C 70.6877,207.636 73.1877,205.636 75.5,203.5 Z"/></g>
<g><path style="opacity:1" fill="#cfd2d2" d="M 51.5,211.5 C 54.1667,211.5 56.8333,211.5 59.5,211.5C 59.5,214.167 59.5,216.833 59.5,219.5C 56.8333,219.5 54.1667,219.5 51.5,219.5C 51.5,216.833 51.5,214.167 51.5,211.5 Z"/></g>
<g><path style="opacity:1" fill="#4fa6cf" d="M 217.5,211.5 C 233.749,210.027 242.583,217.361 244,233.5C 245.466,235.325 247.299,235.825 249.5,235C 254.327,231.129 259.661,230.462 265.5,233C 269.898,235.961 272.065,240.128 272,245.5C 272.804,246.804 273.971,247.471 275.5,247.5C 279.325,245.585 283.325,244.252 287.5,243.5C 292.369,244.47 297.035,245.637 301.5,247C 308.994,233.229 318.328,231.896 329.5,243C 330.833,243.667 332.167,243.667 333.5,243C 334.856,237.952 337.523,233.619 341.5,230C 347.383,226.554 353.05,226.888 358.5,231C 361.206,233.371 363.539,236.037 365.5,239C 370.309,238.03 375.142,236.863 380,235.5C 387.41,235.918 393.077,239.251 397,245.5C 398.615,250.041 400.115,254.541 401.5,259C 409.617,256.631 415.95,258.964 420.5,266C 422.167,266.667 423.833,266.667 425.5,266C 437.093,253.914 450.093,252.247 464.5,261C 468.931,264.698 472.264,269.198 474.5,274.5C 340.168,275.667 205.835,275.833 71.5,275C 77.3043,268.396 84.6377,265.729 93.5,267C 96.9792,257.919 103.646,253.919 113.5,255C 123.567,229.475 141.567,221.641 167.5,231.5C 170.615,229.561 173.615,227.394 176.5,225C 180.805,223.077 185.138,223.077 189.5,225C 192.992,227.006 196.326,229.172 199.5,231.5C 201.029,231.471 202.196,230.804 203,229.5C 204.044,220.303 208.877,214.303 217.5,211.5 Z"/></g>
<g><path style="opacity:1" fill="#3b3530" d="M 242.5,247.5 C 248.98,246.824 254.48,248.824 259,253.5C 260.141,256.857 258.975,258.857 255.5,259.5C 253.203,258.351 250.87,257.185 248.5,256C 246.833,255.333 245.167,255.333 243.5,256C 241.126,258.039 239.126,260.372 237.5,263C 231.609,263.362 230.109,260.862 233,255.5C 235.735,252.231 238.901,249.564 242.5,247.5 Z"/></g>
<g><path style="opacity:1" fill="#3b3530" d="M 355.5,251.5 C 361.816,250.576 366.983,252.576 371,257.5C 372.141,260.857 370.975,262.857 367.5,263.5C 365.079,261.762 362.412,260.429 359.5,259.5C 357.045,259.894 355.045,261.06 353.5,263C 349,263.833 347.167,262 348,257.5C 350.478,255.361 352.978,253.361 355.5,251.5 Z"/></g>
<g><path style="opacity:1" fill="#3b3530" d="M 151.5,255.5 C 157.816,254.576 162.983,256.576 167,261.5C 168.141,264.857 166.975,266.857 163.5,267.5C 161.079,265.762 158.412,264.429 155.5,263.5C 153.045,263.894 151.045,265.06 149.5,267C 145,267.833 143.167,266 144,261.5C 146.478,259.361 148.978,257.361 151.5,255.5 Z"/></g>
<g><path style="opacity:1" fill="#cfd2d2" d="M 19.5,283.5 C 127.5,283.5 235.5,283.5 343.5,283.5C 343.5,291.5 343.5,299.5 343.5,307.5C 235.499,307.667 127.499,307.5 19.5,307C 8.8735,299.132 8.8735,291.299 19.5,283.5 Z"/></g>
<g><path style="opacity:1" fill="#fed284" d="M 351.5,283.5 C 378.167,283.5 404.833,283.5 431.5,283.5C 431.5,295.5 431.5,307.5 431.5,319.5C 404.833,319.5 378.167,319.5 351.5,319.5C 351.5,307.5 351.5,295.5 351.5,283.5 Z"/></g>
<g><path style="opacity:1" fill="#cfd2d2" d="M 439.5,283.5 C 456.837,283.333 474.17,283.5 491.5,284C 499.152,287.803 501.319,293.636 498,301.5C 496.127,303.709 493.96,305.542 491.5,307C 474.17,307.5 456.837,307.667 439.5,307.5C 439.5,299.5 439.5,291.5 439.5,283.5 Z"/></g>
<g><path style="opacity:1" fill="#e4e5e6" d="M 31.5,315.5 C 135.5,315.5 239.5,315.5 343.5,315.5C 343.333,339.502 343.5,363.502 344,387.5C 345.769,392.935 349.269,396.768 354.5,399C 378.833,399.667 403.167,399.667 427.5,399C 433.333,397.167 437.167,393.333 439,387.5C 439.5,363.502 439.667,339.502 439.5,315.5C 452.833,315.5 466.167,315.5 479.5,315.5C 480.513,354.799 470.346,390.799 449,423.5C 428.848,449.331 402.348,463.831 369.5,467C 292.833,467.667 216.167,467.667 139.5,467C 94.6254,460.453 63.4587,436.287 46,394.5C 36.5755,369.036 31.7422,342.702 31.5,315.5 Z"/></g>
<g><path style="opacity:1" fill="#fa9d4a" d="M 351.5,327.5 C 378.167,327.5 404.833,327.5 431.5,327.5C 431.5,330.167 431.5,332.833 431.5,335.5C 404.833,335.5 378.167,335.5 351.5,335.5C 351.5,332.833 351.5,330.167 351.5,327.5 Z"/></g>
<g><path style="opacity:1" fill="#fed284" d="M 351.5,343.5 C 378.167,343.5 404.833,343.5 431.5,343.5C 431.5,346.167 431.5,348.833 431.5,351.5C 404.833,351.5 378.167,351.5 351.5,351.5C 351.5,348.833 351.5,346.167 351.5,343.5 Z"/></g>
<g><path style="opacity:1" fill="#fa9d4a" d="M 351.5,359.5 C 378.167,359.5 404.833,359.5 431.5,359.5C 431.5,362.167 431.5,364.833 431.5,367.5C 404.833,367.5 378.167,367.5 351.5,367.5C 351.5,364.833 351.5,362.167 351.5,359.5 Z"/></g>
<g><path style="opacity:1" fill="#fed284" d="M 351.5,375.5 C 378.167,375.5 404.833,375.5 431.5,375.5C 431.665,379.182 431.499,382.848 431,386.5C 430.535,387.931 429.701,389.097 428.5,390C 416.067,391.138 403.567,391.638 391,391.5C 379.5,391.333 368,391.167 356.5,391C 353.898,390.065 352.398,388.232 352,385.5C 351.502,382.183 351.335,378.85 351.5,375.5 Z"/></g>
<g><path style="opacity:1" fill="#a7abae" d="M 376.5,473.5 C 377.5,473.5 378.5,473.5 379.5,473.5C 379.666,480.508 379.5,487.508 379,494.5C 375.987,499.535 371.82,500.702 366.5,498C 365.107,496.829 364.273,495.329 364,493.5C 363.5,487.175 363.334,480.842 363.5,474.5C 368.032,474.818 372.366,474.485 376.5,473.5 Z"/></g>
<g><path style="opacity:1" fill="#a7abae" d="M 131.5,473.5 C 136.787,474.342 142.12,474.676 147.5,474.5C 147.666,481.175 147.5,487.842 147,494.5C 143.987,499.535 139.82,500.702 134.5,498C 133.107,496.829 132.273,495.329 132,493.5C 131.5,486.842 131.334,480.175 131.5,473.5 Z"/></g>
</svg>
