<?xml version="1.0" encoding="UTF-8"?>
<!DOCTYPE svg PUBLIC "-//W3C//DTD SVG 1.1//EN" "http://www.w3.org/Graphics/SVG/1.1/DTD/svg11.dtd">
<svg xmlns="http://www.w3.org/2000/svg" version="1.1" width="512px" height="512px" style="shape-rendering:geometricPrecision; text-rendering:geometricPrecision; image-rendering:optimizeQuality; fill-rule:evenodd; clip-rule:evenodd" xmlns:xlink="http://www.w3.org/1999/xlink">
<g><path style="opacity:0.983" fill="#000001" d="M 99.5,55.5 C 123.927,52.2506 144.427,59.5839 161,77.5C 167.815,86.4653 172.482,96.4653 175,107.5C 175.5,119.495 175.667,131.495 175.5,143.5C 159.5,143.5 143.5,143.5 127.5,143.5C 127.666,135.493 127.5,127.493 127,119.5C 123.813,105.656 115.646,101.49 102.5,107C 99.8941,108.938 98.0608,111.438 97,114.5C 95.53,153.46 95.03,192.46 95.5,231.5C 111.5,231.5 127.5,231.5 143.5,231.5C 143.274,219.785 147.94,210.618 157.5,204C 160.561,201.965 163.895,200.799 167.5,200.5C 167.668,183.838 175.668,173.004 191.5,168C 202.113,165.742 211.613,167.909 220,174.5C 235.105,159.475 252.771,155.475 273,162.5C 283.961,144.179 299.461,139.013 319.5,147C 330.149,153.67 335.816,163.336 336.5,176C 344.616,178.129 351.783,181.962 358,187.5C 363.839,184.665 370.006,182.998 376.5,182.5C 385.113,167.131 397.446,163.297 413.5,171C 424.243,180.791 426.41,192.291 420,205.5C 416.883,209.454 413.05,212.454 408.5,214.5C 407.505,220.128 407.171,225.794 407.5,231.5C 431.169,231.333 454.836,231.5 478.5,232C 489.563,235.903 495.563,243.736 496.5,255.5C 495.641,267.343 489.641,275.009 478.5,278.5C 471.161,308.856 463.661,339.19 456,369.5C 447.243,399.632 427.41,417.465 396.5,423C 401.051,431.1 405.051,439.433 408.5,448C 407.801,451.08 406.134,453.414 403.5,455C 389.406,455.964 375.406,455.631 361.5,454C 356.372,444.245 351.372,434.411 346.5,424.5C 285.833,423.167 225.167,423.167 164.5,424.5C 159.628,434.411 154.628,444.245 149.5,454C 135.594,455.631 121.594,455.964 107.5,455C 105.667,454.5 104.5,453.333 104,451.5C 103.333,448.833 103.333,446.167 104,443.5C 107.167,437.167 110.333,430.833 113.5,424.5C 84.746,420.251 65.9126,404.251 57,376.5C 49,344.5 41,312.5 33,280.5C 17.6591,273.481 12.3258,261.815 17,245.5C 23.6249,233.446 33.7915,228.779 47.5,231.5C 47.3333,190.165 47.5,148.832 48,107.5C 54.6811,79.6527 71.8478,62.3193 99.5,55.5 Z"/></g>
<g><path style="opacity:1" fill="#7ec8c7" d="M 102.5,71.5 C 131.615,69.7946 150.449,82.7946 159,110.5C 159.499,116.157 159.666,121.824 159.5,127.5C 154.167,127.5 148.833,127.5 143.5,127.5C 145.231,103.269 134.064,89.9362 110,87.5C 94.3312,89.0046 84.3312,97.3379 80,112.5C 79.5,152.165 79.3333,191.832 79.5,231.5C 74.1667,231.5 68.8333,231.5 63.5,231.5C 63.3333,191.165 63.5,150.832 64,110.5C 69.6825,90.3181 82.5158,77.3181 102.5,71.5 Z"/></g>
<g><path style="opacity:0.952" fill="#000000" d="M 232.5,95.5 C 247.367,93.0115 257.534,98.6782 263,112.5C 265.982,127.376 260.482,137.543 246.5,143C 231.624,145.982 221.457,140.482 216,126.5C 213.146,111.533 218.646,101.199 232.5,95.5 Z"/></g>
<g><path style="opacity:0.952" fill="#000000" d="M 360.5,111.5 C 375.367,109.012 385.534,114.678 391,128.5C 393.982,143.376 388.482,153.543 374.5,159C 359.624,161.982 349.457,156.482 344,142.5C 341.146,127.533 346.646,117.199 360.5,111.5 Z"/></g>
<g><path style="opacity:1" fill="#c4e4ec" d="M 236.5,111.5 C 244.658,110.823 248.158,114.49 247,122.5C 244.774,126.861 241.274,128.361 236.5,127C 232.139,124.774 230.639,121.274 232,116.5C 233.025,114.313 234.525,112.646 236.5,111.5 Z"/></g>
<g><path style="opacity:1" fill="#c4e4ec" d="M 364.5,127.5 C 372.658,126.823 376.158,130.49 375,138.5C 372.774,142.861 369.274,144.361 364.5,143C 360.139,140.774 358.639,137.274 360,132.5C 361.025,130.313 362.525,128.646 364.5,127.5 Z"/></g>
<g><path style="opacity:1" fill="#cbecf4" d="M 298.5,159.5 C 308.403,158.527 315.237,162.527 319,171.5C 318.854,176.824 318.854,182.157 319,187.5C 320.167,188.667 321.333,189.833 322.5,191C 327.989,191.202 333.322,192.202 338.5,194C 344.221,198.388 349.221,203.388 353.5,209C 355.971,209.706 358.305,209.373 360.5,208C 367.337,199.715 376.004,197.048 386.5,200C 387.931,199.535 389.097,198.701 390,197.5C 390.988,194.576 391.654,191.576 392,188.5C 395.013,183.465 399.18,182.298 404.5,185C 408.926,190.441 408.259,195.108 402.5,199C 399.833,199.333 397.167,199.667 394.5,200C 392.667,200.5 391.5,201.667 391,203.5C 391.183,212.815 391.349,222.148 391.5,231.5C 314.167,231.5 236.833,231.5 159.5,231.5C 161.118,220.06 167.784,214.56 179.5,215C 181.286,214.215 182.786,213.049 184,211.5C 183.927,205.838 183.927,200.171 184,194.5C 190.141,182.734 198.808,180.4 210,187.5C 209.182,194.127 208.348,200.794 207.5,207.5C 212.833,207.5 218.167,207.5 223.5,207.5C 225.872,185.313 238.205,174.813 260.5,176C 268.645,177.739 275.645,181.572 281.5,187.5C 285.421,184.957 289.254,182.29 293,179.5C 292.628,177.08 291.295,175.08 289,173.5C 288.333,171.833 288.333,170.167 289,168.5C 291.406,164.592 294.572,161.592 298.5,159.5 Z"/></g>
<g><path style="opacity:1" fill="#2c74ba" d="M 36.5,247.5 C 182.5,247.333 328.5,247.5 474.5,248C 479.535,251.013 480.702,255.18 478,260.5C 476.829,261.893 475.329,262.727 473.5,263C 327.833,263.667 182.167,263.667 36.5,263C 31.4648,259.987 30.2981,255.82 33,250.5C 34.1451,249.364 35.3117,248.364 36.5,247.5 Z"/></g>
<g><path style="opacity:1" fill="#4fb3f7" d="M 50.5,279.5 C 187.167,279.5 323.833,279.5 460.5,279.5C 453.297,310.977 445.464,342.31 437,373.5C 428.458,391.699 414.291,402.866 394.5,407C 299.5,407.667 204.5,407.667 109.5,407C 92.7964,403.299 81.2964,393.466 75,377.5C 66.2026,344.977 58.0359,312.31 50.5,279.5 Z"/></g>
<g><path style="opacity:1" fill="#010204" d="M 93.5,324.5 C 94.7498,324.577 95.5831,325.244 96,326.5C 102.558,342.616 109.391,358.616 116.5,374.5C 125.475,375.498 134.475,375.832 143.5,375.5C 143.5,380.833 143.5,386.167 143.5,391.5C 131.829,391.667 120.162,391.5 108.5,391C 107.069,390.535 105.903,389.701 105,388.5C 96.8333,369.5 88.6667,350.5 80.5,331.5C 84.701,328.9 89.0344,326.566 93.5,324.5 Z"/></g>
<g><path style="opacity:1" fill="#000000" d="M 159.5,375.5 C 164.833,375.5 170.167,375.5 175.5,375.5C 175.5,380.833 175.5,386.167 175.5,391.5C 170.167,391.5 164.833,391.5 159.5,391.5C 159.5,386.167 159.5,380.833 159.5,375.5 Z"/></g>
<g><path style="opacity:1" fill="#2c73b8" d="M 132.5,423.5 C 137.179,423.334 141.845,423.501 146.5,424C 143.833,429 141.167,434 138.5,439C 133.833,439.667 129.167,439.667 124.5,439C 127.307,433.885 129.974,428.718 132.5,423.5 Z"/></g>
<g><path style="opacity:1" fill="#2c73b8" d="M 364.5,424.5 C 368.981,423.352 373.648,423.185 378.5,424C 381.167,429 383.833,434 386.5,439C 381.833,439.667 377.167,439.667 372.5,439C 369.932,434.024 367.266,429.191 364.5,424.5 Z"/></g>
</svg>
