<?xml version="1.0" encoding="UTF-8" standalone="no"?>
<svg
   version="1.1"
   width="2400"
   height="1608"
   id="svg1"
   xmlns="http://www.w3.org/2000/svg"
   xmlns:svg="http://www.w3.org/2000/svg">
  <defs
     id="defs1" />
  <path
     d="m 0,0 c 4.4707823,2.8254135 6.6198694,5.0930728 8.5664063,10.050781 0,0.99 0,1.98 0,3 0.99,-0.33 1.9799997,-0.66 2.9999997,-1 -0.99,-0.99 -1.9799997,-1.98 -2.9999997,-2.9999997 1.2252702,-4.0528172 2.6988047,-7.4436077 4.9999997,-11 3.747747,1.0570568 6.618179,2.41223707 9.8125,4.5625 5.242016,3.0803596 10.490905,3.0690195 16.423096,3.1604003 5.587406,0.1001012 5.587406,0.1001012 7.764404,2.2770997 1.485,-0.9900001 1.485,-0.9900001 3,-2.0000001 2.625,-0.1875 2.625,-0.1875 5,0 0.33,0.33 0.66,0.66 1,1 4.14553,-0.3910877 7.34532,-1.0421355 11,-3 0.99,0 1.98,0 3,0 0,0.66 0,1.32 0,2 1.98,0 3.96,0 6,0 0.02836,0.6638672 0.05672,1.3277344 0.08594,2.0117188 0.584491,5.506082 0.584491,5.506082 3.921875,9.695312 4.357177,2.260542 8.396402,3.437338 13.242187,4.105469 4.156307,0.661082 5.782473,1.824194 8.312504,5.1875 1.27502,1.964915 2.39054,3.906095 3.4375,6 0.66,0.66 1.32,1.32 2,2 0,0.99 0,1.98 0,3 -0.66,0.33 -1.32,0.66 -2,1 1.10214,-0.146953 1.10214,-0.146953 2.22656,-0.296875 2.77344,0.296875 2.77344,0.296875 5.04687,2.34375 0.69352,0.892032 1.38704,1.784063 2.10157,2.703125 0.70898,0.881719 1.41797,1.763438 2.14843,2.671875 1.47657,2.578125 1.47657,2.578125 1.26954,4.703125 -0.26168,0.61875 -0.52336,1.2375 -0.79297,1.875 -0.35063,1.0725 -0.70125,2.145 -1.0625,3.25 -0.30938,0.9075 -0.61875,1.815 -0.9375,2.75 1.32,0 2.64,0 4,0 0.66,-1.65 1.32,-3.3 2,-5 1.11375,0.02063 2.2275,0.04125 3.375,0.0625 3.45716,0.201307 3.45716,0.201307 5.625,-1.0625 3.43403,-0.552458 6.57704,-0.655896 10,0 2.21057,1.637462 3.80231,3.3326 5.52734,5.46875 0.48598,0.505313 0.97195,1.010625 1.47266,1.53125 0.99,0 1.98,0 3,0 0.33,1.65 0.66,3.3 1,5 1.485,-0.495 1.485,-0.495 3,-1 2.51835,1.568474 4.82919,3.156349 7.1875,4.9375 0.9813,0.722198 0.9813,0.722198 1.98242,1.458985 1.61684,1.191979 3.22437,2.396581 4.83008,3.603515 -0.66,1.65 -1.32,3.3 -2,5 1.32,0.33 2.64,0.66 4,1 0.33,-1.32 0.66,-2.64 1,-4 4.98742,1.742594 9.37255,4.406977 13.875,7.125 1.21599,0.731624 1.21599,0.731624 2.45654,1.478028 5.01358,3.11044 8.67893,6.167658 12.21142,10.936035 1.89002,1.895086 3.26731,2.125161 5.89454,2.460937 1.17562,0 2.35125,0 3.5625,0 0.66,1.65 1.32,3.299999 2,4.999999 4.48951,-0.74256 4.48951,-0.74256 8.875,-1.9375 3.65198,-0.073 4.05693,0.43401 6.75,2.6875 5.09996,4.05701 9.78497,6.14428 16.375,6.25 6.54034,-1.29049 12.78303,-3.63937 19,-6 0.54527,0.76123 0.54527,0.76123 1.10156,1.53784 3.10909,4.26768 3.10909,4.26768 7.89844,5.85669 0.99,-0.19207 1.98,-0.38414 3,-0.58203 4.63312,-0.70304 7.63593,-0.87331 12,1.1875 -0.26813,-0.92812 -0.53625,-1.85625 -0.8125,-2.8125 -0.58626,-4.70925 0.63951,-8.50647 2.71093,-12.718749 4.79066,-5.627686 12.98216,-6.097835 19.96485,-6.726562 2.57422,-0.05469 2.57422,-0.05469 5.22265,0.101562 3.02909,0.217936 3.02909,0.217936 6.51563,-0.0625 12.70985,-0.300825 21.26078,5.7068 30.39844,14.218749 1.58749,1.83234 3.10122,3.68036 4.54858,5.625 1.90465,1.80438 3.31329,1.90482 5.88892,2.25 5.15914,0.84214 6.60084,3.23718 9.6018,7.30811 4.17326,5.99564 8.1642,12.1113 12.12671,18.24756 5.75963,8.9008 11.64094,16.21884 20.02149,22.81933 3.56664,2.85526 6.95695,5.79024 10.25171,8.94751 14.43125,13.74931 30.6226,20.07347 50.37329,20.17749 10.55206,0.0611 19.91142,1.57684 30,4.4375 1.22759,0.34402 2.45518,0.68804 3.71997,1.04248 5.87499,1.75143 10.52221,3.56607 15.46753,7.14502 11.80792,3.45098 24.73852,0.61258 36.5,-1.625 0.98321,-0.1767 0.98321,-0.1767 1.98629,-0.35696 7.85505,-1.4326 15.00811,-2.85466 20.51371,-9.01804 1.60182,-2.85798 1.60182,-2.85798 2.25,-5.8125 0.76562,-2.89453 0.76562,-2.89453 1.75,-5.1875 2.07031,-0.66016 2.07031,-0.66016 4,-1 0.20625,-0.86625 0.4125,-1.7325 0.625,-2.625 2.47993,-6.08711 8.62192,-9.05582 14.375,-11.8125 3.66407,-0.68701 7.11241,-0.61765 10.82812,-0.4375 2.38612,0.1043 2.38612,0.1043 4.17188,-2.125 1.99951,-0.0876 1.99951,-0.0876 4.42968,0.12891 0.87786,0.0651 1.75571,0.13019 2.66016,0.19726 1.84935,0.15693 3.69832,0.31835 5.54687,0.48438 0.88043,0.0638 1.76086,0.12762 2.66797,0.19336 1.20632,0.1055 1.20632,0.1055 2.43702,0.21313 2.84771,-0.27369 4.14104,-1.35634 6.2583,-3.21704 0,0.66 0,1.32 0,2 0.66,-0.33 1.32,-0.66 2,-1 10.49867,-0.86381 19.50225,0.55043 28,7 1.95836,2.1348 3.67193,4.40893 5.375,6.75 0.44988,0.60199 0.89976,1.20399 1.36328,1.82422 1.09583,1.46889 2.18001,2.94646 3.26172,4.42578 0.7773,-0.21398 1.55461,-0.42797 2.35546,-0.64844 0.8727,-0.11601 1.7454,-0.23203 2.64454,-0.35156 1.14468,1.17563 1.14468,1.17563 2.3125,2.375 2.52245,3.04888 2.52245,3.04888 6.54687,2.78516 2.61052,0.25947 3.75873,0.45157 5.61792,2.34179 1.33889,2.13208 2.42075,4.26732 3.46021,6.56055 0.56956,1.21478 0.56956,1.21478 1.15063,2.4541 3.94307,8.9772 5.95166,17.98742 2.64233,27.55762 -3.38519,8.58051 -3.38519,8.58051 -5.73046,10.92578 0.0596,1.50113 0.14822,3.00114 0.25,4.5 0.10464,5.22473 -1.36826,8.18792 -4.35157,12.39453 -1.15088,2.10307 -1.15088,2.10307 -0.29687,4.42188 1.37012,2.62926 2.79837,5.2186 4.26807,7.79345 8.4676,15.09538 17.83497,32.21475 15.13037,49.82764 -1.94174,13.34508 5.06941,24.02259 11.37304,35.28882 0.82164,1.47815 1.64135,2.95738 2.45899,4.43774 0.59278,1.07065 0.59278,1.07065 1.19754,2.16292 2.89304,5.45788 3.93338,10.41195 4.54025,16.57585 0.6374,3.84829 2.32246,5.36419 5.43018,7.59717 1.00418,0.7786 2.00836,1.55719 3.04296,2.35938 1.0377,0.7889 2.0754,1.57781 3.14454,2.39062 3.78884,2.98717 6.45116,5.29721 7.25,10.25 0.0709,0.73863 0.14179,1.47727 0.21484,2.23828 0.17209,0.87205 0.17209,0.87205 0.34766,1.76172 2.45704,1.2329 2.45704,1.2329 5,2 0.44279,1.34192 0.44279,1.34192 0.89453,2.71094 1.23073,3.66175 2.81221,5.78466 5.29297,8.72656 0.73605,0.88559 1.47211,1.77117 2.23046,2.68359 0.85208,0.95004 1.70415,1.90008 2.58204,2.87891 0.49113,0.55164 0.98226,1.10328 1.48828,1.67163 11.53826,12.30555 29.89488,21.37261 46.78467,22.35132 10.93298,-0.092 22.04542,-2.40941 31.08251,-8.6167 8.55343,-5.23526 18.14688,-4.75939 27.89454,-5.09375 2.83381,-0.11243 5.66627,-0.23447 8.49871,-0.37739 1.74889,-0.0869 3.49877,-0.1561 5.24915,-0.20408 5.19173,-0.24073 8.87396,-1.28632 13.39246,-3.88418 1.60968,-0.84685 1.60968,-0.84685 3.60968,-0.84685 -0.0206,-0.94875 -0.0412,-1.8975 -0.0625,-2.875 0.0625,-3.125 0.0625,-3.125 1.0625,-5.125 2.31,0.33 4.62,0.66 7,1 0,-1.32 0,-2.64 0,-4 0.94875,-0.10312 1.8975,-0.20625 2.875,-0.3125 3.41607,-0.37289 3.41607,-0.37289 5.125,-3.6875 4.05445,-0.43132 5.54971,-0.30019 9,2 0.53625,-0.35062 1.0725,-0.70125 1.625,-1.0625 3.11128,-1.22814 5.13578,-0.55777 8.375,0.0625 0.99,-0.33 1.98,-0.66 3,-1 4.85836,-0.265 9.04356,0.16502 13.8125,1.125 5.24259,0.94722 9.21022,0.56417 14.36328,-0.60937 4.91354,-0.89708 9.84868,-0.67193 14.82422,-0.51563 0.33,0.99 0.66,1.98 1,3 0.5775,-0.51562 1.155,-1.03125 1.75,-1.5625 2.25,-1.4375 2.25,-1.4375 4.125,-1.21875 3.91109,1.4379 6.86729,4.22938 10.12499,6.78125 2.97,-1.65 5.94,-3.3 9,-5 0.8456,0.66129 1.6913,1.32258 2.5625,2.00391 5.9275,4.86635 5.9275,4.86635 12.9414,7.19531 0.6793,-0.14824 1.3587,-0.29648 2.0586,-0.44922 1.1344,-0.2475 2.2688,-0.495 3.4375,-0.75 0.5904,0.80567 1.1808,1.61133 1.7891,2.44141 2.0024,2.90341 2.0024,2.90341 5.4179,2.91406 1.7847,-0.0831 1.7847,-0.0831 3.6055,-0.16797 6.5785,0.19029 6.5785,0.19029 9.3438,3.01563 1.093,1.80455 2.1539,3.629 3.1796,5.47265 2.0193,2.82035 3.2523,3.25967 6.6016,3.94922 1.3497,0.16674 2.7043,0.30724 4.0625,0.375 -0.021,-0.77344 -0.041,-1.54687 -0.062,-2.34375 0.1183,-5.97585 0.4548,-9.83133 4.8125,-14.15625 1.3939,-1.19374 2.8087,-2.36397 4.25,-3.5 1.2375,-1.14469 1.2375,-1.14469 2.5,-2.3125 2.2956,-1.5495 4.0332,-2.26736 6.625,-3.125 3.3631,-1.07101 3.3631,-1.07101 5.1875,-4.125 2.1784,-3.14657 3.4333,-3.06815 7.125,-3.75 3.2716,-0.48517 6.2407,-0.6875 9.5625,-0.6875 -0.3712,-1.11375 -0.3712,-1.11375 -0.75,-2.25 -0.082,-0.9075 -0.165,-1.815 -0.25,-2.75 1.9375,-2.3125 1.9375,-2.3125 4,-4 5.75,1.875 5.75,1.875 8,3 0.2269,-0.80437 0.4538,-1.60875 0.6875,-2.4375 1.6488,-4.47536 3.918,-8.44971 6.3125,-12.5625 4.6338,0.43715 6.7672,0.76715 10,4 2.6028,-0.32041 2.6028,-0.32041 5,-1 1,1 1,1 1.3125,3.5625 -0.6033,6.63604 -3.4279,10.78161 -8.3125,15.1875 -4.845,4.6015 -8.2128,9.8761 -11.6875,15.5625 -0.8305,1.32693 -0.8305,1.32693 -1.6777,2.68067 -0.5021,0.84401 -1.0042,1.68802 -1.5215,2.55761 -0.4559,0.75966 -0.9119,1.51932 -1.3816,2.302 -0.9724,2.15366 -0.9724,2.15366 -0.02,4.35767 2.4042,3.33884 6.2814,3.48008 10.1167,4.30127 4.3101,0.66349 8.0427,1.08796 12.1719,-0.51172 2.6762,-2.07651 4.8681,-4.37455 7,-7 0.8701,0.34225 0.8701,0.34225 1.7578,0.69141 6.5363,2.4619 6.5363,2.4619 13.2422,1.30859 1.1996,-1.23843 2.3857,-2.48988 3.5625,-3.75 2.0039,-1.92578 2.0039,-1.92578 4.4375,-3.25 4.5852,0.27901 8.6809,1.47908 13,3 1.0321,8.94504 -0.3566,16.77763 -5.5132,24.24317 -5.2268,6.176 -12.7588,10.40291 -19.4868,14.75683 -8.7326,5.66177 -14.7056,10.4114 -17,21 -0.174,3.18921 -0.148,6.22443 0.1172,9.40625 -0.1423,3.14922 -1.1518,4.21271 -3.1172,6.59375 0.062,0.825 0.1238,1.65 0.1875,2.5 -0.062,0.825 -0.1237,1.65 -0.1875,2.5 -3.8703,3.32427 -6.6395,4.46255 -11.76,4.09888 -0.698,-0.0739 -1.3959,-0.14776 -2.115,-0.22388 -0.736,-0.0642 -1.4719,-0.12842 -2.2302,-0.19458 -1.5345,-0.13926 -3.068,-0.2892 -4.6004,-0.44946 -2.2258,-0.22405 -4.4496,-0.39096 -6.6811,-0.54737 -7.2352,-0.59575 -12.4112,-1.42159 -17.9492,-6.49609 -1.8266,-1.57455 -1.8266,-1.57455 -5.3516,-0.875 -1.0931,0.22688 -2.1862,0.45375 -3.3125,0.6875 -1.6876,-0.96432 -3.3567,-1.9621 -5,-3 -0.7541,0.18434 -1.5082,0.36867 -2.2851,0.55859 -3.5728,0.5809 -5.3143,-0.4089 -8.5274,-1.99609 -1.4637,-0.70963 -1.4637,-0.70963 -2.957,-1.43359 -0.7361,-0.37254 -1.4721,-0.74508 -2.2305,-1.12891 -1.32,1.98 -2.64,3.96 -4,6 -0.8624,-0.14437 -1.7248,-0.28875 -2.6133,-0.4375 -7.485,-1.13816 -14.8112,-1.77687 -22.3867,-1.8125 -0.788,-0.009 -1.576,-0.018 -2.3879,-0.0273 -4.8873,0.0249 -9.0364,0.49428 -13.6121,2.27734 -1.5315,3.00595 -1.5315,3.00595 -2,6 -2.9375,-0.75 -2.9375,-0.75 -6,-2 -0.33,-1.32 -0.66,-2.64 -1,-4 -3.63,0.66 -7.25999,1.32 -10.99999,2 -0.65871,-0.93199 -1.31743,-1.86398 -1.9961,-2.82422 -3.1352,-3.75805 -6.43964,-4.77964 -11.0664,-5.98828 -0.70705,-0.20303 -1.41411,-0.40605 -2.14258,-0.61523 -1.92508,-0.5477 -3.85972,-1.0615 -5.79492,-1.57227 -0.65549,-0.18538 -1.31098,-0.37077 -1.98633,-0.56177 -4.11123,-0.89472 -8.53154,-0.38903 -12.72656,-0.22339 -4.78147,0.0925 -7.21135,-0.51923 -11.28711,-3.21484 -2.05853,-0.0809 -2.05853,-0.0809 -4,0.4375 -3.71015,0.65881 -5.50384,-0.003 -9,-1.4375 -2.34061,0.2777 -4.67625,0.6054 -7,1 -0.66,-0.33 -1.32,-0.66 -2,-1 -2.10485,0.0323 -4.20919,0.10094 -6.3125,0.1875 -6.56093,0.0808 -11.6451,-1.22573 -17.78907,-3.38281 -2.84913,-0.791 -4.31504,-0.85814 -7.14843,-0.24219 -4.17197,0.48673 -4.65563,0.14996 -8,-2 -5.53198,-3.50714 -10.33473,-2.93119 -16.75,-2.5625 0.33,5.61 0.66,11.22 1,17 -0.66,0 -1.32,0 -2,0 0.33,0.66 0.66,1.32 1,2 0.0188,9.22159 -2.46746,18.26836 -4.5625,27.1875 -0.33335,1.44321 -0.66604,2.88657 -0.99805,4.33008 -0.80556,3.49593 -1.61999,6.98972 -2.43945,10.48242 -0.66,-0.33 -1.32,-0.66 -2,-1 0,-0.99 0,-1.98 0,-3 0,1.32 0,2.64 0,4 1.33652,7.10469 3.4774,11.33647 9,16 -1,3 -1,3 -3,4 0.30937,0.92813 0.30937,0.92813 0.625,1.875 0.18562,1.05188 0.18562,1.05188 0.375,2.125 -0.66,0.66 -1.32,1.32 -2,2 0.78208,2.79134 1.61707,5.44482 3,8 2.5708,1.13441 2.5708,1.13441 5,1 0,0.99 0,1.98 0,3 0.5775,-0.37125 1.155,-0.7425 1.75,-1.125 0.7425,-0.28875 1.485,-0.5775 2.25,-0.875 0.59812,0.30938 1.19625,0.61875 1.8125,0.9375 3.24498,1.57614 5.74048,0.77792 9.1875,0.0625 0.33,-0.33 0.66,-0.66 1,-1 3.0959,-0.53548 6.20121,-0.96573 9.3125,-1.40234 0.88687,-0.19723 1.77375,-0.39446 2.6875,-0.59766 0.33,-0.66 0.66,-1.32 1,-2 1.98,0.33 3.96,0.66 6,1 0.33,-0.99 0.66,-1.98 1,-3 0.66,0.66 1.32,1.32 2,2 3.2599,1.62995 5.29032,2 9,2 0.33,0.33 0.66,0.66 1,1 1.13437,0.14438 2.26875,0.28875 3.4375,0.4375 3.5625,0.5625 3.5625,0.5625 5.5625,2.5625 0.5775,-0.51562 1.155,-1.03125 1.75,-1.5625 2.25,-1.4375 2.25,-1.4375 4.5,-1.125 0.5775,0.22688 1.155,0.45375 1.75,0.6875 0.33,-0.99 0.66,-1.98 1,-3 0.66,0 1.32,0 2,0 0,0.66 0,1.32 0,2 0.66,0 1.32,0 2,0 0,-0.66 0,-1.32 0,-2 2.31,0 4.62,0 7,0 0.33,-0.66 0.66,-1.32 1,-2 2.5,1.6875 2.5,1.6875 5,4 0.15625,2.64453 0.15625,2.64453 0,5 2.27141,-0.11402 4.54214,-0.24158 6.8125,-0.375 1.26457,-0.0696 2.52914,-0.13922 3.83203,-0.21094 3.48302,-0.17509 3.48302,-0.17509 6.35547,-2.41406 1.32,0.66 2.64,1.32 4,2 0,0.66 0,1.32 0,2 1.32,0.33 2.64,0.66 4,1 0,0.66 0,1.32 0,2 1.42312,-0.7425 1.42312,-0.7425 2.875,-1.5 3.125,-1.5 3.125,-1.5 5.125,-1.5 0.33,-3.96 0.66,-7.92 1,-12 -1.98,-0.99 -3.96,-1.98 -6,-3 -0.33,0.99 -0.66,1.98 -1,3 -2.65844,0.96941 -5.1407,1.71401 -7.875,2.375 -0.73348,0.20238 -1.46696,0.40477 -2.22266,0.61328 -2.14453,0.53516 -2.14453,0.53516 -5.90234,1.01172 -2.00782,-1.27344 -2.00782,-1.27344 -3,-3 0,-0.66 0,-1.32 0,-2 15.25935,-4.92883 34.36573,-10.50057 49.78129,-3.83203 6.1737,3.2343 11.9975,6.59955 14.5351,13.31641 0.2461,3.39062 0.2461,3.39062 -0.062,6.50781 -0.3141,3.72142 -0.1014,5.73626 1.7461,9.00781 2.8929,1.00396 5.2686,1.60402 8.25,2.0625 6.5145,1.05595 9.8351,2.50471 14.75,6.9375 4.2283,0.53815 7.4228,0.11956 11.6016,-0.74609 10.1854,-2.01249 10.1854,-2.01249 13.9218,0.32422 4.4766,5.07952 4.4766,5.07952 4.4766,8.42187 0.5917,0.0374 1.1834,0.0748 1.793,0.11328 5.8174,0.484 9.8108,1.19659 13.8633,5.7461 2.0343,2.1511 3.732,3.73065 6.3437,5.14062 4.2902,-0.11678 7.995,-1.53794 12,-3 2.3503,-0.76192 4.7045,-1.51214 7.0625,-2.25 1.0635,-0.35578 2.127,-0.71156 3.2227,-1.07812 2.7148,-0.67188 2.7148,-0.67188 5.7148,0.32812 1.2061,1.49945 2.4109,2.99997 3.6016,4.51172 2.087,2.22108 4.6652,3.21277 7.3984,4.48828 0.66,0.99 1.32,1.98 2,3 0.9694,-0.18562 1.9388,-0.37125 2.9375,-0.5625 2.9373,-0.4406 5.3293,-0.30817 8.25,0.1875 5.0747,0.70749 9.342,-0.53079 14.2109,-1.93359 2.6016,-0.69141 2.6016,-0.69141 5.6016,-0.69141 1.7483,2.62252 2.5153,3.99485 3,7 -0.33,0.66 -0.66,1.32 -1,2 1.32,0.33 2.64,0.66 4,1 3.0305,-5.05086 3.4643,-8.91162 3.375,-14.625 0.012,-0.75023 0.023,-1.50047 0.035,-2.27344 -0.017,-3.23139 -0.2093,-5.70236 -1.6719,-8.60937 -2.1477,-1.84368 -3.1364,-1.9251 -5.9258,-1.74219 -1.2581,0.0825 -2.5162,0.165 -3.8125,0.25 0,-0.66 0,-1.32 0,-2 3.0196,-2.62995 5.4548,-3.26421 9.3516,-3.06641 2.7729,0.36282 4.2134,0.66568 6.2844,2.57349 1.4335,2.0181 2.6321,4.06154 3.8015,6.24292 0.4196,0.71672 0.8392,1.43344 1.2715,2.17188 2.0694,3.59093 3.8831,7.16971 5.291,11.07812 1.0725,-0.0206 2.145,-0.0412 3.25,-0.0625 5.742,0.0957 5.742,0.0957 7.75,1.0625 1.5216,2.89112 2,4.71824 2,8 0.5917,0.0748 1.1834,0.14953 1.793,0.22656 6.3671,1.05945 8.4022,2.66414 12.207,7.77344 5.3186,1.97581 11.4265,1.19151 17,1 0.9534,-0.029 1.9069,-0.058 2.8892,-0.0879 3.2277,-0.11764 6.4488,-0.29036 9.6733,-0.47461 1.0593,-0.0365 2.1186,-0.073 3.21,-0.11059 5.4423,-0.18712 5.4423,-0.18712 9.8286,-2.97876 1.285,-2.116 1.285,-2.116 2.3989,-5.34815 -3.465,-4.455 -3.465,-4.455 -7,-9 1,-2 1,-2 3.25,-3.1875 3.0728,-0.90786 4.7168,-0.73932 7.75,0.1875 0.33,0.33 0.66,0.66 1,1 2.0677,0.19942 2.0677,0.19942 4.4375,0.1875 1.2046,0.0213 1.2046,0.0213 2.4336,0.043 2.3452,-0.0289 2.3452,-0.0289 4.1289,-2.23047 0.1031,-0.80437 0.2063,-1.60875 0.3125,-2.4375 0.6875,-2.5625 0.6875,-2.5625 2.875,-4.4375 4.2127,-1.68508 7.2377,-0.52787 11.5,0.5625 2.5844,0.60871 2.5844,0.60871 5.3125,-1.6875 3.1011,-0.20007 5.914,-0.18284 9,0 0.9745,0.0219 1.9491,0.0438 2.9531,0.0664 9.8657,0.76544 15.5114,5.39717 22.9712,11.30908 3.7389,2.9262 7.5683,5.70517 11.4507,8.43701 0.7247,0.54576 1.4494,1.09151 2.1961,1.65381 4.0167,2.83141 4.0167,2.83141 8.7624,3.41064 2.2628,-0.52731 4.4482,-1.18964 6.6665,-1.87695 7.0644,-0.58427 11.7516,0.38848 17.25,4.9375 5.0721,4.12202 9.3828,4.91883 15.6797,5.4104 7.6357,0.64026 15.5251,2.58818 21.4297,7.69116 1.6406,1.96094 1.6406,1.96094 1.6406,3.96094 0.6291,0.098 1.2581,0.19594 1.9063,0.29688 0.8559,0.14953 1.7118,0.29906 2.5937,0.45312 0.8353,0.13922 1.6706,0.27844 2.5313,0.42188 7.6218,2.1261 13.9751,6.67152 20.4062,11.14062 0.7947,0.54334 1.5894,1.08668 2.4082,1.64649 15.6522,10.78716 15.6522,10.78716 20.5293,17.41601 3.7951,4.82597 7.8627,8.47514 12.668,12.26563 10.4952,8.37398 18.488,17.24046 25.957,28.35937 5.4104,8.557 5.4104,8.557 13.375,14.375 3.625,1.625 3.625,1.625 4.9414,4.39453 2.1064,4.04169 4.6239,5.90464 8.2461,8.54297 1.2688,0.96369 2.5357,1.92986 3.8008,2.89844 0.6208,0.47276 1.2417,0.94553 1.8813,1.43262 6.3902,4.93795 11.8396,10.30979 16.8804,16.60644 3.9284,4.83015 7.1672,8.19134 12.875,10.75 2.0749,-0.79262 2.0749,-0.79262 4,-2 0.99,-0.33 1.98,-0.66 3,-1 2.125,1.1875 2.125,1.1875 4,3 0.1328,0.63164 0.2656,1.26328 0.4024,1.91406 0.7681,2.68112 1.8862,3.52233 4.0351,5.27344 3.2555,2.70908 6.3955,5.49362 9.5,8.375 5.6672,5.08658 10.9751,9.58416 18.375,11.67188 5.272,1.69238 8.387,4.66717 12.125,8.64062 0.6104,0.61231 1.2207,1.22461 1.8496,1.85547 3.9682,4.08634 6.7129,7.3375 6.7129,13.26953 1.1022,0.41766 1.1022,0.41766 2.2266,0.84375 7.8112,3.25651 12.3831,7.5815 16.9531,14.61719 4.0917,5.70727 9.1701,10.20565 15.8203,12.53906 0.66,-0.66 1.32,-1.32 2,-2 9.8386,0.89732 21.4512,10.23796 28.0523,17.14844 9.4132,11.49619 9.4132,11.49619 8.9477,18.85156 0.66,0.66 1.32,1.32 2,2 0.49,5.96765 -1.3793,11.98125 -3.125,17.625 -0.3738,1.20914 -0.7476,2.41828 -1.1328,3.66406 -1.2107,3.04916 -2.8274,5.0678 -5.0586,7.46094 -4.316,4.68113 -6.7988,9.90291 -9.4961,15.625 -1.0361,2.13034 -2.0752,4.25924 -3.1172,6.38672 -0.5127,1.04978 -1.0254,2.09956 -1.5537,3.18115 -2.218,4.4711 -4.5511,8.87061 -6.9541,13.24463 -0.3884,0.723 -0.7768,1.44601 -1.177,2.19092 -2.2975,4.1409 -4.6134,7.63858 -8.3855,10.62158 -2.3125,-0.1875 -2.3125,-0.1875 -4,-1 -1.5183,3.79572 -2.8721,7.25064 -3.5625,11.29688 -1.0492,5.46076 -1.9655,9.95734 -6.6094,13.33594 -1.9131,1.2329 -3.8612,2.3866 -5.8239,3.5386 -5.068,3.0259 -8.9435,6.3732 -12.8167,10.8286 -0.4969,0.5453 -0.9939,1.0905 -1.5059,1.6523 -5.7463,6.8698 -5.7155,15.2487 -6.4707,23.8125 -0.068,0.7644 -0.1371,1.5288 -0.2077,2.3163 -0.069,0.778 -0.1388,1.556 -0.2102,2.3576 -0.07,0.7894 -0.1409,1.5789 -0.2134,2.3923 -0.1362,1.6017 -0.2619,3.2043 -0.377,4.8076 -0.7823,10.6494 -2.0161,18.9373 -10.2026,26.6614 -2.4461,1.7261 -4.105,2.3172 -7.0625,3.1875 -1.146,0.3648 -2.2919,0.7296 -3.4726,1.1055 -7.031,1.4347 -12.5858,0.3813 -19.2657,-1.75 -0.8302,-0.2589 -1.6605,-0.5178 -2.5159,-0.7845 -2.6704,-0.8418 -5.3336,-1.7035 -7.9958,-2.571 -0.9026,-0.2914 -1.8051,-0.5828 -2.735,-0.883 -13.1133,-4.2678 -24.8472,-8.9686 -35.9525,-17.3045 -3.8274,-3.0319 -3.8274,-3.0319 -8.4375,-3.875 -0.8456,0.2887 -1.6912,0.5775 -2.5625,0.875 -1.2581,0.3506 -2.5162,0.7012 -3.8125,1.0625 -1.0519,0.3094 -2.1037,0.6187 -3.1875,0.9375 -0.8042,4.0546 -1.3171,7.8668 -1,12 1.4292,2.2229 1.4292,2.2229 3.4375,4 2.989,2.989 4.2734,4.9327 4.6875,9.1875 -0.6068,10.7842 -8.0947,23.5284 -15.2539,31.4375 -11.4352,12.7465 -10.901,31.3792 -10.7769,47.425 -0.098,3.0627 -0.5257,5.942 -1.0942,8.95 -0.6755,-0.205 -1.3509,-0.4099 -2.0469,-0.6211 -0.892,-0.2694 -1.784,-0.5388 -2.7031,-0.8164 -1.3226,-0.4003 -1.3226,-0.4003 -2.6719,-0.8086 -0.8507,-0.2488 -1.7015,-0.4976 -2.5781,-0.7539 -0.6169,-0.2018 -1.2338,-0.4037 -1.8694,-0.6116 -2.6029,-0.4745 -4.2541,-0.059 -6.7986,0.6428 -0.8939,0.2334 -1.7879,0.4667 -2.7089,0.7071 -1.8556,0.5028 -3.7098,1.0106 -5.5625,1.5234 -9.0519,2.3456 -16.1717,1.1625 -25.0606,-1.2617 0,0.99 0,1.98 0,3 -1.7447,0.7009 -3.496,1.3852 -5.25,2.0625 -0.9745,0.3828 -1.9491,0.7657 -2.9531,1.1601 -2.9432,0.818 -3.9709,0.6252 -6.7969,-0.2226 -2.3542,0.5885 -4.6934,1.2459 -7,2 0.107,-0.5827 0.214,-1.1653 0.3242,-1.7656 1.2184,-8.3321 0.4817,-15.9886 -4.25,-23.1485 -1.1478,-1.5344 -2.2961,-3.0686 -3.458,-4.5925 -3.6406,-5.0062 -5.67,-10.3138 -7.7412,-16.1184 -3.1224,-8.7076 -6.5699,-16.309 -12.6211,-23.4297 -3.5719,-4.2163 -5.7157,-7.9483 -7.5239,-13.1282 -2.9943,-8.5189 -6.0398,-12.653 -13.7227,-17.4114 -4.8418,-3.0453 -7.1881,-5.9127 -9.5034,-11.0815 -0.5942,-2.7407 -0.2311,-4.6388 0.4961,-7.3242 -1.2863,-0.4032 -1.2863,-0.4032 -2.5986,-0.8145 -5.2885,-1.8433 -10.2437,-4.3431 -15.2798,-6.7807 -1.8776,-0.9077 -3.7591,-1.807 -5.6411,-2.7056 -1.1847,-0.5711 -2.3693,-1.1421 -3.5899,-1.7305 -1.0825,-0.5214 -2.1649,-1.0428 -3.2802,-1.58 -2.6104,-1.3887 -2.6104,-1.3887 -4.6104,-3.3887 -2.1082,0.3185 -2.1082,0.3185 -4,1 0,-0.66 0,-1.32 0,-2 -2.97,0 -5.94,0 -9,0 0,-0.66 0,-1.32 0,-2 -2.5782,-0.8934 -5.1607,-1.7649 -7.75,-2.625 -0.7296,-0.2553 -1.4592,-0.5105 -2.2109,-0.7735 -5.0597,-1.6571 -5.0597,-1.6571 -10.0391,0.3985 -1.98,-2.31 -3.96,-4.62 -6,-7 -0.33,0.66 -0.66,1.32 -1,2 -1.2375,0.4125 -2.475,0.825 -3.75,1.25 -3.5952,1.2194 -4.1516,1.6066 -6.4375,4.9375 -2.8125,2.8125 -2.8125,2.8125 -5.6914,3.0937 -2.2769,-0.063 -4.5532,-0.1525 -6.8281,-0.2656 -3.8503,-0.018 -6.6704,0.7799 -10.1953,2.2305 -19.6474,7.0613 -49.999,5.1395 -68.4649,-3.3985 -4.9332,-2.2165 -9.3498,-2.3405 -14.6953,-2.2851 -15.0652,0.029 -30.241,-6.9813 -40.9375,-17.5625 0.33,-0.66 0.66,-1.32 1,-2 0.66,0 1.32,0 2,0 -0.66,-2.97 -1.32,-5.94 -2,-9 -6.3779,-2.0294 -9.9197,-2.3584 -16.125,0.25 -7.6173,3.0919 -14.8732,3.5084 -23.0273,4.0041 -7.1545,0.4788 -13.273,1.6013 -20.043,4.0388 -3.3194,0.8368 -5.5143,0.5879 -8.8047,-0.2929 -0.66,-0.66 -1.32,-1.32 -2,-2 -2.6572,-0.6818 -2.6572,-0.6818 -5.625,-1.125 -1.0029,-0.1676 -2.0058,-0.3352 -3.0391,-0.5078 -0.7708,-0.1212 -1.5417,-0.2424 -2.3359,-0.3672 0,0.66 0,1.32 0,2 0.99,0.33 1.98,0.66 3,1 -7.5823,7.7929 -7.5823,7.7929 -11.3316,8.3406 -0.8603,-0.016 -1.7205,-0.032 -2.6069,-0.048 -0.9833,-0.01 -1.9666,-0.02 -2.9798,-0.03 -1.0633,-0.025 -2.1267,-0.05 -3.2223,-0.075 -1.1138,-0.011 -2.2276,-0.023 -3.3752,-0.034 -4.7502,-0.049 -9.4996,-0.1315 -14.2493,-0.2146 -24.7693,-0.3961 -46.9749,2.0568 -70.67239,9.3115 -3.70151,1.129 -7.40899,2.2345 -11.1211,3.3281 -1.22824,0.3874 -1.22824,0.3874 -2.48131,0.7825 -5.65269,1.6656 -10.18221,1.6867 -15.96009,0.6394 -0.71022,-0.1144 -1.42044,-0.2288 -2.15218,-0.3467 -10.07145,-1.6626 -17.12026,-4.5953 -23.84782,-12.6533 -1.21314,-1.7323 -2.40159,-3.4823 -3.5625,-5.25 -3.47405,-5.1 -6.3929,-8.0791 -12.4375,-9.75 -3.40903,-0.5561 -6.80557,-0.8802 -10.25,-1.125 -0.87616,-0.071 -1.75232,-0.142 -2.65503,-0.2151 -4.50267,-0.1859 -6.45726,-0.1202 -10.21216,2.5901 -2.00712,2.4964 -2.00712,2.4964 -2.1875,4.8828 0.65014,3.0143 1.32882,5.9396 2.30469,8.8672 0.16941,1.9746 0.26596,3.9561 0.3125,5.9375 0.0374,1.0403 0.0748,2.0805 0.11328,3.1523 -0.42578,2.9102 -0.42578,2.9102 -2.16797,5.3203 -2.25781,1.5899 -2.25781,1.5899 -4.37891,1.6836 -2.63392,-0.6751 -5.25999,-1.362 -7.8789,-2.0937 -1.08797,-0.2385 -2.17594,-0.477 -3.29688,-0.7227 -7.199,-1.7831 -11.34661,-3.7924 -15.47656,-10.0586 -2.00619,-3.629 -3.13161,-6.6926 -3.39063,-10.8554 -0.28737,-3.0749 -0.69814,-5.4867 -1.83593,-8.3633 -6.45088,-4.5785 -14.87636,-6.2682 -22.52735,-7.7383 -1.07386,-0.2098 -2.14773,-0.4196 -3.25413,-0.6358 -12.20783,-2.2193 -24.40387,-2.5691 -36.78102,-2.8134 -3.38779,-0.081 -6.77521,-0.1685 -10.16259,-0.2655 -2.07775,-0.058 -4.1558,-0.1067 -6.23404,-0.1437 -5.68776,-0.1438 -10.55605,-0.9236 -16.04087,-2.4033 -4.02073,-0.3681 -8.02632,-0.325 -12.0625,-0.3125 -1.04995,-0.016 -2.09989,-0.032 -3.18164,-0.049 -6.11816,-0 -10.29515,0.6346 -15.75586,3.3613 -2.75,-0.3125 -2.75,-0.3125 -5,-1 -6.95761,0 -16.19187,3.4122 -21.33985,8.1562 -1.20326,1.5377 -2.40638,3.0754 -3.60937,4.6133 -7.17943,7.8085 -19.07963,10.3482 -28.92578,13.168 -1.06985,0.3069 -2.13969,0.6139 -3.24195,0.9302 -7.58205,2.0552 -14.12718,3.0713 -21.88305,1.1323 -0.37512,0.4705 -0.75024,0.941 -1.13672,1.4258 -0.51176,0.6226 -1.02352,1.2452 -1.55078,1.8867 -0.49887,0.6149 -0.99774,1.2297 -1.51172,1.8633 -1.80078,1.8242 -1.80078,1.8242 -4.33594,3.1406 -3.34742,2.2864 -3.87789,4.5206 -5.21484,8.3086 -2.27976,5.9423 -5.08556,9.9427 -9.90625,14.1172 -7.53274,7.2565 -11.74571,16.5207 -16.34375,25.7578 -9.41609,18.9161 -9.41609,18.9161 -16,25.5 -1.13438,0.1237 -2.26875,0.2475 -3.4375,0.375 -3.48318,0.2991 -3.48318,0.2991 -5.3125,2.125 -1.27962,2.3509 -1.27962,2.3509 -1.77344,4.4492 -1.65151,6.1449 -4.29722,9.3824 -9.02735,13.6172 -5.99187,5.9536 -10.14318,13.0549 -14.26171,20.3711 -0.96357,1.6973 -1.92834,3.394 -2.89454,5.0898 -0.41741,0.7399 -0.83482,1.4797 -1.26489,2.242 -1.02807,1.7307 -1.02807,1.7307 -2.02807,2.7307 -2.3125,0.25 -2.3125,0.25 -5,0 -0.5775,-0.5569 -1.155,-1.1138 -1.75,-1.6875 -2.12085,-1.5765 -2.12085,-1.5765 -4.25391,-0.8789 -1.57246,0.5561 -3.13878,1.1297 -4.69922,1.7187 -5.47529,2.0207 -9.69703,2.089 -15.10937,0.2227 -7.19732,-1.2338 -12.9657,2.3147 -19.10157,5.543 -3.08593,1.082 -3.08593,1.082 -5.73437,0.4453 -2.35156,-1.3633 -2.35156,-1.3633 -4.10938,-2.7696 -5.933,-4.2172 -14.07185,-6.6591 -21.24218,-7.5937 -3.94973,0.6757 -6.96673,1.8693 -10.59375,3.543 -14.20849,6.0777 -30.0287,3.42 -44.59375,0.457 -2.14247,-0.4326 -4.28537,-0.8623 -6.43001,-1.284 -1.93774,-0.3813 -3.87345,-0.773 -5.80901,-1.1652 -15.24661,-2.35 -27.79498,4.6305 -40.07348,12.8242 -8.48566,5.6077 -16.70808,9.6747 -26.4375,12.6875 -1.07121,0.3401 -2.14243,0.6803 -3.2461,1.0307 -6.33544,1.8009 -11.62913,2.5996 -17.8164,-0.093 -2.10157,-1.7969 -2.10157,-1.7969 -3.625,-3.75 -2.84895,-2.7859 -3.89708,-3.2531 -7.96485,-3.2266 -2.6212,0.3355 -5.13317,0.8455 -7.72656,1.3906 -5.31605,0.8457 -9.17457,0.6455 -13.62109,-2.4765 -0.68063,-0.6394 -1.36125,-1.2788 -2.0625,-1.9375 0.99,-0.33 1.98,-0.66 3,-1 0.9827,-1.7379 0.9827,-1.7379 1.75,-3.8125 2.17438,-4.6859 4.53913,-6.181 9.25,-8.1875 0.66,0.33 1.32,0.66 2,1 -0.26042,2.0182 -0.52084,4.0364 -0.78125,6.0547 -0.256,1.9503 -0.256,1.9503 -0.21875,3.9453 4.47883,-0.4471 4.47883,-0.4471 8,-3 2.24218,0.059 2.24218,0.059 4.875,0.4375 3.37854,0.479 5.85562,0.6041 9.125,-0.4375 -0.43313,-0.4821 -0.86625,-0.9642 -1.3125,-1.461 -0.83532,-0.9474 -0.83532,-0.9474 -1.6875,-1.914 -0.83532,-0.9397 -0.83532,-0.9397 -1.6875,-1.8985 -1.3125,-1.7265 -1.3125,-1.7265 -1.3125,-3.7265 -0.9075,0 -1.815,0 -2.75,0 -7.25,0 -7.25,0 -8.92579,-1.4688 -0.54011,-0.6703 -1.08023,-1.3406 -1.63671,-2.0312 -0.60973,-0.7258 -1.21946,-1.4515 -1.84766,-2.1992 -1.18311,-1.4796 -2.33949,-2.9811 -3.46094,-4.5078 -3.25201,-4.2035 -5.34391,-6.0846 -10.6289,-7.1055 -7.60366,-1.6663 -12.5177,-6.4104 -16.75,-12.6875 -2.36897,-7.8279 0.61643,-14.576 4.10156,-21.6016 2.34852,-2.967 4.27349,-3.5353 7.89844,-4.3984 -0.0711,-0.635 -0.14212,-1.2701 -0.21534,-1.9243 -0.3167,-2.899 -0.61334,-5.7996 -0.90966,-8.7007 -0.11215,-0.999 -0.2243,-1.9981 -0.33985,-3.0274 -0.52624,-5.2975 -0.82806,-9.3712 1.46485,-14.3476 0.66,0 1.32,0 2,0 -0.0604,-2.0633 -0.14932,-4.1258 -0.25,-6.1875 -0.0696,-1.7229 -0.0696,-1.7229 -0.14063,-3.4805 -0.70801,-3.8714 -2.11166,-5.3675 -4.60937,-8.332 -0.79297,-2.6133 -0.79297,-2.6133 -1.1875,-5.3125 -0.1534,-0.9578 -0.3068,-1.9156 -0.46485,-2.9024 -0.21155,-1.6947 -0.38166,-3.3962 -0.47656,-5.1015 -0.22416,-3.8107 -0.72117,-5.51 -3.24609,-8.4336 -6.27445,-4.4071 -13.05731,-6.5214 -20.6875,-6.1875 -5.54594,0.2212 -8.62099,-1.1349 -13.38282,-3.8125 -9.79012,-4.7903 -21.24019,-3.4402 -31.55468,-1.25 -0.10313,0.8662 -0.20625,1.7325 -0.3125,2.625 -2.64111,5.2822 -7.49369,6.9257 -12.6875,9.375 0.12375,1.0931 0.2475,2.1862 0.375,3.3125 0.0722,0.7399 0.14437,1.4798 0.21875,2.2422 0.32091,2.4855 0.32091,2.4855 1.375,4.8281 1.15393,3.2529 1.47652,5.1581 1.03125,8.6172 -4.74997,9.3221 -11.83794,17.0367 -21,22 -1.4908,0.9107 -1.4908,0.9107 -3.01172,1.8398 -3.77224,1.4645 -6.87963,1.1778 -10.80078,0.7227 -8.94474,-0.8072 -17.33792,0.097 -26.1875,1.4375 -0.33,-1.32 -0.66,-2.64 -1,-4 -2.970004,0 -5.940004,0 -9.000004,0 0,2.31 0,4.62 0,7 -5.75,0.125 -5.75,0.125 -8,-1 -0.103125,0.6187 -0.20625,1.2375 -0.3125,1.875 -0.6875,2.125 -0.6875,2.125 -3.6875,4.125 -0.99,-0.33 -1.98,-0.66 -3,-1 0.66,-1.65 1.32,-3.3 2,-5 -2.31,-0.99 -4.62,-1.98 -7,-3 -0.07734,0.6239 -0.154687,1.2478 -0.234375,1.8906 -0.765625,2.1094 -0.765625,2.1094 -2.65625,3.0938 -1.16789,0.3789 -1.16789,0.3789 -2.359375,0.7656 -5.32178,2.1575 -7.453376,5.0874 -9.75,10.25 -1.396935,3.9912 -2,6.7647 -2,11 -1.25,1.78 -1.25,1.78 -3,3.5742 -0.635749,0.6632 -1.271499,1.3264 -1.926513,2.0098 -0.684251,0.6941 -1.368501,1.3883 -2.073487,2.1035 -1.393109,1.4402 -2.785047,2.8816 -4.175781,4.3242 -0.66854,0.6901 -1.33708,1.3803 -2.025879,2.0913 -2.101136,2.2164 -4.047849,4.5375 -5.98584,6.897 -4.467427,5.1126 -10.094862,8.4398 -15.8125,12 -0.997734,0.7244 -1.995469,1.4489 -3.023437,2.1953 -3.153392,1.9119 -4.845794,2.2889 -8.476563,2.3672 -3.6821664,0.1891 -5.4066326,0.389 -8.7499998,2.125 -2.7499999,1.3125 -2.7499999,1.3125 -6.1874999,1.0625 -6.0485313,-2.9712 -9.4274483,-7.5454 -11.6679683,-13.8711 -1.151631,-4.4173 -1.894532,-8.3013 -1.894532,-12.8789 -1.093125,-0.2063 -2.18625,-0.4125 -3.3125,-0.625 -3.6875,-1.375 -3.6875,-1.375 -5.007812,-4.25 -3.087087,-5.7434 -9.722018,-7.3016 -15.679688,-9.125 -3.41797,-0.4076 -6.58722,-0.4247 -10,0 -0.33,-1.32 -0.66,-2.64 -1,-4 -5.418808,-1.5035 -11.059762,-2.2956 -16.335937,0.029 -2.333694,1.4596 -4.493971,3.0276 -6.664063,4.7207 -1.166198,0.8804 -1.166198,0.8804 -2.355957,1.7785 -8.928333,6.9428 -18.622979,15.8329 -20.644043,27.4715 -0.604856,8.8867 2.545531,14.4353 8.0625,21 0.554942,0.6228 1.109883,1.2457 1.681641,1.8874 5.459014,6.1281 5.459014,6.1281 5.255859,10.1126 -1.9375,2.8125 -1.9375,2.8125 -4,5 0.819844,0.776 1.639688,1.552 2.484375,2.3515 6.855316,6.7706 10.506404,11.8181 12.582032,21.4649 1.247668,4.2546 3.399499,6.6927 6.542968,9.7305 1.390625,1.4531 1.390625,1.4531 1.390625,3.4531 -0.66,0 -1.32,0 -2,0 -1.447526,3.9985 -2.289712,7.6557 -2.75,11.875 -1.924325,12.7379 -7.302351,23.6399 -13.375,34.875 -0.514819,0.9532 -1.029638,1.9063 -1.560058,2.8884 -5.904903,10.6386 -5.904903,10.6386 -11.439942,12.2991 -3.039811,0.7509 -3.039811,0.7509 -3.999996,3.3125 -0.28875,0.9075 -0.5775,1.815 -0.875,2.75 -0.68063,0.99 -1.36125,1.98 -2.0625,3 -2.08543,2.7552 -2.08543,2.7552 -2.25,5.4492 -0.94851,3.5192 -2.62415,4.3871 -5.625,6.3633 -0.8959,0.6046 -1.7918,1.2091 -2.71485,1.832 -2.34765,1.3555 -2.34765,1.3555 -4.34765,1.3555 0.0116,0.9152 0.0232,1.8305 0.0352,2.7734 0.0135,1.7828 0.0135,1.7828 0.0273,3.6016 0.0116,1.1833 0.0232,2.3667 0.0352,3.5859 -0.0977,3.0391 -0.0977,3.0391 -1.09765,5.0391 -1.11375,0.3094 -1.11375,0.3094 -2.25,0.625 -3.50917,1.7546 -4.41217,3.7809 -6.14844,7.207 -1.60156,2.168 -1.60156,2.168 -4.92188,4.3789 -4.45477,3.0471 -6.59373,6.9547 -9.17968,11.6016 -1.03052,1.7772 -2.06318,3.5532 -3.09766,5.3281 -0.54415,0.9417 -1.08829,1.8833 -1.64893,2.8535 -3.15242,5.4042 -6.41117,10.7408 -9.69091,16.0684 -0.62649,1.0407 -1.25297,2.0813 -1.89844,3.1535 -0.59942,0.9716 -1.19883,1.9431 -1.81641,2.9441 -0.52585,0.8625 -1.05171,1.725 -1.5935,2.6136 -1.98589,2.5204 -3.97829,3.6673 -6.75415,5.2263 -1.52196,2.2598 -1.52196,2.2598 -2.8125,4.875 -5.10138,8.4685 -13.64649,15.1272 -22.03736,20.2556 -5.66319,3.526 -8.10315,8.3409 -11.08764,14.1819 -0.49307,0.9313 -0.98614,1.8627 -1.49414,2.8222 -1.2048,2.281 -2.39349,4.5688 -3.56836,6.8653 -1.32,-0.33 -2.64,-0.66 -4,-1 -0.33,-1.32 -0.66,-2.64 -1,-4 -0.66,0 -1.32,0 -2,0 0.0696,1.2413 0.13922,2.4827 0.21093,3.7617 0.0563,1.6419 0.1109,3.2838 0.16407,4.9258 0.0503,0.8166 0.10054,1.6332 0.15234,2.4746 0.14358,5.9107 0.14358,5.9107 -1.76221,8.5444 -1.56201,1.3911 -1.56201,1.3911 -4.76513,3.2935 -3.625,-0.25 -3.625,-0.25 -7,-1 -2.27523,0.045 -2.27523,0.045 -4,1 -0.66909,1.3321 -1.33517,2.6657 -2,4 -1.2786,1.7803 -2.57252,3.5496 -3.875,5.3125 -4.44593,6.2327 -8.06711,12.8543 -11.625,19.625 -0.52836,0.9949 -1.05671,1.9898 -1.60108,3.0149 -0.49258,0.9528 -0.98516,1.9057 -1.49267,2.8874 -0.44022,0.8494 -0.88043,1.6988 -1.33399,2.574 -1.19912,2.8921 -1.7827,5.4709 -2.07226,8.5862 1.31318,1.8996 1.31318,1.8996 3,3 -1.32,0.33 -2.64,0.66 -4,1 -0.098,0.6922 -0.19594,1.3844 -0.29688,2.0976 -3.47326,22.726 -3.47326,22.726 -8.39062,28.6524 -2.46095,3.4586 -2.58934,4.3922 -2.75,8.4375 -0.32908,6.5997 -2.5312,12.5473 -6.5625,17.8125 -0.99645,0.2565 -1.99289,0.513 -3.01953,0.7773 -3.03521,0.8724 -3.03521,0.8724 -3.89991,2.9712 -0.77386,2.3996 -1.42802,4.8163 -2.08056,7.2515 -1.19437,3.5086 -2.49966,6.9717 -3.8125,10.4375 -0.31776,0.8965 -0.63551,1.7931 -0.96289,2.7168 -0.93297,2.4323 -1.83469,4.6415 -3.22461,6.8457 -3.05078,1.3086 -3.05078,1.3086 -6,2 -1.96703,2.1122 -1.96703,2.1122 -3.375,4.625 -0.50274,0.8172 -1.00547,1.6345 -1.52344,2.4765 -0.36352,0.6265 -0.72703,1.253 -1.10156,1.8985 -3.79345,-3.0967 -7.43044,-6.267 -10.8125,-9.8125 -0.56332,-0.584 -1.12664,-1.1679 -1.70703,-1.7695 -1.53065,-2.5 -1.74649,-3.8607 -2.15235,-6.7032 -1.19411,-6.0533 -5.20753,-8.5543 -9.76562,-12.3398 -8.35404,-7.5616 -12.22089,-15.3846 -15.5625,-25.875 -0.21693,-0.6754 -0.43385,-1.3508 -0.65735,-2.0466 -0.85319,-2.6652 -1.70188,-5.3316 -2.54221,-8.0008 -5.22597,-16.3833 -13.5738,-26.9658 -27.80044,-36.4526 -1.07637,-0.7528 -2.15274,-1.5056 -3.26172,-2.2813 -10.88825,-6.5356 -23.35655,-6.305 -35.73828,-6.7187 -1.13567,-0.084 -2.27133,-0.1676 -3.44141,-0.2539 -5.71926,0.408 -11.0603,2.1908 -16.55859,3.7539 -14.84313,3.966 -25.64471,6.3127 -39.43262,-1.6526 -1.53492,-0.9289 -3.05316,-1.8852 -4.56738,-2.8474 0,-0.99 0,-1.98 0,-3 0.94101,-0.2333 1.88203,-0.4667 2.85156,-0.707 8.90432,-2.5881 8.90432,-2.5881 14.89844,-9.418 2.43673,-5.4939 3.47865,-10.9356 4.25,-16.875 3.96,0.33 7.92,0.66 12,1 4.20236,-8.5361 5.00792,-14.3828 2.11328,-23.5469 -1.18754,-2.6167 -2.46898,-4.1169 -4.48828,-6.1406 -3.47322,-3.5592 -4.43768,-6.6507 -5.6875,-11.4375 -2.28944,-8.5233 -7.65195,-13.3586 -14.05078,-19.1445 -0.95262,-0.9011 -1.90524,-1.8022 -2.88672,-2.7305 0,-0.66 0,-1.32 0,-2 0.93972,-0.1856 0.93972,-0.1856 1.89843,-0.375 2.59169,-0.6541 4.75926,-1.328 7.10157,-2.625 1.53186,-2.58 2.11481,-5.0029 2,-8 -0.99,-1.485 -0.99,-1.485 -2,-3 0.99,-0.33 1.98,-0.66 3,-1 -0.56648,-6.1313 -2.44221,-11.3154 -4.75,-17 -0.33516,-0.8637 -0.67032,-1.7274 -1.01563,-2.6172 -5.49273,-13.6902 -16.08579,-23.1388 -29.41015,-29.4063 -5.03232,-2.4509 -7.94403,-5.0848 -11.38672,-9.539 -3.73352,-4.8206 -6.69118,-7.4785 -12.4375,-9.4375 -1.2375,-0.4409 -1.2375,-0.4409 -2.5,-0.8906 -2.15696,-0.7415 -4.31891,-1.443 -6.5,-2.1094 -1.15783,-4.954 -1.02881,-7.6551 1.40356,-12.1336 8.86724,-16.5431 6.54466,-39.1259 1.51025,-56.6169 -2.82878,-8.3975 -7.71168,-14.113 -13.91381,-20.2495 -3.92484,-4.1865 -3.92484,-4.1865 -4.24219,-7.6211 0.25512,-1.9569 0.51622,-3.913 0.78198,-5.8684 0.29206,-2.2279 0.5617,-4.4589 0.80078,-6.6931 1.07169,-9.0755 3.50433,-17.1538 6.84693,-25.6299 0.2586,-0.673 0.51721,-1.346 0.78366,-2.0394 3.62624,-9.3846 7.95006,-17.5327 13.59134,-25.8981 11.09383,-16.6322 14.25246,-36.9957 18.4375,-56.25 -2.97999,-0.6378 -5.96052,-1.2728 -8.94141,-1.9063 -0.83132,-0.1782 -1.66265,-0.3564 -2.51917,-0.54 -4.80712,-1.0192 -9.61192,-1.937 -14.46615,-2.7027 -9.6568,-1.6858 -14.40751,-6.1183 -20.68363,-13.3422 -2.95342,-3.2067 -6.46353,-5.7837 -9.86621,-8.4893 -2.27812,-1.8232 -4.47074,-3.7035 -6.64843,-5.6445 -2.67728,-2.3829 -5.43322,-4.5542 -8.3125,-6.6875 -5.87485,-4.5027 -11.03312,-10.0164 -15.23487,-16.1148 -2.81937,-3.1162 -5.82611,-4.5464 -9.61279,-6.1665 -1.43165,-0.6445 -2.86329,-1.289 -4.29492,-1.9336 -2.24538,-0.9912 -4.49297,-1.9772 -6.74146,-2.9614 -2.18112,-0.9601 -4.3536,-1.9381 -6.52612,-2.9175 -0.67193,-0.2866 -1.34386,-0.5732 -2.03615,-0.8685 -4.17817,-1.8896 -6.18664,-3.5625 -8.11619,-7.7252 -0.70383,-1.4889 -0.70383,-1.4889 -1.42188,-3.0078 -0.43828,-1.0287 -0.87656,-2.05737 -1.32812,-3.11722 -0.67289,-1.55074 -0.67289,-1.55074 -1.35938,-3.13281 -0.89062,-2.74219 -0.89062,-2.74219 0.10938,-5.74219 1.61059,-1.10327 1.61059,-1.10327 3.67578,-2.12109 0.74572,-0.37834 1.49144,-0.75668 2.25976,-1.14649 0.7844,-0.38607 1.56879,-0.77215 2.37696,-1.16992 7.17779,-3.23773 7.17779,-3.23773 12.6875,-8.5625 1.26065,-6.23213 1.09421,-12.32008 -2,-18 -5.90964,-6.00166 -13.325,-10.09077 -20.48413,-14.41724 -6.7332,-4.23593 -9.47476,-9.80966 -12.82837,-16.77026 -0.4544,-0.91459 -0.90879,-1.82918 -1.37696,-2.77148 -3.31054,-6.74555 -3.31054,-6.74555 -3.31054,-9.04102 -0.54786,-0.12375 -1.09571,-0.2475 -1.66016,-0.375 -11.01837,-2.86657 -23.28183,-8.36448 -30.33984,-17.625 -1.52146,-3.04292 -1.57627,-4.6064 -1,-8 5.1659,-6.58689 14.44538,-12.16399 22.69922,-13.40625 3.01404,-0.0388 5.57287,0.0423 8.30078,1.40625 9.80005,0.75385 20.57596,-0.92674 28.35156,-7.20703 1.64844,-0.79297 1.64844,-0.79297 3.48047,-0.21094 2.83767,1.856 5.55212,3.84196 8.23047,5.91797 0.84848,0.65561 0.84848,0.65561 1.71411,1.32446 14.16023,11.08081 14.16023,11.08081 18.22339,17.17554 9.37824,-1.82895 18.70281,-3.78937 28,-6 0.27586,-1.2375 0.55171,-2.475 0.83593,-3.75 0.18402,-0.825 0.36803,-1.65 0.55762,-2.5 0.40856,-1.85266 0.81012,-3.70689 1.20508,-5.5625 7.3784,-34.51668 7.3784,-34.51668 15.52197,-40.83203 6.32882,-4.05743 13.12671,-7.30068 20.36768,-9.33594 2.64058,-0.76255 2.64058,-0.76255 3.57812,-2.98047 0.16371,-0.79664 0.32742,-1.59328 0.4961,-2.41406 0.88005,-3.87174 2.10733,-7.17302 3.82031,-10.74609 3.28224,-7.74297 4.38366,-15.68162 5.55786,-23.9524 0.373,-2.62224 0.76988,-5.24002 1.17065,-7.85815 0.25205,-1.69315 0.50275,-3.38651 0.75196,-5.08008 0.11555,-0.76898 0.23111,-1.53796 0.35017,-2.33024 1.07227,-7.64502 1.06914,-14.91082 -0.0884,-22.55648 -0.18047,-1.22074 -0.36094,-2.44148 -0.54688,-3.69922 -0.19078,-1.24652 -0.38156,-2.49304 -0.57812,-3.77734 -0.37677,-2.50755 -0.75186,-5.01535 -1.125,-7.52344 -0.16758,-1.10005 -0.33516,-2.2001 -0.50782,-3.33349 -0.36718,-2.76807 -0.36718,-2.76807 -0.36718,-5.76807 -0.88043,-0.049 -1.76086,-0.098 -2.66797,-0.14844 -1.16145,-0.0748 -2.32289,-0.14953 -3.51953,-0.22656 -1.72284,-0.10441 -1.72284,-0.10441 -3.48047,-0.21094 -3.28355,-0.40803 -5.43627,-0.83921 -8.33203,-2.41406 -1.26685,-2.45166 -1.26685,-2.45166 -2.17578,-5.53906 -0.34886,-1.13059 -0.69771,-2.26118 -1.05713,-3.42603 -0.35627,-1.20777 -0.71253,-2.41554 -1.07959,-3.65991 -3.37405,-10.74761 -7.07233,-20.61614 -12.6875,-30.375 -0.48082,-0.93457 -0.96164,-1.86914 -1.45703,-2.83203 -3.54084,-6.08201 -8.32311,-9.34567 -14.23047,-12.91797 -0.74951,-0.45552 -1.49902,-0.91104 -2.27124,-1.38037 -0.71874,-0.40557 -1.43747,-0.81114 -2.17798,-1.229 -0.64671,-0.36578 -1.29342,-0.73155 -1.95972,-1.1084 -1.95672,-0.75133 -1.95672,-0.75133 -4.00049,0.27441 -6.46092,4.05145 -12.73802,8.35839 -18.96167,12.76367 -0.88623,0.62617 -1.77246,1.25233 -2.68554,1.89746 -1.77419,1.25635 -3.54512,2.51731 -5.3125,3.78321 -0.82565,0.58491 -1.65129,1.16982 -2.50196,1.77246 -1.10299,0.7877 -1.10299,0.7877 -2.22827,1.59131 -2.32889,1.45771 -4.63771,2.44199 -7.21313,3.38525 0.40539,-1.81505 0.82504,-3.62692 1.25,-5.4375 0.23203,-1.00933 0.46406,-2.01867 0.70312,-3.05859 2.32916,-7.79574 5.83394,-14.15162 10.79688,-20.56641 0.53077,-0.69537 1.06154,-1.39074 1.60839,-2.10718 3.87011,-4.99956 7.91137,-9.62021 12.64161,-13.83032 0.72445,-0.64582 1.4489,-1.29164 2.19531,-1.95703 1.37266,-1.20785 2.752,-2.4082 4.14062,-3.59766 1.26573,-1.09934 2.47861,-2.25985 3.66407,-3.44531 2.13549,-0.16357 2.13549,-0.16357 4.76172,-0.0547 0.95455,0.0245 1.9091,0.049 2.89257,0.0742 2.00292,0.0697 4.00557,0.14761 6.00782,0.23438 6.48542,0.14789 10.03569,-0.46947 15.33789,-4.25391 0.90363,-0.62519 1.80726,-1.25039 2.73828,-1.89453 1.27424,-0.94939 1.27424,-0.94939 2.57422,-1.91797 2.70924,-2.01437 5.39929,-4.00023 8.23047,-5.83984 10.41607,-6.77293 17.98218,-16.56349 25.67968,-26.16797 1.77735,-2.17969 1.77735,-2.17969 3.77735,-4.17969 0.27715,-2.13252 0.27715,-2.13252 0.19531,-4.57031 -0.006,-0.8959 -0.0129,-1.7918 -0.0195,-2.71485 -0.0168,-0.93714 -0.0335,-1.87429 -0.0508,-2.83984 -0.009,-0.94488 -0.0181,-1.88976 -0.0274,-2.86328 -0.0236,-2.33749 -0.0565,-4.67448 -0.0976,-7.01172 0.70084,-0.1911 1.40169,-0.38221 2.12378,-0.5791 3.19149,-0.87783 6.3775,-1.77415 9.56372,-2.6709 1.10279,-0.30035 2.20558,-0.6007 3.34179,-0.91016 1.0667,-0.30292 2.1334,-0.60585 3.23243,-0.91796 1.46892,-0.40848 1.46892,-0.40848 2.96752,-0.8252 5.38157,-2.13005 8.67756,-5.95962 12.20826,-10.40918 4.43619,-5.5631 4.43619,-5.5631 6.05224,-7.15478 5.18755,-5.28816 6.54599,-11.21642 8.26026,-18.28272 0.43505,-1.67449 0.43505,-1.67449 0.8789,-3.38281 2.52731,-9.9015 4.73787,-19.54857 4.5586,-29.80469 -6.5e-4,-0.72767 -0.001,-1.45535 -0.002,-2.20508 0.13814,-5.08136 0.13814,-5.08136 -1.18554,-9.85742 -1.63748,-0.73545 -3.31445,-1.38263 -5,-2 -2.88609,-1.6767 -5.65276,-3.53609 -8.4375,-5.375 -1.27231,-0.82939 -1.27231,-0.82939 -2.57032,-1.67554 -4.90018,-3.20732 -9.76288,-6.4653 -14.59498,-9.77398 -2.63819,-1.80498 -5.28322,-3.59982 -7.92824,-5.39478 -1.29766,-0.88525 -2.59178,-1.77572 -3.88202,-2.67175 -7.01481,-4.87066 -13.58995,-8.99082 -21.9346,-11.27887 -6.92522,-2.16732 -12.45124,-5.95088 -16.65234,-11.83008 -1.28028,-3.18213 -1.28028,-3.18213 -2.35938,-6.72656 -0.1941,-0.6295 -0.38821,-1.25899 -0.58819,-1.90756 -0.40508,-1.3212 -0.80481,-2.64405 -1.19941,-3.96842 -0.60437,-2.02696 -1.22526,-4.04829 -1.84912,-6.06933 -3.0039,-9.85335 -3.0039,-9.85335 -3.0039,-13.32813 0.66644,-0.19594 1.33289,-0.39187 2.01953,-0.59375 8.17579,-2.65284 15.62793,-6.71639 21.54297,-13.08984 2.75445,-2.52243 6.02579,-2.40411 9.59765,-2.25391 8.95004,0.11393 8.95004,0.11393 16.78565,-3.64404 7.06502,-8.01883 9.5714,-15.92167 10.0542,-26.41846 0.18579,-2.07697 0.37338,-4.15379 0.5625,-6.23047 1.49766,-21.18063 -1.69816,-40.81262 -6.08405,-61.49261 -0.44997,-2.14137 -0.88233,-4.2854 -1.30804,-6.4317 -2.96792,-14.66403 -6.6184,-25.52984 -16.48096,-36.83643 -3.25705,-3.87268 -6.15396,-7.99829 -9.06445,-12.13379 -0.58991,-0.79471 -1.17982,-1.58941 -1.7876,-2.4082 -3.94087,-5.59535 -3.94087,-5.59535 -3.48584,-9.42774 0.54398,-1.00289 1.08797,-2.00578 1.64844,-3.03906 0.74777,-1.50894 1.49227,-3.01951 2.23437,-4.53125 1.26188,-2.50385 2.53219,-5.00017 3.83985,-7.48047 0.60521,-1.21623 0.60521,-1.21623 1.22265,-2.45703 0.3748,-0.72639 0.74959,-1.45277 1.13574,-2.20117 1.21787,-5.00144 -2.03971,-9.76034 -4.29589,-14.11133 -0.55535,-1.08346 -1.11069,-2.16691 -1.68287,-3.2832 -0.58289,-1.13373 -1.16579,-2.26746 -1.76635,-3.43555 -11.6875,-23.01991 -11.6875,-23.01991 -11.6875,-29.5 5.92248,-4.1343 9.93342,-5.5664 17.1289,-4.39453 0.92619,0.19529 0.92619,0.19529 1.8711,0.39453 2.11447,-8.08301 2.11447,-8.08301 0,-16 -0.37125,-0.78375 -0.7425,-1.5675 -1.125,-2.375 -0.43313,-0.80437 -0.43313,-0.80437 -0.875,-1.625 0.66,-0.66 1.32,-1.32 2,-2 0,-0.99 0,-1.98 0,-3 -1.32,1.65 -2.64,3.3 -4,5 -3.66667,-7.33333 -7.33334,-14.66667 -11,-22 0.99,-0.66 1.98,-1.319999 3,-1.999999 -0.33,-4.62 -0.66,-9.24 -1,-14 -1.45966,1.459661 -1.85791,3.132527 -2.5625,5.0625 -0.40412,1.100215 -0.40412,1.100215 -0.81641,2.222656 -0.20496,0.565899 -0.40992,1.131797 -0.62109,1.714844 -1.65,0 -3.3,0 -5,0 0.33,1.65 0.66,3.3 1,5 -3.465,0.989999 -3.465,0.989999 -7,1.999999 0.33,2.64 0.66,5.28 1,8 -1.98,-0.99 -3.96,-1.98 -6,-3 0.13277,-0.59168 0.26554,-1.18336 0.40234,-1.79297 0.1766,-0.79019 0.3532,-1.58039 0.53516,-2.39453 0.17402,-0.7773 0.34804,-1.55461 0.52734,-2.355468 0.57177,-2.469999 0.57177,-2.469999 0.89063,-5.0625 0.78072,-2.900495 1.67459,-3.691435 4.01953,-5.519531 3.6379,-3.011818 7.11768,-6.142343 10.5,-9.4375 0.92554,-0.888164 1.85109,-1.776328 2.80468,-2.691406 2.51034,-2.56867 2.51034,-2.56867 3.11304,-5.807861 1.20728,-2.938233 1.20728,-2.938233 3.70996,-4.10669 1.03423,-0.194487 2.06846,-0.388974 3.13404,-0.589355 1.13501,-0.233321 2.27003,-0.466641 3.43945,-0.707032 1.19174,-0.217851 2.38347,-0.435703 3.61133,-0.660156 10.68884,-2.055727 10.68884,-2.055727 20.3125,-6.875 0.66,0 1.32,0 2,0 0.018,-1.076367 0.0361,-2.152734 0.0547,-3.261719 0.94532,-3.738281 0.94532,-3.738281 4.07813,-5.820312 1.32316,-0.593986 2.65446,-1.170065 3.99219,-1.730469 6.89978,-3.290781 11.99199,-6.742628 14.875,-14.1875 0.34927,-3.240199 -0.13373,-5.878031 -1,-9 -0.26684,-1.088613 -0.26684,-1.088613 -0.53907,-2.199219 -0.4794,-1.935486 -0.96962,-3.868284 -1.46093,-5.800781 0,-1.32 0,-2.64 0,-4 3.34842,-2.2322836 5.12024,-2.3302358 9.05859,-1.75 2.44929,0.946203 3.13394,1.938094 4.44141,4.1875 1.5,3.5625 1.5,3.5625 1.5,5.5625 3.88738,1.110681 5.57212,1.193755 9.3125,-0.5 3.3682,-3.13321 3.24485,-5.042263 3.6875,-9.5 3.7777,-1.4156239 7.57352,-2.7746512 11.375,-4.1249998 1.06089,-0.3983203 2.12179,-0.7966406 3.21484,-1.2070312 6.32399,-2.211457 10.75551,-3.1152864 17.25757,-1.2172852 4.65052,1.1867605 9.02616,-0.096069 13.52759,-1.5131836 8.37924,-2.16704525 16.94482,-0.6922176 25.40918,0.4384766 4.40697,0.5359085 8.20907,0.5431065 12.61035,-0.098633 6.49529,-0.6969201 11.10189,1.4019599 16.85547,4.2226562 0.94101,0.4228125 1.88203,0.845625 2.85156,1.28125 5.43655,2.5583758 9.12724,5.2506618 13.17334,9.6484378 3.01232,2.742043 6.56385,3.698466 10.4126,4.820312 9.4015,2.892771 9.4015,2.892771 12.3125,5.75 0,0.66 0,1.32 0,2 1.19625,0.391875 2.3925,0.78375 3.625,1.1875 2.80149,0.922285 5.56485,1.885868 8.3164,2.949219 16.36929,6.244363 32.1855,9.588028 49.75904,8.854736 5.70264,-0.205263 9.47501,-0.180281 14.29956,3.008545 0,1.32 0,2.64 0,4 1.98,0.66 3.96,1.32 6,2 0,0.33 0,0.66 0,1 2.33152,0.510022 4.66463,1.008111 7,1.5 0.97259,0.214629 0.97259,0.214629 1.96484,0.433594 8.699,1.808704 15.14508,1.089217 23.41016,-1.933594 1.5903,-0.564876 3.18141,-1.127491 4.77343,-1.6875 0.69271,-0.251367 1.38542,-0.502734 2.09912,-0.761719 1.75245,-0.550781 1.75245,-0.550781 3.75245,-0.550781 0.13277,-0.675469 0.26554,-1.350937 0.40234,-2.046875 0.1766,-0.892031 0.3532,-1.784062 0.53516,-2.703125 0.17402,-0.881718 0.34804,-1.763437 0.52734,-2.671875 0.45884,-2.210475 0.96852,-4.393245 1.53516,-6.578125 -0.66,0 -1.32,0 -2,0 0.33,-2.31 0.66,-4.62 1,-7 3.52991,1.570687 6.28838,3.738218 9.3125,6.125 3.44946,2.526241 5.32042,3.803954 9.5625,4.625 3.23275,-0.512105 3.23275,-0.512105 5.4375,-2.839844 2.6875,-1.910156 2.6875,-1.910156 5.63281,-1.898437 1.57394,0.334512 1.57394,0.334512 3.17969,0.675781 1.13695,0.212696 2.2739,0.425391 3.44531,0.644531 1.1318,0.22043 2.26359,0.44086 3.42969,0.667969 1.99446,0.327412 3.9947,0.6223 6,0.875 0.84562,0.121172 1.69125,0.242344 2.5625,0.367188 2.62618,-0.036 2.62618,-0.036 4.8125,-2.160157 3.26232,-2.587526 5.52292,-2.761116 9.625,-3.269531 8.255048,-1.388662 15.478747,-4.326191 20.999996,-10.8125 0.4539,-3.474244 0.139381,-6.438013 -0.261718,-9.910156 0.261718,-3.0898437 0.261718,-3.0898437 2.554687,-5.5234375 3.019531,-2.0664063 3.019531,-2.0664063 6.007813,-3.7851562 2.835303,-1.5574688 2.835303,-1.5574688 3.979003,-4.2368165 2.264648,-3.3497239 4.11929,-3.824166 7.942872,-5.036621 1.251276,-0.3971119 2.502553,-0.7942237 3.791748,-1.2033692 1.34798,-0.3978695 2.697389,-0.7909287 4.048095,-1.1794434 0.68277,-0.1968942 1.36554,-0.3937884 2.069,-0.5966491 C -31.056622,-15.720404 -19.263402,-12.078411 0,0 Z m 1.5664062,9.0507813 c 0,0.66 0,1.3199997 0,1.9999997 -0.98999995,0 -1.97999995,0 -2.9999999,0 0,0.66 0,1.32 0,2 3.7261415,-1.118546 3.7261415,-1.118546 5.9999999,-3.9999997 -0.99,0 -1.9799999,0 -3,0 z M -139.43359,37.050781 c -0.10313,0.78375 -0.20625,1.5675 -0.3125,2.375 -0.6875,2.625 -0.6875,2.625 -3.6875,4.625 0,0.99 0,1.98 0,3 1.98,-0.66 3.96,-1.32 6,-2 0.18562,-1.175625 0.18562,-1.175625 0.375,-2.375 0.625,-2.625 0.625,-2.625 2.625,-4.625 -1.65,-0.33 -3.3,-0.66 -5,-1 z m -378,66.999999 c 1,4 1,4 1,4 z m 9.6875,42.4375 c -0.55688,0.51563 -1.11375,1.03125 -1.6875,1.5625 1.67488,1.73648 1.67488,1.73648 4,3 2.73398,-0.70957 2.73398,-0.70957 5,-2 0,-0.99 0,-1.98 0,-3 -3.79735,-1.17379 -3.79735,-1.17379 -7.3125,0.4375 z m 1207.3125,848.5625 c -0.33,1.98 -0.66,3.96 -1,6.00002 1.32,-0.66 2.64,-1.32002 4,-2.00002 -0.33,-1.32 -0.66,-2.64 -1,-4 -0.66,0 -1.32,0 -2,0 z m -88,37.00002 c 1,2 1,2 1,2 z m 830.99999,138 c -1.2963,1.0664 -1.2963,1.0664 -1.0625,3.5625 0.021,0.8044 0.041,1.6087 0.062,2.4375 5.4762,1.9468 5.4762,1.9468 11,1 -0.04,-1.9231 -0.04,-1.9231 -1,-4 -3.2088,-1.9532 -5.2205,-3 -9,-3 z"
     fill="#a2a2a2"
     transform="translate(680.43359,12.949219)"
     id="path1"
     style="display:none" />
  <path
     style="display:none;fill:#a2a2a2;fill-opacity:1"
     d="m 1378.7187,1007.0625 c 0.073,-0.083 0.1347,-0.1779 0.2188,-0.25 0.5921,-0.5075 1.3771,-0.9147 2.125,-1.125 0.4162,-0.1171 1.0457,-0.2537 1.4375,0.031 0.345,0.2509 0.6614,0.6891 0.8437,1.0625 0.1274,0.2608 0.2009,0.5447 0.3125,0.8125 0.9024,2.1657 -0.1409,-0.4788 0.5,1.1875 0.04,0.1048 0.098,0.2037 0.125,0.3125 0.051,0.203 0.022,0.4525 0.031,0.6563 0,0.048 0.055,0.6547 0.062,0.7187 0.028,0.2493 0.158,0.6922 0.094,0.9063 -0.017,0.058 -0.063,0.1038 -0.094,0.1562 -0.1624,0.2785 -0.073,0.1912 -0.3438,0.4063 -0.279,0.2216 -0.5587,0.4425 -0.8437,0.6562 -0.09,0.068 -0.1875,0.125 -0.2813,0.1875 -0.1041,0.062 -0.2145,0.1157 -0.3125,0.1875 -0.059,0.044 -0.099,0.1103 -0.1562,0.1563 -0.047,0.038 -0.1085,0.056 -0.1563,0.094 -0.2034,0.1599 -0.3962,0.3329 -0.5937,0.5 -0.181,0.1532 -0.3493,0.3622 -0.5625,0.4688 -0.028,0.014 -0.064,-0.01 -0.094,0 -0.014,0 -0.021,0.021 -0.031,0.031 -0.031,0.01 -0.062,0.022 -0.094,0.031 -0.1208,0.034 -0.2601,0.056 -0.375,0.094 -0.022,0.01 -0.039,0.028 -0.062,0.031 -0.1016,0.013 -0.2394,-0.021 -0.3437,0 -0.023,0 -0.04,0.027 -0.062,0.031 -0.07,0.014 -0.9668,0.024 -1.0625,0 -0.4922,-0.123 -0.9323,-0.4283 -1.3125,-0.75 -0.1335,-0.1129 -0.3103,-0.2319 -0.375,-0.4062 -0.1012,-0.2724 -0.1498,-0.5615 -0.2188,-0.8438 -0.1203,-0.4924 -0.1562,-0.8753 -0.1562,-1.375 0,-0.1041 -0.019,-0.21 0,-0.3125 0.054,-0.2956 0.1441,-0.5837 0.2187,-0.875 0.03,-0.115 0.062,-0.2291 0.094,-0.3437 0.062,-0.1667 0.1393,-0.3286 0.1875,-0.5 0.046,-0.1632 0.05,-0.3362 0.094,-0.5 0.01,-0.021 0.3343,-1.0382 0.3438,-1.0625 0.019,-0.048 0.066,-0.081 0.094,-0.125 0.1152,-0.1843 0.1687,-0.3514 0.3125,-0.5313 0.272,-0.3399 0.1301,-0.073 0.2188,-0.25"
     id="path54" />
  <path
     style="display:none;fill:#a2a2a2;fill-opacity:1"
     d="m 2127.0625,1181.875 c 0.8248,-0.048 1.6721,-0.1177 2.5,-0.062 0.2532,0.017 0.4476,0.1395 0.6875,0.1875 0.7728,0.1546 1.5341,0.6623 2.125,1.1875 0.3227,0.2868 0.5366,0.6156 0.8125,0.9375 0.1491,0.174 0.353,0.2685 0.4375,0.4375 0.06,0.1204 0.085,0.3173 0.125,0.4375 0.044,0.1326 0.1433,0.2424 0.1875,0.375 0.013,0.04 0,0.083 0,0.125 0.021,0.062 0.037,0.1269 0.062,0.1875 0.166,0.3874 0.38,0.7599 0.5625,1.125 0.025,0.05 -0.025,0.1375 0,0.1875 0.01,0.019 0.048,-0.015 0.062,0 0.058,0.058 0.08,0.2226 0.125,0.3125 0.049,0.097 0,0.3973 0,0.5 0,0.1667 0.024,0.335 0,0.5 -0.01,0.061 -0.33,0.9724 -0.375,1.0625 -0.047,0.093 -0.1323,0.1617 -0.1875,0.25 -0.1964,0.3142 -0.3687,0.8062 -0.625,1.0625 -0.033,0.033 -0.095,0.027 -0.125,0.062 -0.078,0.093 -0.1097,0.2192 -0.1875,0.3125 -0.1214,0.1457 -0.088,0.029 -0.1875,0.062 -0.1304,0.043 -0.1821,0.144 -0.3125,0.1875 -0.2233,0.074 -0.5163,0.1615 -0.75,0.1875 -0.3694,0.041 -0.7542,-0.025 -1.125,0 -1.1441,0.076 -2.2882,0.062 -3.4375,0.062 -0.4349,0 -0.8273,0 -1.25,-0.062 -0.082,-0.012 -0.1755,0.037 -0.25,0 -0.1681,-0.084 -0.3648,-0.1216 -0.5625,-0.1875 -0.044,-0.015 -0.083,-0.042 -0.125,-0.062 -0.083,-0.042 -0.1616,-0.095 -0.25,-0.125 -0.1705,-0.057 -0.3863,-0.054 -0.5625,-0.125 -0.082,-0.033 -0.1674,-0.098 -0.25,-0.125 -0.039,-0.013 -0.086,0.015 -0.125,0 -0.07,-0.028 -0.1178,-0.097 -0.1875,-0.125 -0.039,-0.015 -0.086,0.013 -0.125,0 -0.1073,-0.036 -0.2253,-0.1846 -0.3125,-0.25 -0.1468,-0.1101 -0.3565,-0.1352 -0.5,-0.25 -0.036,-0.029 -0.03,-0.092 -0.062,-0.125 -0.1918,-0.1918 -0.052,0.036 -0.25,-0.062 -0.3414,-0.1707 0.1321,-0.1018 -0.3125,-0.25 -0.059,-0.02 -0.1295,0.023 -0.1875,0 -0.055,-0.022 -0.075,-0.095 -0.125,-0.125 -0.074,-0.044 -0.1893,0 -0.25,-0.062 -0.015,-0.015 0.017,-0.051 0,-0.062 -0.045,-0.03 -0.477,-0.2155 -0.5,-0.25 -0.073,-0.1096 -0.052,-0.2654 -0.125,-0.375 -0.081,-0.1217 -0.3175,-0.2938 -0.375,-0.4375 -0.023,-0.058 0.023,-0.1295 0,-0.1875 -0.022,-0.055 -0.1064,-0.069 -0.125,-0.125 -0.047,-0.1398 -0.037,-0.2924 -0.062,-0.4375 -0.037,-0.2092 -0.099,-0.4142 -0.125,-0.625 -0.052,-0.414 0,-0.8987 0,-1.3125 0,-0.4137 -0.077,-1.3629 0,-1.75 0.2285,-1.1426 0.084,-0.247 0.3125,-0.875 0.1482,-0.4076 0.074,-0.3986 0.25,-0.75 0.075,-0.1502 0.1749,-0.2873 0.25,-0.4375 0.05,-0.1003 0.09,-0.2061 0.125,-0.3125 0.01,-0.02 -0.015,-0.048 0,-0.062 0.033,-0.033 0.092,-0.03 0.125,-0.062 0.015,-0.015 -0.015,-0.048 0,-0.062 0.5319,-0.5319 1.7386,-0.5625 2.4375,-0.5625 0.1667,0 0.3373,-0.036 0.5,0 0.1095,0.024 0.2043,0.095 0.3125,0.125 0.4082,0.1113 0.838,0.2095 1.25,0.3125 0.2256,0.056 0.4594,0.049 0.6875,0.125"
     id="path55" />
  <path
     style="display:none;fill:#a2a2a2;fill-opacity:1"
     d="m 679.17606,20.32932 c 1.26655,-0.663555 2.58109,-0.883884 3.97748,-0.883884 0.12777,0 0.40971,-0.0402 0.53033,0 0.0395,0.01318 0.0511,0.06976 0.0884,0.08839 0.20487,0.102435 0.57156,0.08721 0.79549,0.176776 0.18351,0.0734 0.34682,0.191763 0.53033,0.265166 1.81066,0.603553 -0.0398,-0.05492 1.32583,0.53033 0.19982,0.08564 0.50294,0.08928 0.7071,0.176776 0.45241,0.193889 0.81994,0.556926 1.23744,0.795495 0.20433,0.116763 1.1666,0.06934 1.41421,0.08839 0.86195,0.0663 1.6952,0.08839 2.56327,0.08839 0.15737,0 1.87323,-0.154011 2.12132,0.176777 0.3464,0.461873 0.49528,2.284428 0.53033,2.740039 0.0828,1.076296 0.0111,2.362041 -0.44195,3.358757 -0.64732,1.424111 -1.92787,2.77379 -3.35875,3.447145 -0.25291,0.119014 -0.53192,0.172139 -0.7955,0.265165 -0.23738,0.08378 -0.46137,0.210557 -0.7071,0.265165 -1.1478,0.255066 -2.46705,0.176777 -3.62393,0.176777 -1.55105,0 -3.14892,-0.02522 -4.68458,-0.265165 -0.30391,-0.04749 -0.58465,-0.193918 -0.88388,-0.265165 -0.32045,-0.0763 -0.65183,-0.10048 -0.97227,-0.176777 -0.29924,-0.07125 -0.58446,-0.194712 -0.88389,-0.265165 -0.24652,-0.058 -1.16269,-0.156458 -1.32582,-0.441941 -0.4526,-0.792036 -0.24847,-1.409332 -0.0884,-2.209709 0.0466,-0.232924 0.0418,-0.474183 0.0884,-0.707107 0.0421,-0.210327 0.15644,-0.405192 0.17677,-0.618718 0.0841,-0.882837 0,-1.845539 0,-2.740039 0,-0.255232 -0.0745,-0.990575 0,-1.325825 0.10273,-0.462256 0.29344,-0.968685 0.44194,-1.414214 0.11971,-0.359116 0.0493,0.0062 0.26517,-0.353553 0.12998,-0.216638 0.26516,-0.545105 0.26516,-0.795495"
     id="path56" />
  <path
     style="display:none;fill:#a2a2a2;fill-opacity:1"
     d="m 536,54.3125 c 0.78486,-0.218018 1.36224,-0.839283 1.875,-1.4375 0.1588,-0.185265 0.11359,-0.219241 0.25,-0.4375 0.31134,-0.498148 0.71809,-0.905348 1.0625,-1.375 0.21593,-0.294453 0.43471,-0.682855 0.625,-1 0.0107,-0.01787 -0.0147,-0.04777 0,-0.0625 0.0375,-0.03752 0.13826,-0.05114 0.1875,-0.125 0.0381,-0.05709 0.0534,-0.151675 0.125,-0.1875 0.0186,-0.0093 0.0478,0.01473 0.0625,0 0.0147,-0.01473 -0.0116,-0.04517 0,-0.0625 0.0857,-0.128574 0.30043,-0.368965 0.4375,-0.4375 0.0373,-0.01863 0.0846,0.01011 0.125,0 0.23087,-0.05772 0.44112,-0.156702 0.6875,-0.1875 0.87707,-0.109633 1.76715,0.13562 2.625,0.25 0.73204,0.09761 1.48564,0.12935 2.1875,0.375 0.2376,0.08316 0.45308,0.22077 0.6875,0.3125 0.11619,0.04547 1.47713,0.490348 1.625,0.6875 0.025,0.03333 -0.0186,0.08773 0,0.125 0.0263,0.05271 0.0987,0.07229 0.125,0.125 0.31066,0.621326 0.25,1.264285 0.25,1.9375 0,0.25 0.0342,0.502345 0,0.75 -0.0418,0.303196 -0.40715,1.66575 -0.5,2 -0.17464,0.628714 -0.28466,1.284588 -0.5625,1.875 -0.0837,0.177834 -0.21705,0.328192 -0.3125,0.5 -0.59055,1.06299 -1.27952,2.245699 -2.125,3.125 -0.26626,0.276906 -0.57503,0.510025 -0.875,0.75 -0.33852,0.270814 -0.67475,0.556127 -1.0625,0.75 -1.04274,0.521367 -2.23624,0.747706 -3.375,0.9375 -0.64114,0.106856 -2.09729,0.353448 -2.75,0.125 -0.60735,-0.212573 -1.11625,-0.641297 -1.6875,-0.9375 -0.7524,-0.390132 -0.66228,-0.171347 -1.25,-0.8125 -0.063,-0.06868 -0.0668,-0.177247 -0.125,-0.25 -0.0291,-0.03638 -0.10417,-0.02083 -0.125,-0.0625 -0.028,-0.0559 0.0152,-0.126866 0,-0.1875 -0.0272,-0.108841 -0.10656,-0.201836 -0.125,-0.3125 -0.024,-0.143849 0,-0.291667 0,-0.4375 0,-0.291667 -0.0151,-0.583723 0,-0.875 0.072,-1.391682 0.0387,-3.125028 0.5625,-4.5 0.28069,-0.736813 0.78294,-1.189295 1.3125,-1.75 0.20271,-0.214636 0.35636,-0.481359 0.5625,-0.6875"
     id="path57" />
  <path
     style="display:none;fill:#a2a2a2;fill-opacity:1"
     d="m 177.30702,169.70563 c -1.86164,0.02 -7.06933,-1.23513 -8.13172,-2.65165 -0.23272,-0.31029 0.15827,-3.19156 0.35355,-3.71231 0.86657,-2.31086 -0.27719,2.06901 0.88388,-1.41422 0.24861,-0.74582 0.38545,-1.52539 0.53033,-2.29809 0.0977,-0.52095 -0.16138,-3.0206 0,-3.18199 0.25515,-0.25514 1.51726,0.0855 1.94455,0 0.36544,-0.0731 0.69752,-0.26975 1.06066,-0.35355 1.79115,-0.41334 3.67554,-0.3462 5.48008,-0.70711 1.37586,-0.27517 2.76484,-0.71702 4.06586,-1.23743 0.0681,-0.0273 0.37301,-0.25544 0.53033,-0.17678 1.57664,0.78832 1.38319,5.30623 1.41421,5.83363 0.18089,3.07515 -0.50422,5.78468 -1.94454,8.48528 -0.41707,0.78201 -0.98131,1.95057 -1.76777,2.47488 -1.20615,0.8041 -5.25737,1.41421 -6.54074,1.41421"
     id="path58" />
  <path
     d="m 0,0 5.9414063,6.6757813 c 3.3502702,2.8221828 5.3238047,-5.0686077 7.6249997,-8.625 3.747747,1.0570568 6.618179,2.41223707 9.8125,4.5625 5.242016,3.0803596 10.490905,3.0690195 16.423096,3.1604003 5.587406,0.1001012 5.587406,0.1001012 7.764404,2.2770997 l 3,-2.0000001 c 2.625,-0.1875 2.625,-0.1875 5,0 l 1,1 c 4.14553,-0.3910877 7.34532,-1.0421355 11,-3 h 3 v 2 h 6 L 76.652346,8.0625 c 0.584491,5.506082 0.584491,5.506082 3.921875,9.695312 4.357177,2.260542 8.396402,3.437338 13.242187,4.105469 4.156307,0.661082 5.782473,1.824194 8.312502,5.1875 1.27502,1.964915 2.39054,3.906095 3.4375,6 l 2,2 v 3 l -2,1 2.22656,-0.296875 c 2.77344,0.296875 2.77344,0.296875 5.04687,2.34375 0.69352,0.892032 1.38704,1.784063 2.10157,2.703125 0.70898,0.881719 1.41797,1.763438 2.14843,2.671875 1.47657,2.578125 1.47657,2.578125 1.26954,4.703125 l -0.79297,1.875 4,1 c 1.11375,0.02063 2.2275,0.04125 3.375,0.0625 3.45716,0.201307 3.45716,0.201307 5.625,-1.0625 3.43403,-0.552458 6.57704,-0.655896 10,0 2.21057,1.637462 3.80231,3.3326 5.52734,5.46875 0.48598,0.505313 0.97195,1.010625 1.47266,1.53125 h 3 l 1,5 3,-1 c 2.51835,1.568474 4.82919,3.156349 7.1875,4.9375 l 1.98242,1.458985 c 1.61684,1.191979 3.22437,2.396581 4.83008,3.603515 l -2,5 4,1 1,-4 c 4.98742,1.742594 9.37255,4.406977 13.875,7.125 1.21599,0.731624 1.21599,0.731624 2.45654,1.478028 5.01358,3.11044 8.67893,6.167658 12.21142,10.936035 1.89002,1.895086 3.26731,2.125161 5.89454,2.460937 h 3.5625 l 2,4.999999 c 4.48951,-0.74256 4.48951,-0.74256 8.875,-1.9375 3.65198,-0.073 4.05693,0.43401 6.75,2.6875 5.09996,4.05701 9.78497,6.14428 16.375,6.25 6.54034,-1.29049 12.78303,-3.63937 19,-6 0.54527,0.76123 0.54527,0.76123 1.10156,1.53784 3.10909,4.26768 3.10909,4.26768 7.89844,5.85669 l 3,-0.58203 c 4.63312,-0.70304 7.63593,-0.87331 12,1.1875 -0.26813,-0.92812 -0.53625,-1.85625 -0.8125,-2.8125 -0.58626,-4.70925 0.63951,-8.50647 2.71093,-12.718749 4.79066,-5.627686 12.98216,-6.097835 19.96485,-6.726562 2.57422,-0.05469 2.57422,-0.05469 5.22265,0.101562 3.02909,0.217936 3.02909,0.217936 6.51563,-0.0625 12.70985,-0.300825 21.26078,5.7068 30.39844,14.218749 1.58749,1.83234 3.10122,3.68036 4.54858,5.625 1.90465,1.80438 3.31329,1.90482 5.88892,2.25 5.15914,0.84214 6.60084,3.23718 9.6018,7.30811 4.17326,5.99564 8.1642,12.1113 12.12671,18.24756 5.75963,8.9008 11.64094,16.21884 20.02149,22.81933 3.56664,2.85526 6.95695,5.79024 10.25171,8.94751 14.43125,13.74931 30.6226,20.07347 50.37329,20.17749 10.55206,0.0611 19.91142,1.57684 30,4.4375 1.22759,0.34402 2.45518,0.68804 3.71997,1.04248 5.87499,1.75143 10.52221,3.56607 15.46753,7.14502 11.80792,3.45098 24.73852,0.61258 36.5,-1.625 0.98321,-0.1767 0.98321,-0.1767 1.98629,-0.35696 7.85505,-1.4326 15.00811,-2.85466 20.51371,-9.01804 1.60182,-2.85798 1.60182,-2.85798 2.25,-5.8125 0.76562,-2.89453 0.76562,-2.89453 1.75,-5.1875 2.07031,-0.66016 2.07031,-0.66016 4,-1 l 0.625,-2.625 c 2.47993,-6.08711 8.62192,-9.05582 14.375,-11.8125 3.66407,-0.68701 7.11241,-0.61765 10.82812,-0.4375 2.38612,0.1043 2.38612,0.1043 4.17188,-2.125 1.99951,-0.0876 1.99951,-0.0876 4.42968,0.12891 0.87786,0.0651 1.75571,0.13019 2.66016,0.19726 1.84935,0.15693 3.69832,0.31835 5.54687,0.48438 0.88043,0.0638 1.76086,0.12762 2.66797,0.19336 1.20632,0.1055 1.20632,0.1055 2.43702,0.21313 2.84771,-0.27369 4.14104,-1.35634 6.2583,-3.21704 v 2 l 2,-1 c 10.49867,-0.86381 19.50225,0.55043 28,7 1.95836,2.1348 3.67193,4.40893 5.375,6.75 0.44988,0.60199 0.89976,1.20399 1.36328,1.82422 1.09583,1.46889 2.18001,2.94646 3.26172,4.42578 0.7773,-0.21398 1.55461,-0.42797 2.35546,-0.64844 0.8727,-0.11601 1.7454,-0.23203 2.64454,-0.35156 1.14468,1.17563 1.14468,1.17563 2.3125,2.375 2.52245,3.04888 2.52245,3.04888 6.54687,2.78516 2.61052,0.25947 3.75873,0.45157 5.61792,2.34179 1.33889,2.13208 2.42075,4.26732 3.46021,6.56055 0.56956,1.21478 0.56956,1.21478 1.15063,2.4541 3.94307,8.9772 5.95166,17.98742 2.64233,27.55762 -3.38519,8.58051 -3.38519,8.58051 -5.73046,10.92578 0.0596,1.50113 0.14822,3.00114 0.25,4.5 0.10464,5.22473 -1.36826,8.18792 -4.35157,12.39453 -1.15088,2.10307 -1.15088,2.10307 -0.29687,4.42188 1.37012,2.62926 2.79837,5.2186 4.26807,7.79345 8.4676,15.09538 17.83497,32.21475 15.13037,49.82764 -1.94174,13.34508 5.06941,24.02259 11.37304,35.28882 0.82164,1.47815 1.64135,2.95738 2.45899,4.43774 0.59278,1.07065 0.59278,1.07065 1.19754,2.16292 2.89304,5.45788 3.93338,10.41195 4.54025,16.57585 0.6374,3.84829 2.32246,5.36419 5.43018,7.59717 1.00418,0.7786 2.00836,1.55719 3.04296,2.35938 1.0377,0.7889 2.0754,1.57781 3.14454,2.39062 3.78884,2.98717 6.45116,5.29721 7.25,10.25 0.0709,0.73863 0.14179,1.47727 0.21484,2.23828 0.17209,0.87205 0.17209,0.87205 0.34766,1.76172 2.45704,1.2329 2.45704,1.2329 5,2 0.44279,1.34192 0.44279,1.34192 0.89453,2.71094 1.23073,3.66175 2.81221,5.78466 5.29297,8.72656 0.73605,0.88559 1.47211,1.77117 2.23046,2.68359 0.85208,0.95004 1.70415,1.90008 2.58204,2.87891 0.49113,0.55164 0.98226,1.10328 1.48828,1.67163 11.53826,12.30555 29.89488,21.37261 46.78467,22.35132 10.93298,-0.092 22.04542,-2.40941 31.08251,-8.6167 8.55343,-5.23526 18.14688,-4.75939 27.89454,-5.09375 2.83381,-0.11243 5.66627,-0.23447 8.49871,-0.37739 1.74889,-0.0869 3.49877,-0.1561 5.24915,-0.20408 5.19173,-0.24073 8.87396,-1.28632 13.39246,-3.88418 1.60968,-0.84685 1.60968,-0.84685 3.60968,-0.84685 -0.0206,-0.94875 -0.0412,-1.8975 -0.0625,-2.875 0.0625,-3.125 0.0625,-3.125 1.0625,-5.125 l 7,1 v -4 c 0.94875,-0.10312 1.8975,-0.20625 2.875,-0.3125 3.41607,-0.37289 3.41607,-0.37289 5.125,-3.6875 4.05445,-0.43132 5.54971,-0.30019 9,2 0.53625,-0.35062 1.0725,-0.70125 1.625,-1.0625 3.11128,-1.22814 5.13578,-0.55777 8.375,0.0625 l 3,-1 c 4.85836,-0.265 9.04356,0.16502 13.8125,1.125 5.24259,0.94722 9.21022,0.56417 14.36328,-0.60937 4.91354,-0.89708 9.84868,-0.67193 14.82422,-0.51563 l 1,3 c 0.5775,-0.51562 1.155,-1.03125 1.75,-1.5625 2.25,-1.4375 2.25,-1.4375 4.125,-1.21875 3.91109,1.4379 6.86729,4.22938 10.12499,6.78125 l 9,-5 c 0.8456,0.66129 1.6913,1.32258 2.5625,2.00391 5.9275,4.86635 5.9275,4.86635 12.9414,7.19531 0.6793,-0.14824 1.3587,-0.29648 2.0586,-0.44922 1.1344,-0.2475 2.2688,-0.495 3.4375,-0.75 0.5904,0.80567 1.1808,1.61133 1.7891,2.44141 2.0024,2.90341 2.0024,2.90341 5.4179,2.91406 1.7847,-0.0831 1.7847,-0.0831 3.6055,-0.16797 6.5785,0.19029 6.5785,0.19029 9.3438,3.01563 1.093,1.80455 2.1539,3.629 3.1796,5.47265 2.0193,2.82035 3.2523,3.25967 6.6016,3.94922 1.3497,0.16674 2.7043,0.30724 4.0625,0.375 -0.021,-0.77344 -0.041,-1.54687 -0.062,-2.34375 0.1183,-5.97585 0.4548,-9.83133 4.8125,-14.15625 1.3939,-1.19374 2.8087,-2.36397 4.25,-3.5 1.2375,-1.14469 1.2375,-1.14469 2.5,-2.3125 2.2956,-1.5495 4.0332,-2.26736 6.625,-3.125 3.3631,-1.07101 3.3631,-1.07101 5.1875,-4.125 2.1784,-3.14657 3.4333,-3.06815 7.125,-3.75 3.2716,-0.48517 6.2407,-0.6875 9.5625,-0.6875 -0.3712,-1.11375 -0.3712,-1.11375 -0.75,-2.25 -0.082,-0.9075 -0.165,-1.815 -0.25,-2.75 1.9375,-2.3125 1.9375,-2.3125 4,-4 5.75,1.875 5.75,1.875 8,3 0.2269,-0.80437 0.4538,-1.60875 0.6875,-2.4375 1.6488,-4.47536 3.918,-8.44971 6.3125,-12.5625 4.6338,0.43715 6.7672,0.76715 10,4 2.6028,-0.32041 2.6028,-0.32041 5,-1 1,1 1,1 1.3125,3.5625 -0.6033,6.63604 -3.4279,10.78161 -8.3125,15.1875 -4.845,4.6015 -8.2128,9.8761 -11.6875,15.5625 -0.8305,1.32693 -0.8305,1.32693 -1.6777,2.68067 -0.5021,0.84401 -1.0042,1.68802 -1.5215,2.55761 -0.4559,0.75966 -0.9119,1.51932 -1.3816,2.302 -0.9724,2.15366 -0.9724,2.15366 -0.02,4.35767 2.4042,3.33884 6.2814,3.48008 10.1167,4.30127 4.3101,0.66349 8.0427,1.08796 12.1719,-0.51172 2.6762,-2.07651 4.8681,-4.37455 7,-7 0.8701,0.34225 0.8701,0.34225 1.7578,0.69141 6.5363,2.4619 6.5363,2.4619 13.2422,1.30859 1.1996,-1.23843 2.3857,-2.48988 3.5625,-3.75 2.0039,-1.92578 2.0039,-1.92578 4.4375,-3.25 4.5852,0.27901 8.6809,1.47908 13,3 1.0321,8.94504 -0.3566,16.77763 -5.5132,24.24317 -5.2268,6.176 -12.7588,10.40291 -19.4868,14.75683 -8.7326,5.66177 -14.7056,10.4114 -17,21 -0.174,3.18921 -0.148,6.22443 0.1172,9.40625 -0.1423,3.14922 -1.1518,4.21271 -3.1172,6.59375 0.062,0.825 0.1238,1.65 0.1875,2.5 -0.062,0.825 -0.1237,1.65 -0.1875,2.5 -3.8703,3.32427 -6.6395,4.46255 -11.76,4.09888 -0.698,-0.0739 -1.3959,-0.14776 -2.115,-0.22388 -0.736,-0.0642 -1.4719,-0.12842 -2.2302,-0.19458 -1.5345,-0.13926 -3.068,-0.2892 -4.6004,-0.44946 -2.2258,-0.22405 -4.4496,-0.39096 -6.6811,-0.54737 -7.2352,-0.59575 -12.4112,-1.42159 -17.9492,-6.49609 -1.8266,-1.57455 -1.8266,-1.57455 -5.3516,-0.875 -1.0931,0.22688 -2.1862,0.45375 -3.3125,0.6875 -1.6876,-0.96432 -3.3567,-1.9621 -5,-3 -0.7541,0.18434 -1.5082,0.36867 -2.2851,0.55859 -3.5728,0.5809 -5.3143,-0.4089 -8.5274,-1.99609 -1.4637,-0.70963 -1.4637,-0.70963 -2.957,-1.43359 -0.7361,-0.37254 -1.4721,-0.74508 -2.2305,-1.12891 l -4,6 c -0.8624,-0.14437 -1.7248,-0.28875 -2.6133,-0.4375 -7.485,-1.13816 -14.8112,-1.77687 -22.3867,-1.8125 -0.788,-0.009 -1.576,-0.018 -2.3879,-0.0273 -4.8873,0.0249 -9.0364,0.49428 -13.6121,2.27734 -1.5315,3.00595 -1.5315,3.00595 -2,6 -2.9375,-0.75 -2.9375,-0.75 -6,-2 l -1,-4 -10.99999,2 c -0.65871,-0.93199 -1.31743,-1.86398 -1.9961,-2.82422 -3.1352,-3.75805 -6.43964,-4.77964 -11.0664,-5.98828 -0.70705,-0.20303 -1.41411,-0.40605 -2.14258,-0.61523 -1.92508,-0.5477 -3.85972,-1.0615 -5.79492,-1.57227 -0.65549,-0.18538 -1.31098,-0.37077 -1.98633,-0.56177 -4.11123,-0.89472 -8.53154,-0.38903 -12.72656,-0.22339 -4.78147,0.0925 -7.21135,-0.51923 -11.28711,-3.21484 -2.05853,-0.0809 -2.05853,-0.0809 -4,0.4375 -3.71015,0.65881 -5.50384,-0.003 -9,-1.4375 -2.34061,0.2777 -4.67625,0.6054 -7,1 l -2,-1 c -2.10485,0.0323 -4.20919,0.10094 -6.3125,0.1875 -6.56093,0.0808 -11.6451,-1.22573 -17.78907,-3.38281 -2.84913,-0.791 -4.31504,-0.85814 -7.14843,-0.24219 -4.17197,0.48673 -4.65563,0.14996 -8,-2 -5.53198,-3.50714 -10.33473,-2.93119 -16.75,-2.5625 l 1,17 h -2 l 1,2 c 0.0188,9.22159 -2.46746,18.26836 -4.5625,27.1875 -0.33335,1.44321 -0.66604,2.88657 -0.99805,4.33008 -0.80556,3.49593 -1.61999,6.98972 -2.43945,10.48242 l -2,-1 v -3 4 c 1.33652,7.10469 3.4774,11.33647 9,16 -1,3 -1,3 -3,4 0.30937,0.92813 0.30937,0.92813 0.625,1.875 0.18562,1.05188 0.18562,1.05188 0.375,2.125 l -2,2 c 0.78208,2.79134 1.61707,5.44482 3,8 2.5708,1.13441 2.5708,1.13441 5,1 v 3 l 1.75,-1.125 2.25,-0.875 c 0.59812,0.30938 1.19625,0.61875 1.8125,0.9375 3.24498,1.57614 5.74048,0.77792 9.1875,0.0625 l 1,-1 c 3.0959,-0.53548 6.20121,-0.96573 9.3125,-1.40234 0.88687,-0.19723 1.77375,-0.39446 2.6875,-0.59766 l 1,-2 6,1 1,-3 2,2 c 3.2599,1.62995 5.29032,2 9,2 l 1,1 c 1.13437,0.14438 2.26875,0.28875 3.4375,0.4375 3.5625,0.5625 3.5625,0.5625 5.5625,2.5625 0.5775,-0.51562 1.155,-1.03125 1.75,-1.5625 2.25,-1.4375 2.25,-1.4375 4.5,-1.125 0.5775,0.22688 1.155,0.45375 1.75,0.6875 l 1,-3 h 2 v 2 h 2 v -2 h 7 l 1,-2 c 2.5,1.6875 2.5,1.6875 5,4 0.15625,2.64453 0.15625,2.64453 0,5 2.27141,-0.11402 4.54214,-0.24158 6.8125,-0.375 1.26457,-0.0696 2.52914,-0.13922 3.83203,-0.21094 3.48302,-0.17509 3.48302,-0.17509 6.35547,-2.41406 l 4,2 v 2 l 4,1 v 2 c 1.42312,-0.7425 1.42312,-0.7425 2.875,-1.5 3.125,-1.5 3.125,-1.5 5.125,-1.5 l 23.69139,-0.0156 c 0.2461,3.39062 9.2461,0.64062 8.938,3.75781 -0.3141,3.72142 6.5236,4.98626 8.3711,8.25781 2.8929,1.00396 5.2686,1.60402 8.25,2.0625 6.5145,1.05595 9.8351,2.50471 14.75,6.9375 4.2283,0.53815 7.4228,0.11956 11.6016,-0.74609 10.1854,-2.01249 10.1854,-2.01249 13.9218,0.32422 4.4766,5.07952 4.4766,5.07952 4.4766,8.42187 0.5917,0.0374 1.1834,0.0748 1.793,0.11328 5.8174,0.484 9.8108,1.19659 13.8633,5.7461 2.0343,2.1511 3.732,3.73065 6.3437,5.14062 4.2902,-0.11678 7.995,-1.53794 12,-3 2.3503,-0.76192 4.7045,-1.51214 7.0625,-2.25 1.0635,-0.35578 2.127,-0.71156 3.2227,-1.07812 2.7148,-0.67188 2.7148,-0.67188 5.7148,0.32812 1.2061,1.49945 2.4109,2.99997 3.6016,4.51172 2.087,2.22108 4.6652,3.21277 7.3984,4.48828 l 2,3 c 0.9694,-0.18562 1.9388,-0.37125 2.9375,-0.5625 2.9373,-0.4406 5.3293,-0.30817 8.25,0.1875 5.0747,0.70749 9.342,-0.53079 14.2109,-1.93359 2.6016,-0.69141 2.6016,-0.69141 5.6016,-0.69141 1.7483,2.62252 2.5153,3.99485 3,7 l -1,2 4,1 17.9998,-10 c 1.0725,-0.0206 2.145,-0.0412 3.25,-0.0625 5.742,0.0957 5.742,0.0957 7.75,1.0625 1.5216,2.89112 2,4.71824 2,8 0.5917,0.0748 1.1834,0.14953 1.793,0.22656 6.3671,1.05945 8.4022,2.66414 12.207,7.77344 5.3186,1.97581 11.4265,1.19151 17,1 0.9534,-0.029 1.9069,-0.058 2.8892,-0.0879 3.2277,-0.11764 6.4488,-0.29036 9.6733,-0.47461 1.0593,-0.0365 2.1186,-0.073 3.21,-0.11059 5.4423,-0.18712 5.4423,-0.18712 9.8286,-2.97876 1.285,-2.116 1.285,-2.116 2.3989,-5.34815 l -7,-9 c 1,-2 1,-2 3.25,-3.1875 3.0728,-0.90786 4.7168,-0.73932 7.75,0.1875 l 1,1 c 2.0677,0.19942 2.0677,0.19942 4.4375,0.1875 1.2046,0.0213 1.2046,0.0213 2.4336,0.043 2.3452,-0.0289 2.3452,-0.0289 4.1289,-2.23047 0.1031,-0.80437 0.2063,-1.60875 0.3125,-2.4375 0.6875,-2.5625 0.6875,-2.5625 2.875,-4.4375 4.2127,-1.68508 7.2377,-0.52787 11.5,0.5625 2.5844,0.60871 2.5844,0.60871 5.3125,-1.6875 3.1011,-0.20007 5.914,-0.18284 9,0 0.9745,0.0219 1.9491,0.0438 2.9531,0.0664 9.8657,0.76544 15.5114,5.39717 22.9712,11.30908 3.7389,2.9262 7.5683,5.70517 11.4507,8.43701 0.7247,0.54576 1.4494,1.09151 2.1961,1.65381 4.0167,2.83141 4.0167,2.83141 8.7624,3.41064 2.2628,-0.52731 4.4482,-1.18964 6.6665,-1.87695 7.0644,-0.58427 11.7516,0.38848 17.25,4.9375 5.0721,4.12202 9.3828,4.91883 15.6797,5.4104 7.6357,0.64026 15.5251,2.58818 21.4297,7.69116 1.6406,1.96094 1.6406,1.96094 1.6406,3.96094 0.6291,0.098 1.2581,0.19594 1.9063,0.29688 0.8559,0.14953 1.7118,0.29906 2.5937,0.45312 0.8353,0.13922 1.6706,0.27844 2.5313,0.42188 7.6218,2.1261 13.9751,6.67152 20.4062,11.14062 0.7947,0.54334 1.5894,1.08668 2.4082,1.64649 15.6522,10.78716 15.6522,10.78716 20.5293,17.41601 3.7951,4.82597 7.8627,8.47514 12.668,12.26563 10.4952,8.37398 18.488,17.24046 25.957,28.35937 5.4104,8.557 5.4104,8.557 13.375,14.375 3.625,1.625 3.625,1.625 4.9414,4.39453 2.1064,4.04169 4.6239,5.90464 8.2461,8.54297 1.2688,0.96369 2.5357,1.92986 3.8008,2.89844 0.6208,0.47276 1.2417,0.94553 1.8813,1.43262 6.3902,4.93795 11.8396,10.30979 16.8804,16.60644 3.9284,4.83015 7.1672,8.19134 12.875,10.75 2.0749,-0.79262 2.0749,-0.79262 4,-2 l 3,-1 c 2.125,1.1875 2.125,1.1875 4,3 0.1328,0.63164 0.2656,1.26328 0.4024,1.91406 0.7681,2.68112 1.8862,3.52233 4.0351,5.27344 3.2555,2.70908 6.3955,5.49362 9.5,8.375 5.6672,5.08658 10.9751,9.58416 18.375,11.67188 5.272,1.69238 8.387,4.66717 12.125,8.64062 0.6104,0.61231 1.2207,1.22461 1.8496,1.85547 3.9682,4.08634 6.7129,7.3375 6.7129,13.26953 1.1022,0.41766 1.1022,0.41766 2.2266,0.84375 7.8112,3.25651 12.3831,7.5815 16.9531,14.61719 4.0917,5.70727 9.1701,10.20565 15.8203,12.53906 l 2,-2 c 9.8386,0.89732 21.4512,10.23796 28.0523,17.14844 9.4132,11.49619 9.4132,11.49619 8.9477,18.85156 l 2,2 c 0.49,5.96765 -1.3793,11.98125 -3.125,17.625 -0.3738,1.20914 -0.7476,2.41828 -1.1328,3.66406 -1.2107,3.04916 -2.8274,5.0678 -5.0586,7.46094 -4.316,4.68113 -6.7988,9.90291 -9.4961,15.625 -1.0361,2.13034 -2.0752,4.25924 -3.1172,6.38672 -0.5127,1.04978 -1.0254,2.09956 -1.5537,3.18115 -2.218,4.4711 -4.5511,8.87061 -6.9541,13.24463 -0.3884,0.723 -0.7768,1.44601 -1.177,2.19092 -2.2975,4.1409 -4.6134,7.63858 -8.3855,10.62158 -2.3125,-0.1875 -2.3125,-0.1875 -4,-1 -1.5183,3.79572 -2.8721,7.25064 -3.5625,11.29688 -1.0492,5.46076 -1.9655,9.95737 -6.6094,13.33597 -1.9131,1.2329 -3.8612,2.3866 -5.8239,3.5386 -5.068,3.0258 -8.9435,6.3732 -12.8167,10.8286 -0.4969,0.5453 -0.9939,1.0905 -1.5059,1.6523 -5.7463,6.8698 -5.7155,15.2487 -6.4707,23.8125 -0.068,0.7644 -0.1371,1.5288 -0.2077,2.3163 -0.069,0.778 -0.1388,1.556 -0.2102,2.3576 -0.07,0.7894 -0.1409,1.5789 -0.2134,2.3923 -0.1362,1.6017 -0.2619,3.2043 -0.377,4.8076 -0.7823,10.6494 -2.0161,18.9373 -10.2026,26.6614 -2.4461,1.7261 -4.105,2.3172 -7.0625,3.1875 -1.146,0.3648 -2.2919,0.7296 -3.4726,1.1055 -7.031,1.4347 -12.5858,0.3813 -19.2657,-1.75 -0.8302,-0.2589 -1.6605,-0.5179 -2.5159,-0.7845 -2.6704,-0.8418 -5.3336,-1.7035 -7.9958,-2.571 -0.9026,-0.2914 -1.8051,-0.5828 -2.735,-0.883 -13.1133,-4.2678 -24.8472,-8.9686 -35.9525,-17.3045 -3.8274,-3.0319 -3.8274,-3.0319 -8.4375,-3.875 -0.8456,0.2887 -1.6912,0.5775 -2.5625,0.875 -1.2581,0.3506 -2.5162,0.7012 -3.8125,1.0625 -1.0519,0.3094 -2.1037,0.6187 -3.1875,0.9375 -0.8042,4.0546 -1.3171,7.8668 -1,12 1.4292,2.2229 1.4292,2.2229 3.4375,4 2.989,2.989 4.2734,4.9327 4.6875,9.1875 -0.6068,10.7842 -8.0947,23.5284 -15.2539,31.4375 -11.4352,12.7465 -10.901,31.3792 -10.7769,47.425 -0.098,3.0627 -0.1507,3.5045 -0.7192,6.5125 -0.6755,-0.205 -1.6009,1.2776 -2.2969,1.0664 -0.892,-0.2694 -1.909,0.2112 -2.8281,-0.066 -1.3226,-0.4003 -1.3226,-0.4003 -2.6719,-0.8086 -0.8507,-0.2488 -1.7015,-0.4976 -2.5781,-0.7539 -0.6169,-0.2018 -1.2338,-0.4037 -1.8694,-0.6116 -2.6029,-0.4745 -4.2541,-0.059 -6.7986,0.6428 -0.8939,0.2334 -1.7879,0.4667 -2.7089,0.7071 -1.8556,0.5028 -3.7098,1.0106 -5.5625,1.5234 -9.0519,2.3456 -11.4842,4.4125 -20.3731,1.9883 l -4.6875,-0.25 c -1.7447,0.7009 -3.496,1.3852 -5.25,2.0625 -0.9745,0.3828 -1.9491,0.7657 -2.9531,1.1601 -2.9432,0.818 -3.9709,0.6252 -6.7969,-0.2226 -2.3542,0.5885 -1.1934,-0.8791 -3.5,-0.125 0.107,-0.5827 -1.661,-4.4153 -1.5508,-5.0156 1.2184,-8.3321 -1.1433,-10.6136 -5.875,-17.7735 -1.1478,-1.5344 -2.2961,-3.0686 -3.458,-4.5925 -3.6406,-5.0062 -5.67,-10.3138 -7.7412,-16.1184 -3.1224,-8.7076 -6.5699,-16.309 -12.6211,-23.4297 -3.5719,-4.2163 -5.7157,-7.9483 -7.5239,-13.1282 -2.9943,-8.5189 -6.0398,-12.653 -13.7227,-17.4114 -4.8418,-3.0453 -7.1881,-5.9127 -9.5034,-11.0815 -0.5942,-2.7407 -0.2311,-4.6388 0.4961,-7.3242 -1.2863,-0.4032 -1.2863,-0.4032 -2.5986,-0.8145 -5.2885,-1.8433 -10.2437,-4.3431 -15.2798,-6.7807 -1.8776,-0.9077 -3.7591,-1.807 -5.6411,-2.7056 -1.1847,-0.5711 -2.3693,-1.1421 -3.5899,-1.7305 -1.0825,-0.5214 -2.1649,-1.0428 -3.2802,-1.58 -2.6104,-1.3887 -2.6104,-1.3887 -4.6104,-3.3887 -2.1082,0.3185 -2.1082,0.3185 -4,1 v -2 h -9 v -2 c -2.5782,-0.8934 -5.1607,-1.7649 -7.75,-2.625 -0.7296,-0.2553 -1.4592,-0.5105 -2.2109,-0.7735 -5.0597,-1.6571 -5.0597,-1.6571 -10.0391,0.3985 l -6,-7 -1,2 -3.75,1.25 c -3.5952,1.2194 -4.1516,1.6066 -6.4375,4.9375 -2.8125,2.8125 -2.8125,2.8125 -5.6914,3.0937 -2.2769,-0.063 -4.5532,-0.1525 -6.8281,-0.2656 -3.8503,-0.018 -6.6704,0.7799 -10.1953,2.2305 -19.6474,7.0613 -49.999,5.1395 -68.4649,-3.3985 -4.9332,-2.2165 -9.3498,-2.3405 -14.6953,-2.2851 -15.0652,0.029 -30.241,-6.9813 -40.9375,-17.5625 l 1,-2 h 2 l -2,-9 c -6.3779,-2.0294 -9.9197,-2.3584 -16.125,0.25 -7.6173,3.0919 -14.8732,3.5084 -23.0273,4.0041 -7.1545,0.4788 -13.273,1.6013 -20.043,4.0388 -3.3194,0.8368 -5.5143,0.5879 -8.8047,-0.2929 l -2,-2 c -2.6572,-0.6818 -2.6572,-0.6818 -5.625,-1.125 -1.0029,-0.1676 -2.0058,-0.3352 -3.0391,-0.5078 -0.7708,-0.1212 -1.5417,-0.2424 -2.3359,-0.3672 v 2 l 3,1 c -7.5823,7.7929 -7.5823,7.7929 -11.3316,8.3406 -0.8603,-0.016 -1.7205,-0.032 -2.6069,-0.048 -0.9833,-0.01 -1.9666,-0.02 -2.9798,-0.03 -1.0633,-0.025 -2.1267,-0.05 -3.2223,-0.075 -1.1138,-0.011 -2.2276,-0.023 -3.3752,-0.034 -4.7502,-0.049 -9.4996,-0.1315 -14.2493,-0.2146 -24.7693,-0.3961 -46.9749,2.0568 -70.67239,9.3115 -3.70151,1.129 -7.40899,2.2345 -11.1211,3.3281 -1.22824,0.3874 -1.22824,0.3874 -2.48131,0.7825 -5.65269,1.6656 -10.18221,1.6867 -15.96009,0.6394 -0.71022,-0.1144 -1.42044,-0.2288 -2.15218,-0.3467 -10.07145,-1.6626 -17.12026,-4.5953 -23.84782,-12.6533 -1.21314,-1.7323 -2.40159,-3.4823 -3.5625,-5.25 -3.47405,-5.1 -6.3929,-8.0791 -12.4375,-9.75 -3.40903,-0.5561 -6.80557,-0.8802 -10.25,-1.125 -0.87616,-0.071 -1.75232,-0.142 -2.65503,-0.2151 -4.50267,-0.1859 -6.45726,-0.1202 -10.21216,2.5901 -2.00712,2.4964 -2.00712,2.4964 -2.1875,4.8828 0.65014,3.0143 1.32882,5.9396 2.30469,8.8672 0.16941,1.9746 0.26596,3.9561 0.3125,5.9375 0.0374,1.0403 0.0748,2.0805 0.11328,3.1523 -0.42578,2.9102 -0.42578,2.9102 -2.16797,5.3203 -2.25781,1.5899 -2.25781,1.5899 -4.37891,1.6836 -2.63392,-0.6751 -5.25999,-1.362 -7.8789,-2.0937 -1.08797,-0.2385 -2.17594,-0.477 -3.29688,-0.7227 -7.199,-1.7831 -11.34661,-3.7924 -15.47656,-10.0586 -2.00619,-3.629 -3.13161,-6.6926 -3.39063,-10.8554 -0.28737,-3.0749 -0.69814,-5.4867 -1.83593,-8.3633 -6.45088,-4.5785 -14.87636,-6.2682 -22.52735,-7.7383 -1.07386,-0.2098 -2.14773,-0.4196 -3.25413,-0.6358 -12.20783,-2.2193 -24.40387,-2.5691 -36.78102,-2.8134 -3.38779,-0.081 -6.77521,-0.1685 -10.16259,-0.2655 -2.07775,-0.058 -4.1558,-0.1067 -6.23404,-0.1437 -5.68776,-0.1438 -10.55605,-0.9236 -16.04087,-2.4033 -4.02073,-0.3681 -8.02632,-0.325 -12.0625,-0.3125 -1.04995,-0.016 -2.09989,-0.032 -3.18164,-0.049 -6.11816,0 -10.29515,0.6346 -15.75586,3.3613 -2.75,-0.3125 -2.75,-0.3125 -5,-1 -6.95761,0 -16.19187,3.4122 -21.33985,8.1562 -1.20326,1.5377 -2.40638,3.0754 -3.60937,4.6133 -7.17943,7.8085 -19.07963,10.3482 -28.92578,13.168 -1.06985,0.3069 -2.13969,0.6139 -3.24195,0.9302 -7.58205,2.0552 -14.12718,3.0713 -21.88305,1.1323 -0.37512,0.4705 -0.75024,0.941 -1.13672,1.4258 -0.51176,0.6226 -1.02352,1.2452 -1.55078,1.8867 -0.49887,0.6149 -0.99774,1.2297 -1.51172,1.8633 -1.80078,1.8242 -1.80078,1.8242 -4.33594,3.1406 -3.34742,2.2864 -3.87789,4.5206 -5.21484,8.3086 -2.27976,5.9423 -5.08556,9.9427 -9.90625,14.1172 -7.53274,7.2565 -11.74571,16.5207 -16.34375,25.7578 -9.41609,18.9161 -9.41609,18.9161 -16,25.5 -1.13438,0.1237 -2.26875,0.2475 -3.4375,0.375 -3.48318,0.2991 -3.48318,0.2991 -5.3125,2.125 -1.27962,2.3509 -1.27962,2.3509 -1.77344,4.4492 -1.65151,6.1449 -4.29722,9.3824 -9.02735,13.6172 -5.99187,5.9536 -10.14318,13.0549 -14.26171,20.3711 -0.96357,1.6973 -1.92834,3.394 -2.89454,5.0898 -0.41741,0.7399 -0.83482,1.4797 -1.26489,2.242 -1.02807,1.7307 -1.02807,1.7307 -2.02807,2.7307 -2.3125,0.25 -2.3125,0.25 -5,0 -0.5775,-0.5569 -1.155,-1.1138 -1.75,-1.6875 -2.12085,-1.5765 -2.12085,-1.5765 -4.25391,-0.8789 -1.57246,0.5561 -3.13878,1.1297 -4.69922,1.7187 -5.47529,2.0207 -9.69703,2.089 -15.10937,0.2227 -7.19732,-1.2338 -12.9657,2.3147 -19.10157,5.543 -3.08593,1.082 -3.08593,1.082 -5.73437,0.4453 -2.35156,-1.3633 -2.35156,-1.3633 -4.10938,-2.7696 -5.933,-4.2172 -14.07185,-6.6591 -21.24218,-7.5937 -3.94973,0.6757 -6.96673,1.8693 -10.59375,3.543 -14.20849,6.0777 -30.0287,3.42 -44.59375,0.457 -2.14247,-0.4326 -4.28537,-0.8623 -6.43001,-1.284 -1.93774,-0.3813 -3.87345,-0.773 -5.80901,-1.1652 -15.24661,-2.35 -27.79498,4.6305 -40.07348,12.8242 -8.48566,5.6077 -16.70808,9.6747 -26.4375,12.6875 -1.07121,0.3401 -2.14243,0.6803 -3.2461,1.0307 l -15.8164,-15.093 c -0.43313,-0.4821 -0.86625,-0.9642 -1.3125,-1.461 -0.83532,-0.9474 -0.83532,-0.9474 -1.6875,-1.914 -0.83532,-0.9397 -0.83532,-0.9397 -1.6875,-1.8985 -1.3125,-1.7265 -1.3125,-1.7265 -1.3125,-3.7265 h -2.75 c -7.25,0 -7.25,0 -8.92579,-1.4688 -0.54011,-0.6703 -1.08023,-1.3406 -1.63671,-2.0312 -0.60973,-0.7258 -1.21946,-1.4515 -1.84766,-2.1992 -1.18311,-1.4796 -2.33949,-2.9811 -3.46094,-4.5078 -3.25201,-4.2035 -5.34391,-6.0846 -10.6289,-7.1055 -7.60366,-1.6663 -12.5177,-6.4104 -16.75,-12.6875 -2.36897,-7.8279 0.61643,-14.576 4.10156,-21.6016 2.34852,-2.967 4.27349,-3.5353 7.89844,-4.3984 -0.0711,-0.635 -0.14212,-1.2701 -0.21534,-1.9243 -0.3167,-2.899 -0.61334,-5.7996 -0.90966,-8.7007 -0.11215,-0.999 -0.2243,-1.9981 -0.33985,-3.0274 -0.52624,-5.2975 -0.82806,-9.3712 1.46485,-14.3476 h 2 c -0.0604,-2.0633 -0.14932,-4.1258 -0.25,-6.1875 -0.0696,-1.7229 -0.0696,-1.7229 -0.14063,-3.4805 -0.70801,-3.8714 -2.11166,-5.3675 -4.60937,-8.332 -0.79297,-2.6133 -0.79297,-2.6133 -1.1875,-5.3125 -0.1534,-0.9578 -0.3068,-1.9156 -0.46485,-2.9024 -0.21155,-1.6947 -0.38166,-3.3962 -0.47656,-5.1015 -0.22416,-3.8107 -0.72117,-5.51 -3.24609,-8.4336 -6.27445,-4.4071 -13.05731,-6.5214 -20.6875,-6.1875 -5.54594,0.2212 -8.62099,-1.1349 -13.38282,-3.8125 -9.79012,-4.7903 -21.24019,-3.4402 -31.55468,-1.25 -0.10313,0.8662 -0.20625,1.7325 -0.3125,2.625 -2.64111,5.2822 -7.49369,6.9257 -12.6875,9.375 0.12375,1.0931 0.2475,2.1862 0.375,3.3125 0.0722,0.7399 0.14437,1.4798 0.21875,2.2422 0.32091,2.4855 0.32091,2.4855 1.375,4.8281 1.15393,3.2529 1.47652,5.1581 1.03125,8.6172 -4.74997,9.3221 -11.83794,17.0367 -21,22 l -3.01172,1.8398 c -3.77224,1.4645 -6.87963,1.1778 -10.80078,0.7227 -8.94474,-0.8072 -17.33792,0.097 -26.1875,1.4375 l -1,-4 h -9.000002 v 7 c -5.75,0.125 -5.75,0.125 -8,-1 -0.103125,0.6187 -0.20625,1.2375 -0.3125,1.875 -0.6875,2.125 -0.6875,2.125 -3.6875,4.125 l -3,-1 2,-5 -7,-3 c -0.07734,0.6239 -0.154687,1.2478 -0.234375,1.8906 -0.765625,2.1094 -0.765625,2.1094 -2.65625,3.0938 -1.16789,0.3789 -1.16789,0.3789 -2.359375,0.7656 -5.32178,2.1575 -7.453376,5.0874 -9.75,10.25 -1.396935,3.9912 -2,6.7647 -2,11 -1.25,1.78 -1.25,1.78 -3,3.5742 -0.635749,0.6632 -1.271499,1.3264 -1.926513,2.0098 -0.684251,0.6941 -1.368501,1.3883 -2.073487,2.1035 -1.393109,1.4402 -2.785047,2.8816 -4.175781,4.3242 -0.66854,0.6901 -1.33708,1.3803 -2.025879,2.0913 -2.101136,2.2164 -4.047849,4.5375 -5.98584,6.897 -4.467427,5.1126 -10.094862,8.4398 -15.8125,12 -0.997734,0.7244 -1.995469,1.4489 -3.023437,2.1953 -3.153392,1.9119 -4.845794,2.2889 -8.476563,2.3672 -3.6821664,0.1891 -5.4066326,0.389 -8.7499998,2.125 -2.7499999,1.3125 -2.7499999,1.3125 -6.1874999,1.0625 -6.0485313,-2.9712 -9.4274483,-7.5454 -11.6679683,-13.8711 -1.151631,-4.4173 -1.894532,-8.3013 -1.894532,-12.8789 -1.093125,-0.2063 -2.18625,-0.4125 -3.3125,-0.625 -3.6875,-1.375 -3.6875,-1.375 -5.007812,-4.25 -3.087087,-5.7434 -9.722018,-7.3016 -15.679688,-9.125 -3.41797,-0.4076 -6.58722,-0.4247 -10,0 l -1,-4 c -5.418808,-1.5035 -11.059762,-2.2956 -16.335937,0.029 -2.333694,1.4596 -4.493971,3.0276 -6.664063,4.7207 -1.166198,0.8804 -1.166198,0.8804 -2.355957,1.7785 -8.928333,6.9428 -18.622979,15.8329 -20.644043,27.4715 -0.604858,8.8867 2.545531,14.4353 8.0625,21 0.554942,0.6228 1.109883,1.2457 1.681641,1.8874 5.459014,6.1281 5.459014,6.1281 5.255859,10.1126 -1.9375,2.8125 -1.9375,2.8125 -4,5 0.819844,0.776 1.639688,1.552 2.484375,2.3515 6.855316,6.7706 10.506404,11.8181 12.582032,21.4649 1.247668,4.2546 3.399499,6.6927 6.542968,9.7305 1.390625,1.4531 1.390625,1.4531 1.390625,3.4531 h -2 c -1.447526,3.9985 -2.289712,7.6557 -2.75,11.875 -1.924325,12.7379 -7.302351,23.6399 -13.375,34.875 -0.514819,0.9532 -1.029638,1.9063 -1.560058,2.8884 -5.904903,10.6386 -5.904903,10.6386 -11.439942,12.2991 -3.039811,0.7509 -3.039811,0.7509 -3.999998,3.3125 l -0.875,2.75 c -0.68063,0.99 -1.36125,1.98 -2.0625,3 -2.08543,2.7552 -2.08543,2.7552 -2.25,5.4492 -0.94851,3.5192 -2.62415,4.3871 -5.625,6.3633 -0.8959,0.6046 -1.7918,1.2091 -2.71485,1.832 -2.34765,1.3555 -2.34765,1.3555 -4.34765,1.3555 0.0116,0.9152 0.0232,1.8305 0.0352,2.7734 0.0135,1.7828 0.0135,1.7828 0.0273,3.6016 0.0116,1.1833 0.0232,2.3667 0.0352,3.5859 -0.0977,3.0391 -0.0977,3.0391 -1.09765,5.0391 -1.11375,0.3094 -1.11375,0.3094 -2.25,0.625 -3.50917,1.7546 -4.41217,3.7809 -6.14844,7.207 -1.60156,2.168 -1.60156,2.168 -4.92188,4.3789 -4.45477,3.0471 -6.59373,6.9547 -9.17968,11.6016 -1.03052,1.7772 -2.06318,3.5532 -3.09766,5.3281 -0.54415,0.9417 -1.08829,1.8833 -1.64893,2.8535 -3.15242,5.4041 -6.41117,10.7408 -9.69091,16.0684 -0.62649,1.0407 -1.25297,2.0813 -1.89844,3.1535 -0.59942,0.9716 -1.19883,1.943 -1.81641,2.944 -0.52585,0.8625 -1.05171,1.725 -1.5935,2.6136 -1.98589,2.5204 -3.97829,3.6673 -6.75415,5.2263 -1.52196,2.2598 -1.52196,2.2598 -2.8125,4.875 -5.10138,8.4685 -13.64649,15.1272 -22.03736,20.2556 -5.66319,3.526 -8.10315,8.3409 -11.08764,14.1819 -0.49307,0.9313 -0.98614,1.8627 -1.49414,2.8222 -1.2048,2.281 -2.39349,4.5688 -3.56836,6.8653 l -4,-1 -1,-4 h -2 c 0.0696,1.2413 0.13922,2.4827 0.21093,3.7617 0.0563,1.642 0.1109,3.2838 0.16407,4.9258 0.0503,0.8167 0.10054,1.6332 0.15234,2.4746 0.14358,5.9107 0.14358,5.9107 -1.76221,8.5444 -1.56201,1.3911 -1.56201,1.3911 -4.76513,3.2935 -3.625,-0.25 -3.625,-0.25 -7,-1 -2.27523,0.045 -2.27523,0.045 -4,1 -0.66909,1.3321 -1.33517,2.6657 -2,4 -1.2786,1.7803 -2.57252,3.5496 -3.875,5.3125 -4.44593,6.2327 -8.06711,12.8543 -11.625,19.625 -0.52836,0.9949 -1.05671,1.9898 -1.60108,3.0149 -0.49258,0.9528 -0.98516,1.9057 -1.49267,2.8874 -0.44022,0.8494 -0.88043,1.6988 -1.33399,2.574 -1.19912,2.8921 -1.7827,5.4709 -2.07226,8.5862 1.31318,1.8996 1.31318,1.8996 3,3 l -4,1 c -0.098,0.6922 -0.19594,1.3844 -0.29688,2.0976 -3.47326,22.726 -3.47326,22.726 -8.39062,28.6524 -2.46095,3.4586 -2.58934,4.3922 -2.75,8.4375 -0.32908,6.5997 -2.5312,12.5473 -6.5625,17.8125 -0.99645,0.2565 -1.99289,0.513 -3.01953,0.7773 -3.03521,0.8724 -3.03521,0.8724 -3.89991,2.9712 -0.77386,2.3996 -1.42802,4.8163 -2.08056,7.2515 -1.19437,3.5086 -2.49966,6.9717 -3.8125,10.4375 -0.31776,0.8965 -0.63551,1.7932 -0.96289,2.7168 -0.93297,2.4323 -1.83469,4.6415 -3.22461,6.8457 -3.05078,1.3086 -3.05078,1.3086 -6,2 -1.96703,2.1122 -1.96703,2.1122 -3.375,4.625 -0.50274,0.8172 -1.00547,1.6345 -1.52344,2.4765 -0.36352,0.6265 -0.72703,1.253 -1.10156,1.8985 -3.79345,-3.0967 -7.43044,-6.267 -10.8125,-9.8125 -0.56332,-0.584 -1.12664,-1.1679 -1.70703,-1.7695 -1.53065,-2.5 -1.74649,-3.8607 -2.15235,-6.7032 -1.19411,-6.0533 -5.20753,-8.5543 -9.76562,-12.3398 -8.35404,-7.5616 -12.22089,-15.3846 -15.5625,-25.875 -0.21693,-0.6754 -0.43385,-1.3508 -0.65735,-2.0465 -0.85319,-2.6652 -1.70188,-5.3316 -2.54221,-8.0009 -5.22597,-16.3832 -13.5738,-26.9657 -27.80044,-36.4526 -1.07637,-0.7528 -2.15274,-1.5056 -3.26172,-2.2813 -10.88825,-6.5356 -23.35655,-6.305 -35.73828,-6.7187 -1.13567,-0.084 -2.27133,-0.1676 -3.44141,-0.2539 -5.71926,0.408 -11.0603,2.1909 -16.55859,3.7539 -14.84313,3.966 -25.64471,6.3127 -39.43262,-1.6525 -1.53492,-0.929 -3.05316,-1.8852 -4.56738,-2.8475 v -3 c 0.94101,-0.2333 1.88203,-0.4667 2.85156,-0.707 8.90432,-2.5881 8.90432,-2.5881 14.89844,-9.418 2.43673,-5.4939 3.47865,-10.9356 4.25,-16.875 l 12,1 c 4.20236,-8.5361 5.00792,-14.3828 2.11328,-23.5469 -1.18754,-2.6167 -2.46898,-4.1169 -4.48828,-6.1406 -3.47322,-3.5592 -4.43768,-6.6507 -5.6875,-11.4375 -2.28944,-8.5233 -7.65195,-13.3586 -14.05078,-19.1445 -0.95262,-0.9011 -1.90524,-1.8022 -2.88672,-2.7305 v -2 c 0.93972,-0.1856 0.93972,-0.1856 1.89843,-0.375 2.59169,-0.6541 4.75926,-1.328 7.10157,-2.625 1.53186,-2.58 2.11481,-5.0029 2,-8 -0.99,-1.4849 -0.99,-1.4849 -2,-3 l 3,-1 c -0.56648,-6.1313 -2.44221,-11.3154 -4.75,-17 -0.33516,-0.8637 -0.67032,-1.7274 -1.01563,-2.6172 -5.49273,-13.6902 -16.08579,-23.1387 -29.41015,-29.4063 -5.03232,-2.4509 -7.94403,-5.0848 -11.38672,-9.539 -3.73352,-4.8206 -6.69118,-7.4785 -12.4375,-9.4375 -1.2375,-0.4409 -1.2375,-0.4409 -2.5,-0.8906 -2.15696,-0.7415 -4.31891,-1.443 -6.5,-2.1094 -1.15783,-4.954 -1.02881,-7.6551 1.40356,-12.1335 8.86724,-16.5432 6.54466,-39.1259 1.51025,-56.6169 -2.82878,-8.3976 -7.71168,-14.1131 -13.91381,-20.2495 -3.92484,-4.1865 -3.92484,-4.1865 -4.24219,-7.6211 0.25512,-1.9569 0.51622,-3.913 0.78198,-5.8685 0.29206,-2.2279 0.5617,-4.4589 0.80078,-6.693 1.07169,-9.0755 3.50433,-17.1539 6.84693,-25.6299 0.2586,-0.673 0.51721,-1.346 0.78366,-2.0394 3.62624,-9.3846 7.95006,-17.5327 13.59134,-25.8981 11.09383,-16.6322 14.25246,-36.9957 18.4375,-56.25 -2.97999,-0.6378 -5.96052,-1.2728 -8.94141,-1.9063 -0.83132,-0.1783 -1.66265,-0.3564 -2.51917,-0.54 -4.80712,-1.0192 -9.61192,-1.937 -14.46615,-2.7027 -9.6568,-1.6858 -14.40751,-6.1184 -20.68363,-13.3423 -2.95342,-3.2066 -6.46353,-5.7836 -9.86621,-8.4892 -2.27812,-1.8233 -4.47074,-3.7036 -6.64843,-5.6446 -2.67728,-2.3829 -5.43322,-4.5542 -8.3125,-6.6875 -5.87485,-4.5027 -11.03312,-10.0164 -15.23487,-16.1148 -2.81937,-3.1162 -5.82611,-4.5464 -9.61279,-6.1665 -1.43165,-0.6445 -2.86329,-1.289 -4.29492,-1.9336 -2.24538,-0.9912 -4.49297,-1.9772 -6.74146,-2.9614 -2.18112,-0.9601 -4.3536,-1.9381 -6.52612,-2.9175 -0.67193,-0.2866 -1.34386,-0.5732 -2.03615,-0.8685 -4.17817,-1.8896 -6.18664,-3.5625 -8.11619,-7.7252 -0.70383,-1.4889 -0.70383,-1.4889 -1.42188,-3.0078 -0.43828,-1.0287 -0.87656,-2.0573 -1.32812,-3.11715 -0.67289,-1.55074 -0.67289,-1.55074 -1.35938,-3.13281 -0.89062,-2.74219 -0.89062,-2.74219 0.10938,-5.74219 1.61059,-1.10327 1.61059,-1.10327 3.67578,-2.12109 0.74572,-0.37834 1.49144,-0.75668 2.25976,-1.14649 0.7844,-0.38607 1.56879,-0.77215 2.37696,-1.16992 7.17779,-3.23773 7.17779,-3.23773 12.6875,-8.5625 1.26065,-6.23213 1.09421,-12.32008 -2,-18 -5.90964,-6.00166 -13.325,-10.09077 -20.48413,-14.41724 -6.7332,-4.23593 -9.47476,-9.80966 -12.82837,-16.77026 -0.4544,-0.91459 -0.90879,-1.82918 -1.37696,-2.77148 -3.31054,-6.74555 -3.31054,-6.74555 -3.31054,-9.04102 -0.54786,-0.12375 -1.09571,-0.2475 -1.66016,-0.375 -11.01837,-2.86657 -23.28183,-8.36448 -30.33984,-17.625 -1.52146,-3.04292 -1.57627,-4.6064 -1,-8 5.1659,-6.58689 14.44538,-12.16399 22.69922,-13.40625 3.01404,-0.0388 5.57287,0.0423 8.30078,1.40625 9.80005,0.75385 20.57596,-0.92674 28.35156,-7.20703 1.64844,-0.79297 1.64844,-0.79297 3.48047,-0.21094 2.83767,1.856 5.55212,3.84196 8.23047,5.91797 0.84848,0.65561 0.84848,0.65561 1.71411,1.32446 14.16023,11.08081 14.16023,11.08081 18.22339,17.17554 9.37824,-1.82895 18.70281,-3.78937 28,-6 0.27586,-1.2375 0.55171,-2.475 0.83593,-3.75 0.18402,-0.825 0.36803,-1.65 0.55762,-2.5 0.40856,-1.85266 0.81012,-3.70689 1.20508,-5.5625 7.3784,-34.51668 7.3784,-34.51668 15.52197,-40.83203 6.32882,-4.05743 13.12671,-7.30068 20.36768,-9.33594 2.64058,-0.76255 2.64058,-0.76255 3.57812,-2.98047 0.16371,-0.79664 0.32742,-1.59328 0.4961,-2.41406 0.88005,-3.87174 2.10733,-7.17302 3.82031,-10.74609 3.28224,-7.74297 4.38366,-15.68162 5.55786,-23.9524 0.373,-2.62224 0.76988,-5.24002 1.17065,-7.85815 0.25205,-1.69315 0.50275,-3.38651 0.75196,-5.08008 0.11555,-0.76898 0.23111,-1.53796 0.35017,-2.33024 1.07227,-7.64502 1.06914,-14.91082 -0.0884,-22.55648 l -0.54688,-3.69922 c -0.19078,-1.24652 -0.38156,-2.49304 -0.57812,-3.77734 -0.37677,-2.50755 -0.75186,-5.01535 -1.125,-7.52344 l -0.50782,-3.33349 c -0.36718,-2.76807 -0.36718,-2.76807 -0.36718,-5.76807 -0.88043,-0.049 -1.76086,-0.098 -2.66797,-0.14844 -1.16145,-0.0748 -2.32289,-0.14953 -3.51953,-0.22656 -1.72284,-0.10441 -1.72284,-0.10441 -3.48047,-0.21094 -3.28355,-0.40803 -5.43627,-0.83921 -8.33203,-2.41406 -1.26685,-2.45166 -1.26685,-2.45166 -2.17578,-5.53906 -0.34886,-1.13059 -0.69771,-2.26118 -1.05713,-3.42603 -0.35627,-1.20777 -0.71253,-2.41554 -1.07959,-3.65991 -3.37405,-10.74761 -7.07233,-20.61614 -12.6875,-30.375 l -1.45703,-2.83203 c -3.54084,-6.08201 -8.32311,-9.34567 -14.23047,-12.91797 -0.74951,-0.45552 -1.49902,-0.91104 -2.27124,-1.38037 -0.71874,-0.40557 -1.43747,-0.81114 -2.17798,-1.229 -0.64671,-0.36578 -1.29342,-0.73155 -1.95972,-1.1084 -1.95672,-0.75133 -1.95672,-0.75133 -4.00049,0.27441 -6.46092,4.05145 -12.73802,8.35839 -18.96167,12.76367 -0.88623,0.62617 -1.77246,1.25233 -2.68554,1.89746 -1.77419,1.25635 -3.54512,2.51731 -5.3125,3.78321 -0.82565,0.58491 -1.65129,1.16982 -2.50196,1.77246 -1.10299,0.7877 -1.10299,0.7877 -2.22827,1.59131 -2.32889,1.45771 -4.63771,2.44199 -7.21313,3.38525 0.40539,-1.81505 0.82504,-3.62692 1.25,-5.4375 0.23203,-1.00933 0.46406,-2.01867 0.70312,-3.05859 2.32916,-7.79574 5.83394,-14.15162 10.79688,-20.56641 0.53077,-0.69537 1.06154,-1.39074 1.60839,-2.10718 3.87011,-4.99956 7.91137,-9.62021 12.64161,-13.83032 0.72445,-0.64582 1.4489,-1.29164 2.19531,-1.95703 1.37266,-1.20785 2.752,-2.4082 4.14062,-3.59766 1.26573,-1.09934 2.47861,-2.25985 3.66407,-3.44531 2.13549,-0.16357 2.13549,-0.16357 4.76172,-0.0547 0.95455,0.0245 1.9091,0.049 2.89257,0.0742 2.00292,0.0697 4.00557,0.14761 6.00782,0.23438 6.48542,0.14789 10.03569,-0.46947 15.33789,-4.25391 0.90363,-0.62519 1.80726,-1.25039 2.73828,-1.89453 1.27424,-0.94939 1.27424,-0.94939 2.57422,-1.91797 2.70924,-2.01437 5.39929,-4.00023 8.23047,-5.83984 10.41607,-6.77293 17.98218,-16.56349 25.67968,-26.16797 1.77735,-2.17969 1.77735,-2.17969 3.77735,-4.17969 0.27715,-2.13252 0.27715,-2.13252 0.19531,-4.57031 -0.006,-0.8959 -0.0129,-1.7918 -0.0195,-2.71485 -0.0168,-0.93714 -0.0335,-1.87429 -0.0508,-2.83984 -0.009,-0.94488 -0.0181,-1.88976 -0.0274,-2.86328 -0.0236,-2.33749 -0.0565,-4.67448 -0.0976,-7.01172 0.70084,-0.1911 1.40169,-0.38221 2.12378,-0.5791 3.19149,-0.87783 6.3775,-1.77415 9.56372,-2.6709 1.10279,-0.30035 2.20558,-0.6007 3.34179,-0.91016 1.0667,-0.30292 2.1334,-0.60585 3.23243,-0.91796 1.46892,-0.40848 1.46892,-0.40848 2.96752,-0.8252 5.38157,-2.13005 8.67756,-5.95962 12.20826,-10.40918 4.43619,-5.5631 4.43619,-5.5631 6.05224,-7.15478 5.18755,-5.28816 6.54599,-11.21642 8.26026,-18.28272 0.43505,-1.67449 0.43505,-1.67449 0.8789,-3.38281 2.52731,-9.9015 4.73787,-19.54857 4.5586,-29.80469 -6.5e-4,-0.72767 -10e-4,-1.45535 -0.002,-2.20508 0.13814,-5.08136 0.13814,-5.08136 -1.18554,-9.85742 -1.63748,-0.73545 -3.31445,-1.38263 -5,-2 -2.88609,-1.6767 -5.65276,-3.53609 -8.4375,-5.375 -1.27231,-0.82939 -1.27231,-0.82939 -2.57032,-1.67554 -4.90018,-3.20732 -9.76288,-6.4653 -14.59498,-9.77398 -2.63819,-1.80498 -5.28322,-3.59982 -7.92824,-5.39478 -1.29766,-0.88525 -2.59178,-1.77572 -3.88202,-2.67175 -7.01481,-4.87066 -13.58995,-8.99082 -21.9346,-11.27887 -6.92522,-2.16732 -12.45124,-5.95088 -16.65234,-11.83008 -1.28028,-3.18213 -1.28028,-3.18213 -2.35938,-6.72656 -0.1941,-0.6295 -0.38821,-1.25899 -0.58819,-1.90756 -0.40508,-1.3212 -0.80481,-2.64405 -1.19941,-3.96842 -0.60437,-2.02696 -1.22526,-4.04829 -1.84912,-6.06933 -3.0039,-9.85335 -3.0039,-9.85335 -3.0039,-13.32813 0.66644,-0.19594 1.33289,-0.39187 2.01953,-0.59375 8.17579,-2.65284 15.62793,-6.71639 21.54297,-13.08984 2.75445,-2.52243 6.02579,-2.40411 9.59765,-2.25391 8.95004,0.11393 8.95004,0.11393 16.78565,-3.64404 7.06502,-8.01883 9.5714,-15.92167 10.0542,-26.41846 0.18579,-2.07697 0.37338,-4.15379 0.5625,-6.23047 1.49766,-21.18063 -1.69816,-40.81262 -6.08405,-61.49261 -0.44997,-2.14137 -0.88233,-4.2854 -1.30804,-6.4317 -2.96792,-14.66403 -6.6184,-25.52984 -16.48096,-36.83643 -3.25705,-3.87268 -6.15396,-7.99829 -9.06445,-12.13379 -0.58991,-0.79471 -1.17982,-1.58941 -1.7876,-2.4082 -3.94087,-5.59535 -3.94087,-5.59535 -3.48584,-9.42774 0.54398,-1.00289 1.08797,-2.00578 1.64844,-3.03906 0.74777,-1.50894 1.49227,-3.01951 2.23437,-4.53125 1.26188,-2.50385 2.53219,-5.00017 3.83985,-7.48047 0.60521,-1.21623 0.60521,-1.21623 1.22265,-2.45703 0.3748,-0.72639 0.74959,-1.45277 1.13574,-2.20117 1.21787,-5.00144 -2.03971,-9.76034 -4.29589,-14.11133 -0.55535,-1.08346 -1.11069,-2.16691 -1.68287,-3.2832 -0.58289,-1.13373 -1.16579,-2.26746 -1.76635,-3.43555 -11.6875,-23.01991 -11.6875,-23.01991 -11.6875,-29.5 5.92248,-4.1343 9.93342,-5.5664 17.1289,-4.39453 0.92619,0.19529 0.92619,0.19529 1.8711,0.39453 2.11447,-8.08301 2.11447,-8.08301 0,-16 l -1.125,-2.375 c -0.43313,-0.80437 -0.43313,-0.80437 -0.875,-1.625 h -2 c -3.66667,-7.33333 -7.33334,-14.66667 -11,-22 l 3,-1.999999 -1,-14 c -1.45966,1.459661 -1.98291,-3.742473 -2.6875,-1.8125 l -0.4375,-3.75 c 0.92554,-0.888164 1.85109,-1.776328 2.80468,-2.691406 2.51034,-2.56867 2.51034,-2.56867 3.11304,-5.807861 1.20728,-2.938233 1.20728,-2.938233 3.70996,-4.10669 l 3.13404,-0.589355 c 1.13501,-0.233321 2.27003,-0.466641 3.43945,-0.707032 1.19174,-0.217851 2.38347,-0.435703 3.61133,-0.660156 10.68884,-2.055727 10.68884,-2.055727 20.3125,-6.875 h 2 c 0.018,-1.076367 0.0361,-2.152734 0.0547,-3.261719 0.94532,-3.738281 0.94532,-3.738281 4.07813,-5.820312 1.32316,-0.593986 2.65446,-1.170065 3.99219,-1.730469 6.89978,-3.290781 11.99199,-6.742628 14.875,-14.1875 0.34927,-3.240199 -0.13373,-5.878031 -1,-9 l -0.53907,-2.199219 c -0.4794,-1.935486 -0.96962,-3.868284 -1.46093,-5.800781 v -4 c 3.34842,-2.2322836 5.12024,-2.3302358 9.05859,-1.75 2.44929,0.946203 3.13394,1.938094 4.44141,4.1875 1.5,3.5625 1.5,3.5625 1.5,5.5625 3.88738,1.110681 5.57212,1.193755 9.3125,-0.5 3.3682,-3.13321 3.24485,-5.042263 3.6875,-9.5 3.7777,-1.4156239 7.57352,-2.7746512 11.375,-4.1249998 1.06089,-0.3983203 2.12179,-0.7966406 3.21484,-1.2070312 6.32399,-2.211457 10.75551,-3.1152864 17.25757,-1.2172852 4.65052,1.1867605 9.02616,-0.096069 13.52759,-1.5131836 8.37924,-2.16704525 16.94482,-0.6922176 25.40918,0.4384766 4.40697,0.5359085 8.20907,0.5431065 12.61035,-0.098633 6.49529,-0.6969201 11.10189,1.4019599 16.85547,4.2226562 0.94101,0.4228125 1.88203,0.845625 2.85156,1.28125 5.43655,2.558376 9.12724,5.250662 13.17334,9.648438 3.01232,2.742043 6.56385,3.698466 10.4126,4.820312 9.4015,2.892771 9.4015,2.892771 12.3125,5.75 v 2 l 3.625,1.1875 c 2.80149,0.922285 5.56485,1.885868 8.3164,2.949219 16.36929,6.244363 32.1855,9.588028 49.75904,8.854736 5.70264,-0.205263 9.47501,-0.180281 14.29956,3.008545 v 4 l 6,2 v 1 c 2.33152,0.510022 4.66463,1.008111 7,1.5 0.97259,0.214629 0.97259,0.214629 1.96484,0.433594 8.699,1.808704 15.14508,1.089217 23.41016,-1.933594 1.5903,-0.564876 3.18141,-1.127491 4.77343,-1.6875 l 2.09912,-0.761719 c 1.75245,-0.550781 1.75245,-0.550781 3.75245,-0.550781 0.13277,-0.675469 0.26554,-1.350937 0.40234,-2.046875 0.1766,-0.892031 0.3532,-1.784062 0.53516,-2.703125 0.17402,-0.881718 0.34804,-1.763437 0.52734,-2.671875 0.45884,-2.210475 0.96852,-4.393245 1.53516,-6.578125 l 8.3125,-0.875 c 3.44946,2.526241 5.32042,3.803954 9.5625,4.625 3.23275,-0.512105 3.23275,-0.512105 5.4375,-2.839844 2.6875,-1.910156 2.6875,-1.910156 5.63281,-1.898437 1.57394,0.334512 1.57394,0.334512 3.17969,0.675781 1.13695,0.212696 2.2739,0.425391 3.44531,0.644531 1.1318,0.22043 2.26359,0.44086 3.42969,0.667969 1.99446,0.327412 3.9947,0.6223 6,0.875 l 2.5625,0.367188 c 2.62618,-0.036 2.62618,-0.036 4.8125,-2.160157 3.26232,-2.587526 5.52292,-2.761116 9.625,-3.269531 8.25505,-1.388662 15.478749,-4.326191 20.999998,-10.8125 0.4539,-3.474244 0.139381,-6.438013 -0.261718,-9.910156 0.261718,-3.0898439 0.261718,-3.0898439 2.554687,-5.5234377 3.019531,-2.0664063 3.019531,-2.0664063 6.007813,-3.7851562 2.835303,-1.5574688 2.835303,-1.5574688 3.979003,-4.2368165 2.264648,-3.3497239 4.11929,-3.824166 7.942872,-5.036621 l 3.791748,-1.2033692 c 1.34798,-0.3978695 2.697389,-0.7909287 4.048095,-1.1794434 l 2.069,-0.5966491 C -31.056622,-15.720404 -19.263402,-12.078411 0,0 Z m -517.43359,104.05078 1,4 z"
     fill="#a2a2a2"
     id="path64"
     style="display:inline"
     transform="translate(680.43359,12.949219)" />
</svg>
