<?xml version="1.0" encoding="UTF-8"?>
<svg version="1.1" xmlns="http://www.w3.org/2000/svg" width="512" height="512">
<path d="M0 0 C10.95493205 6.80639272 20.16333771 18.05457298 29.2336998 27.15040302 C30.66380795 28.58079393 32.09413768 30.01096332 33.52466965 31.44093037 C37.37111891 35.28709511 41.21449775 39.13631437 45.05729389 42.98612857 C49.08733006 47.02245625 53.12023701 51.05591358 57.15282822 55.0896883 C64.77241497 62.71237138 72.38945111 70.33759782 80.00555301 77.96376258 C88.68323922 86.65266292 97.36379729 95.33869176 106.04458666 104.02449167 C123.88651684 121.87684774 141.72487363 139.7327708 159.56084824 157.59107685 C163.78565137 155.94620156 166.6015222 152.81376848 169.72057724 149.6516695 C170.33496682 149.03687208 170.9493564 148.42207465 171.58236384 147.788647 C173.64279459 145.72448164 175.69598437 143.65326047 177.7493248 141.58204365 C179.22414861 140.10174509 180.69943572 138.62190799 182.17515182 137.14249897 C185.35419252 133.95373999 188.5301478 130.76195006 191.70383072 127.5678587 C196.72439555 122.51550018 201.75309416 117.47129132 206.78319931 112.42843342 C219.27889343 99.89863818 231.76532431 87.35962244 244.24682236 74.81568623 C253.94117578 65.07285906 263.63870432 55.33324621 273.34684539 45.60415488 C278.34534581 40.59414215 283.33682353 35.5772684 288.32313108 30.55512178 C291.43149957 27.42752614 294.54614041 24.30623552 297.66254234 21.18664646 C299.10347314 19.74170518 300.5418246 18.29418628 301.97735023 16.84387493 C303.94237369 14.85935016 305.91655737 12.88439299 307.89318466 10.91143513 C308.73543764 10.05402801 308.73543764 10.05402801 309.59470582 9.17929953 C318.07349318 0.7750084 326.49455067 -2.82662713 338.4434166 -2.77464581 C346.92909596 -2.56252815 353.78141522 0.05238469 360.02959824 5.88795185 C367.42444309 14.11283032 369.16538992 22.83919409 368.85381699 33.62232685 C367.59965344 50.61206229 350.39607207 62.90128268 339.00152206 74.26392841 C337.57113116 75.69403656 336.14096177 77.1243663 334.71099472 78.55489826 C330.86482998 82.40134752 327.01561072 86.24472637 323.16579652 90.08752251 C319.12946884 94.11755867 315.0960115 98.15046563 311.06223679 102.18305683 C303.4395537 109.80264359 295.81432726 117.41967973 288.18816251 125.03578162 C279.49926217 133.71346783 270.81323333 142.39402591 262.12743342 151.07481527 C244.27507734 168.91674546 226.41915429 186.75510225 208.56084824 204.59107685 C210.20572353 208.81587999 213.3381566 211.63175081 216.50025558 214.75080585 C217.11505301 215.36519543 217.72985044 215.97958501 218.36327809 216.61259246 C220.42744345 218.67302321 222.49866462 220.72621298 224.56988144 222.77955341 C226.05018 224.25437722 227.53001709 225.72966433 229.00942612 227.20538044 C232.1981851 230.38442114 235.38997503 233.56037641 238.58406639 236.73405933 C243.63642491 241.75462416 248.68063377 246.78332278 253.72349167 251.81342793 C266.25328691 264.30912204 278.79230265 276.79555292 291.33623886 289.27705097 C301.07906603 298.9714044 310.81867888 308.66893294 320.5477702 318.377074 C325.55778293 323.37557442 330.57465669 328.36705214 335.59680331 333.3533597 C338.72439895 336.46172819 341.84568957 339.57636902 344.96527863 342.69277096 C346.41021991 344.13370175 347.85773881 345.57205321 349.30805016 347.00757885 C351.29257492 348.9726023 353.2675321 350.94678599 355.24048996 352.92341328 C355.81209471 353.48491526 356.38369945 354.04641724 356.97262555 354.62493443 C365.37691669 363.1037218 368.97855222 371.52477928 368.92657089 383.47364521 C368.71445323 391.95932457 366.09954039 398.81164383 360.26397324 405.05982685 C352.01900415 412.47273483 343.28245888 414.17391592 332.47881699 413.90357685 C321.08702536 412.99495937 312.63722942 404.98836474 304.90423203 397.17496967 C304.28486377 396.55731027 303.66549552 395.93965087 303.02735853 395.30327451 C300.97450682 393.25369002 298.92883747 391.19709052 296.88311386 389.14039326 C295.40455 387.66126469 293.92554449 386.1825775 292.44613266 384.70429707 C288.44637627 380.70511284 284.45280232 376.69980654 280.46033287 372.69334936 C276.28124291 368.50172939 272.09646202 364.31579886 267.91228867 360.12925434 C259.99660889 352.20736648 252.08603981 344.28039564 244.17730665 336.35157335 C235.1703699 327.32225672 226.15773144 318.29864045 217.14461613 309.27549195 C198.61035469 290.72034371 180.08324361 272.15806969 161.56084824 253.59107685 C157.3360451 255.23595215 154.52017428 258.36838522 151.40111923 261.5304842 C150.78672965 262.14528163 150.17234007 262.76007905 149.53933263 263.39350671 C147.47890188 265.45767206 145.4257121 267.52889323 143.37237167 269.60011005 C141.89754786 271.08040861 140.42226075 272.56024571 138.94654465 274.03965473 C135.76750395 277.22841371 132.59154867 280.42020364 129.41786575 283.61429501 C124.39730093 288.66665353 119.36860231 293.71086239 114.33849716 298.75372028 C101.84280304 311.28351552 89.35637216 323.82253126 76.87487411 336.36646748 C67.18052069 346.10929464 57.48299215 355.84890749 47.77485108 365.57799882 C42.77635067 370.58801155 37.78487294 375.6048853 32.79856539 380.62703192 C29.6901969 383.75462756 26.57555607 386.87591818 23.45915413 389.99550724 C22.01822334 391.44044852 20.57987187 392.88796742 19.14434624 394.33827877 C17.17932278 396.32280354 15.2051391 398.29776072 13.22851181 400.27071857 C12.66700983 400.84232332 12.10550785 401.41392807 11.52699065 402.00285417 C3.02147399 410.43363975 -5.41114371 414.00868616 -17.39422989 413.95679951 C-23.26777659 413.809826 -27.5295756 412.7528439 -32.43915176 409.59107685 C-33.14555801 409.15537373 -33.85196426 408.7196706 -34.57977676 408.27076435 C-41.4856226 403.5901355 -45.23631201 397.59086334 -47.43915176 389.59107685 C-48.25731417 380.49615521 -48.3891923 371.55819834 -43.43915176 363.59107685 C-35.53872668 354.16622552 -26.58016902 345.59420811 -17.87982559 336.91822529 C-16.44943469 335.48811714 -15.0192653 334.0577874 -13.58929825 332.62725544 C-9.7431335 328.78080618 -5.89391425 324.93742733 -2.04410005 321.0946312 C1.99222763 317.06459503 6.02568497 313.03168807 10.05945969 308.99909687 C17.68214277 301.37951012 25.30736921 293.76247398 32.93353397 286.14637208 C41.62243431 277.46868587 50.30846315 268.7881278 58.99426305 260.10733843 C76.84661913 242.26540824 94.70254218 224.42705145 112.56084824 206.59107685 C110.91597294 202.36627371 107.78353987 199.55040289 104.62144089 196.43134785 C104.00664346 195.81695827 103.39184603 195.20256869 102.75841838 194.56956124 C100.69425303 192.5091305 98.62303185 190.45594072 96.55181503 188.40260029 C95.07151648 186.92777648 93.59167938 185.45248937 92.11227036 183.97677326 C88.92351138 180.79773256 85.73172144 177.62177729 82.53763008 174.44809437 C77.48527156 169.42752954 72.4410627 164.39883093 67.3982048 159.36872578 C54.86840956 146.87303166 42.32939383 134.38660078 29.78545761 121.90510273 C20.04263045 112.21074931 10.30301759 102.51322076 0.57392627 92.8050797 C-4.43608646 87.80657928 -9.45296021 82.81510156 -14.47510684 77.828794 C-17.60270247 74.72042552 -20.72399309 71.60578468 -23.84358215 68.48938274 C-25.28852343 67.04845195 -26.73604234 65.61010049 -28.18635368 64.17457485 C-30.17087845 62.2095514 -32.14583563 60.23536771 -34.11879349 58.25874043 C-34.69039823 57.69723844 -35.26200298 57.13573646 -35.85092908 56.55721927 C-44.25522021 48.07843191 -47.85685575 39.65737442 -47.80487442 27.70850849 C-47.59275676 19.22282913 -44.97784392 12.37050987 -39.14227676 6.12232685 C-29.01293176 -2.98479067 -12.53480094 -6.27797768 0 0 Z " fill="#000000" transform="translate(95.43915176391602,50.40892314910889)"/>
</svg>
