<?xml version="1.0" encoding="UTF-8"?>
<svg version="1.1" xmlns="http://www.w3.org/2000/svg" width="512" height="512">
<path d="M0 0 C5.87405622 3.54969849 10.45480127 8.98186053 12.5625 15.5 C12.74404275 18.15433094 12.82421874 20.70031516 12.80300903 23.35237122 C12.80472107 24.13471634 12.80643311 24.91706146 12.80819702 25.72311401 C12.81150364 28.34911246 12.80046656 30.974855 12.78955078 33.60083008 C12.78893805 35.51378973 12.78920519 37.42674983 12.7902813 39.33970928 C12.79073287 44.46318278 12.77913993 49.58656288 12.76506042 54.71001434 C12.75367181 59.51741328 12.75313425 64.32478948 12.75170898 69.13220215 C12.74121372 83.19231381 12.71329142 97.25240808 12.6875 111.3125 C12.64625 142.724375 12.605 174.13625 12.5625 206.5 C134.0025 206.5 255.4425 206.5 380.5625 206.5 C380.40414175 144.00188429 380.40414175 144.00188429 380.20214844 81.50390625 C380.18408203 69.41601563 380.18408203 69.41601563 380.1807251 63.75708008 C380.17699859 59.80484027 380.16200925 55.85281539 380.14019775 51.90063477 C380.11273089 46.8567855 380.10454094 41.8132481 380.1102109 36.76933098 C380.10902554 34.91985262 380.10111141 33.07036319 380.08563948 31.22094917 C380.06567525 28.71795278 380.07056284 26.21616014 380.08148193 23.71313477 C380.06983128 22.99347534 380.05818062 22.27381592 380.04617691 21.53234863 C380.12123232 15.10957014 382.33974987 10.03649816 386.52734375 5.2578125 C387.17832031 4.71898437 387.82929688 4.18015625 388.5 3.625 C389.14839844 3.07070312 389.79679687 2.51640625 390.46484375 1.9453125 C396.96607557 -2.53412097 403.93390917 -2.17463728 411.5625 -1.5 C418.22209333 0.18085583 422.74797447 4.96378322 426.5625 10.5 C428.8104163 14.90660445 428.84897164 19.08258242 428.82992554 23.92373657 C428.83445665 24.76962636 428.83898776 25.61551615 428.84365618 26.48703897 C428.85631215 29.32035372 428.85467902 32.15347653 428.85302734 34.98681641 C428.85901199 37.01894376 428.86581739 39.05106884 428.87338257 41.08319092 C428.89105992 46.60413065 428.89573879 52.12500839 428.89701414 57.64597368 C428.89843574 61.09729564 428.9027056 64.54860185 428.90800858 67.99991989 C428.92651722 80.04666901 428.93467847 92.09337385 428.93310547 104.14013672 C428.93190505 115.35826995 428.95298579 126.57621047 428.9845928 137.79429495 C429.01077839 147.43271367 429.02147175 157.07106956 429.02019465 166.70952356 C429.01968553 172.46276582 429.02534078 178.21583698 429.04655075 183.96904373 C429.06597051 189.3847304 429.06603188 194.80008347 429.05151749 200.21578217 C429.04943268 202.19784154 429.05411061 204.17992198 429.0662384 206.16194534 C429.1498795 220.78458427 428.14867619 232.41071841 417.5625 243.5 C406.82273619 253.75251554 395.34663175 255.09488108 381.05224609 255.00793457 C379.39241681 255.01254976 377.73259161 255.01890681 376.07277489 255.02684355 C371.53531937 255.0434752 366.99820223 255.03531868 362.46074581 255.02289867 C357.55813797 255.01382518 352.65558713 255.0278293 347.75299072 255.03881836 C338.15813293 255.05658363 328.56340046 255.05277246 318.96853781 255.0411678 C311.1690172 255.03212592 303.36953167 255.03091274 295.57000732 255.03526306 C293.90346401 255.03618246 293.90346401 255.03618246 292.20325315 255.03712043 C289.94605906 255.03839936 287.68886498 255.03969622 285.4316709 255.0410108 C264.2772422 255.05241076 243.12288289 255.03931203 221.96846557 255.01780933 C203.82594751 254.9999389 185.68353184 255.00304317 167.54101562 255.02148438 C146.46110919 255.04290137 125.38126353 255.05131218 104.30134773 255.03903532 C102.05256272 255.03776115 99.8037777 255.03650367 97.55499268 255.03526306 C96.44861305 255.03464596 95.34223342 255.03402886 94.20232713 255.03339306 C86.41422779 255.02994265 78.62616709 255.03576184 70.83807373 255.04518127 C61.34403801 255.05641183 51.85013453 255.05333893 42.35611391 255.0320583 C37.51421361 255.02156217 32.67253363 255.01740158 27.83063507 255.03065491 C23.39426392 255.04261437 18.95831636 255.0359579 14.52198339 255.0147447 C12.92118917 255.01029366 11.32035883 255.01251106 9.71958804 255.02224785 C-3.79035551 255.09808958 -14.41214339 253.07052001 -24.4375 243.5 C-35.81096749 231.58601128 -36.0248501 218.85303802 -35.95507812 203.28442383 C-35.96050533 201.24654136 -35.96763133 199.20866281 -35.97631836 197.17079163 C-35.99447989 191.66271831 -35.98751473 186.15494626 -35.97480202 180.64686799 C-35.96464128 174.871723 -35.97407583 169.09660297 -35.98034668 163.32145691 C-35.98761238 153.62840158 -35.9780618 143.9354684 -35.95898438 134.24243164 C-35.93719936 123.04454396 -35.94428329 111.84694743 -35.96629 100.64906675 C-35.98445267 91.02074883 -35.9869986 81.39251846 -35.97653532 71.76418895 C-35.97030757 66.01953559 -35.96944548 60.27501903 -35.98268127 54.53037453 C-35.99425234 49.13182271 -35.9861908 43.7336459 -35.96310425 38.33513451 C-35.95782471 36.35665891 -35.95931797 34.37815163 -35.96815491 32.39968872 C-35.97912337 29.69420274 -35.96533156 26.98991052 -35.94543457 24.28450012 C-35.95435746 23.50598893 -35.96328034 22.72747773 -35.97247362 21.92537528 C-35.87920105 15.36480468 -33.80816884 10.20529606 -29.47265625 5.2578125 C-28.82167969 4.71898437 -28.17070312 4.18015625 -27.5 3.625 C-26.85160156 3.07070312 -26.20320313 2.51640625 -25.53515625 1.9453125 C-18.47077988 -2.92213491 -7.84396301 -3.47595223 0 0 Z " fill="#000000" transform="translate(59.4375,233.5)"/>
<path d="M0 0 C1.14339844 -0.01933594 2.28679687 -0.03867187 3.46484375 -0.05859375 C12.779624 1.22585478 18.36651271 7.16000247 24.71972656 13.5612793 C25.65081238 14.48374954 26.58189819 15.40621979 27.54119873 16.35664368 C30.07929824 18.87235901 32.60464621 21.40051108 35.12711811 23.93188453 C37.24050798 26.05040676 39.36010163 28.16266722 41.47969031 30.27498466 C46.48282131 35.26115157 51.47564592 40.25747197 56.46191406 45.26049805 C61.59256103 50.40806552 66.73937629 55.53903994 71.8946116 60.6619727 C76.33366928 65.07427411 80.76288267 69.49628808 85.18434501 73.92622119 C87.81928885 76.56607631 90.45761058 79.2022981 93.10529327 81.82938194 C96.0588569 84.76105995 98.99158096 87.71278005 101.92285156 90.66674805 C103.22893372 91.9552919 103.22893372 91.9552919 104.56140137 93.26986694 C110.19188896 98.98922608 114.15964692 104.39214454 115.59375 112.40625 C115.49921039 120.06395805 114.25348711 125.92559767 109.00390625 131.703125 C102.3109672 137.97846077 97.16996365 139.60138012 88.13671875 139.8984375 C77.5455224 138.31043093 71.16467916 131.20379859 64.02734375 123.890625 C62.89787595 122.75181566 61.76728717 121.61411712 60.63563538 120.47747803 C57.68012596 117.50300459 54.73995181 114.51382176 51.80285645 111.5211792 C48.79511249 108.46201298 45.77291652 105.41719629 42.75195312 102.37109375 C36.84133625 96.40707651 30.94686353 90.42742102 25.0625 84.4375 C25.06160437 85.2803892 25.06160437 85.2803892 25.06069064 86.14030647 C25.02479018 119.45081682 24.96814124 152.76121972 24.88457905 186.07164353 C24.87456169 190.07201329 24.86471754 194.07238346 24.85498047 198.07275391 C24.85206841 199.2673474 24.85206841 199.2673474 24.84909752 200.48607409 C24.81808349 213.37815242 24.80109854 226.27021296 24.78930578 239.16232157 C24.77689112 252.39259614 24.74938262 265.62277737 24.70788693 278.85299301 C24.6827605 287.0155842 24.66938209 295.17802056 24.67107043 303.34065098 C24.67110372 309.60168502 24.65012825 315.86248905 24.62133217 322.12345314 C24.61281041 324.69049548 24.61109859 327.25757082 24.61669731 329.8246212 C24.62332403 333.32979692 24.60544642 336.83403047 24.58148193 340.33911133 C24.58924235 341.35469179 24.59700277 342.37027225 24.60499835 343.41662788 C24.51636259 350.74122595 22.97241674 356.11683955 18.09765625 361.6796875 C17.44667969 362.21851563 16.79570312 362.75734375 16.125 363.3125 C15.47660156 363.86679687 14.82820312 364.42109375 14.16015625 364.9921875 C7.65892443 369.47162097 0.69109083 369.11213728 -6.9375 368.4375 C-13.59709333 366.75664417 -18.12297447 361.97371678 -21.9375 356.4375 C-24.66843115 351.44869088 -24.22641714 346.22943558 -24.2159729 340.69987488 C-24.2217653 339.60529427 -24.2275577 338.51071367 -24.23352563 337.38296396 C-24.25055516 333.70864875 -24.25340472 330.03445893 -24.25634766 326.36010742 C-24.26564378 323.72885835 -24.27581197 321.09761223 -24.28678894 318.46636963 C-24.30905703 312.79809793 -24.32407302 307.12984428 -24.33415604 301.46153831 C-24.34874485 293.26613806 -24.37428224 285.07080066 -24.40248732 276.8754373 C-24.44795163 263.57884008 -24.48456793 250.28223381 -24.515625 236.9855957 C-24.54581202 224.06956391 -24.58016299 211.15355426 -24.62011719 198.23754883 C-24.62257874 197.44133463 -24.62504028 196.64512042 -24.62757643 195.82477852 C-24.63995106 191.83038445 -24.65240758 187.83599065 -24.66490483 183.84159696 C-24.76846722 150.70692799 -24.85767226 117.57223478 -24.9375 84.4375 C-25.55644638 85.06754944 -26.17539276 85.69759888 -26.81309509 86.34674072 C-32.66932726 92.30346399 -38.53774479 98.24785681 -44.41991329 104.17897415 C-47.4430504 107.22812303 -50.46139369 110.28171035 -53.46899414 113.34619141 C-56.37567594 116.30749331 -59.29466447 119.25614823 -62.22232246 122.19670868 C-63.33300558 123.31657798 -64.43930445 124.44081447 -65.54093742 125.56958771 C-72.19790575 132.38384934 -78.1910938 138.23024836 -87.90625 139.96875 C-95.56395805 139.87421039 -101.42559767 138.62848711 -107.203125 133.37890625 C-113.47846077 126.6859672 -115.10138012 121.54496365 -115.3984375 112.51171875 C-113.97295513 103.00447619 -108.32187823 97.10282636 -101.69018555 90.55908203 C-100.74425715 89.60800556 -99.79940108 88.65586156 -98.85552979 87.70274353 C-96.30692062 85.13572905 -93.74299203 82.58455981 -91.17532325 80.03662729 C-88.48151942 77.35929431 -85.80042086 74.66928716 -83.11738586 71.98117065 C-78.61281614 67.47209054 -74.09819701 62.97326809 -69.57739258 58.48046875 C-64.35945937 53.29461174 -59.1577791 48.0928766 -53.96448869 42.88235009 C-48.95474997 37.85672198 -43.93374915 32.84249269 -38.90754128 27.83333969 C-36.77444351 25.70709358 -34.64532374 23.5769797 -32.51935387 21.44360733 C-30.01431212 18.93087746 -27.49952157 16.42832071 -24.97702026 13.93312263 C-23.61799485 12.58421266 -22.26869482 11.2255262 -20.91975403 9.86653137 C-14.37041285 3.4188186 -9.49876595 0.01068478 0 0 Z " fill="#000000" transform="translate(255.9375,23.5625)"/>
</svg>
