<?xml version="1.0" encoding="UTF-8"?>
<svg version="1.1" xmlns="http://www.w3.org/2000/svg" width="512" height="512">
<path d="M0 0 C3.11446864 2.61497839 6.04313982 5.33011212 8.8125 8.3125 C9.40546875 8.91191406 9.9984375 9.51132812 10.609375 10.12890625 C19.31000423 19.28480096 29.8125 35.04633224 29.8125 48.3125 C31.34259295 48.30696924 31.34259295 48.30696924 32.90359688 48.30132675 C57.7159501 48.21255605 82.52828274 48.14681006 107.34076118 48.10525131 C119.33986172 48.08461999 131.33885739 48.05648835 143.33789062 48.01074219 C153.79539811 47.97089205 164.25282965 47.94507134 174.71041095 47.93614602 C180.24841325 47.93092822 185.7861983 47.91865238 191.32413101 47.88957977 C196.5361572 47.86243964 201.74787652 47.85405225 206.95996666 47.86006927 C208.87318145 47.85896842 210.78640646 47.85100628 212.69956017 47.8356781 C215.31213828 47.81577206 217.92355834 47.82056287 220.53616333 47.83148193 C221.29298499 47.81983057 222.04980665 47.8081792 222.82956231 47.79617476 C227.97144886 47.85424956 230.83794869 49.10075458 234.8125 52.3125 C238.44083663 56.13180172 239.12250458 59.19529006 239.3125 64.3125 C239.12250458 69.42970994 238.44083663 72.49319828 234.8125 76.3125 C230.10452704 80.11690695 226.43064751 80.8842644 220.53616333 80.79351807 C219.71840986 80.79693577 218.90065639 80.80035347 218.05812252 80.80387473 C215.32631145 80.81044741 212.59548961 80.78848809 209.86376953 80.76660156 C207.90231855 80.76547295 205.94086589 80.76610721 203.97941589 80.76837158 C198.65954469 80.76951912 193.34003433 80.74600316 188.02024698 80.71807575 C182.45890031 80.69306885 176.89754534 80.69072065 171.33615112 80.68597412 C160.80710409 80.67354229 150.27822321 80.64071774 139.74924934 80.60057616 C127.76145363 80.55586503 115.77364997 80.53387304 103.78579164 80.51379442 C79.12793565 80.4719854 54.47022713 80.40162917 29.8125 80.3125 C29.61678406 81.12821976 29.42106812 81.94393951 29.21942139 82.78437805 C28.95719788 83.85882675 28.69497437 84.93327545 28.42480469 86.0402832 C28.03841827 87.63511284 28.03841827 87.63511284 27.64422607 89.26216125 C26.55031174 93.2740702 24.98906536 96.82943069 23.0625 100.5 C22.71541992 101.17780518 22.36833984 101.85561035 22.01074219 102.55395508 C19.16595483 107.96073359 15.81247725 112.69347865 11.8125 117.3125 C11.2040625 118.116875 10.595625 118.92125 9.96875 119.75 C-0.69456753 132.42234837 -19.84413809 142.38107274 -36.1875 144.3125 C-59.78155774 146.06194354 -81.87108543 142.487045 -100.44921875 126.8828125 C-102.797425 124.76151157 -105.02999118 122.63182198 -107.1875 120.3125 C-108.18716797 119.32056641 -108.18716797 119.32056641 -109.20703125 118.30859375 C-118.12578466 109.08596458 -128.1875 93.73230638 -128.1875 80.3125 C-129.33750488 80.33344727 -130.48750977 80.35439453 -131.67236328 80.37597656 C-135.95495056 80.44859063 -140.23748383 80.49437729 -144.52050781 80.53222656 C-146.37118696 80.55229339 -148.22180309 80.57955345 -150.07226562 80.61425781 C-152.73843977 80.66299433 -155.40377287 80.68551787 -158.0703125 80.703125 C-158.89242218 80.72377014 -159.71453186 80.74441528 -160.56155396 80.76568604 C-165.93528558 80.76776654 -168.90754889 79.85089548 -173.1875 76.3125 C-176.81583663 72.49319828 -177.49750458 69.42970994 -177.6875 64.3125 C-177.49750458 59.19529006 -176.81583663 56.13180172 -173.1875 52.3125 C-168.08235958 48.09188968 -164.40194298 47.76287261 -158.0703125 47.921875 C-157.21315643 47.92753479 -156.35600037 47.93319458 -155.47286987 47.93902588 C-152.7521632 47.96130361 -150.03280432 48.01148226 -147.3125 48.0625 C-145.46095661 48.0825762 -143.60939244 48.100825 -141.7578125 48.1171875 C-137.2338607 48.16113999 -132.71090836 48.23010641 -128.1875 48.3125 C-128.01444336 47.54123779 -127.84138672 46.76997559 -127.66308594 45.9753418 C-126.17160105 39.63456594 -124.46489189 33.89290801 -121.4375 28.125 C-121.09041992 27.44719482 -120.74333984 26.76938965 -120.38574219 26.07104492 C-117.54095483 20.66426641 -114.18747725 15.93152135 -110.1875 11.3125 C-109.5790625 10.508125 -108.970625 9.70375 -108.34375 8.875 C-82.03400299 -22.39165587 -31.26412617 -23.74621855 0 0 Z M-85.59375 33.375 C-95.43640124 45.34057602 -97.65270632 58.23884446 -96.1875 73.3125 C-93.84708771 85.71111275 -86.08035948 96.65950605 -75.875 103.96875 C-63.79239325 111.6714118 -50.71703219 113.30009709 -36.7109375 110.65625 C-23.68824666 106.75280778 -13.06012753 97.66320272 -6.4765625 85.88671875 C-0.84948129 74.64960809 -0.13710628 60.86586095 -3.75 48.8125 C-8.69578454 36.22164712 -18.03893001 26.16804343 -30.1875 20.3125 C-36.33612265 17.7810678 -41.86705749 16.78839738 -48.5 16.875 C-49.74221313 16.88744751 -49.74221313 16.88744751 -51.00952148 16.90014648 C-64.97187254 17.28235989 -76.05038832 23.29144804 -85.59375 33.375 Z " fill="#FFFFFF" transform="translate(225.1875,287.6875)"/>
<path d="M0 0 C3.11446864 2.61497839 6.04313982 5.33011212 8.8125 8.3125 C9.40546875 8.91191406 9.9984375 9.51132813 10.609375 10.12890625 C19.31000423 19.28480096 29.8125 35.04633224 29.8125 48.3125 C30.96250488 48.29155273 32.11250977 48.27060547 33.29736328 48.24902344 C37.57995056 48.17640937 41.86248383 48.13062271 46.14550781 48.09277344 C47.99618696 48.07270661 49.84680309 48.04544655 51.69726562 48.01074219 C54.36343977 47.96200567 57.02877287 47.93948213 59.6953125 47.921875 C60.51742218 47.90122986 61.33953186 47.88058472 62.18655396 47.85931396 C67.56028558 47.85723346 70.53254889 48.77410452 74.8125 52.3125 C78.44083663 56.13180172 79.12250458 59.19529006 79.3125 64.3125 C79.12250458 69.42970994 78.44083663 72.49319828 74.8125 76.3125 C69.70735958 80.53311032 66.02694298 80.86212739 59.6953125 80.703125 C58.83815643 80.69746521 57.98100037 80.69180542 57.09786987 80.68597412 C54.3771632 80.66369639 51.65780432 80.61351774 48.9375 80.5625 C47.08595661 80.5424238 45.23439244 80.524175 43.3828125 80.5078125 C38.8588607 80.46386001 34.33590836 80.39489359 29.8125 80.3125 C29.63944336 81.08376221 29.46638672 81.85502441 29.28808594 82.6496582 C27.79660105 88.99043406 26.08989189 94.73209199 23.0625 100.5 C22.71541992 101.17780518 22.36833984 101.85561035 22.01074219 102.55395508 C19.16595483 107.96073359 15.81247725 112.69347865 11.8125 117.3125 C11.2040625 118.116875 10.595625 118.92125 9.96875 119.75 C-0.69456753 132.42234837 -19.84413809 142.38107274 -36.1875 144.3125 C-59.78155774 146.06194354 -81.87108543 142.487045 -100.44921875 126.8828125 C-102.797425 124.76151157 -105.02999118 122.63182198 -107.1875 120.3125 C-108.18716797 119.32056641 -108.18716797 119.32056641 -109.20703125 118.30859375 C-118.12578466 109.08596458 -128.1875 93.73230638 -128.1875 80.3125 C-129.20756197 80.31618717 -130.22762394 80.31987434 -131.27859688 80.32367325 C-156.0909501 80.41244395 -180.90328274 80.47818994 -205.71576118 80.51974869 C-217.71486172 80.54038001 -229.71385739 80.56851165 -241.71289062 80.61425781 C-252.17039811 80.65410795 -262.62782965 80.67992866 -273.08541095 80.68885398 C-278.62341325 80.69407178 -284.1611983 80.70634762 -289.69913101 80.73542023 C-294.9111572 80.76256036 -300.12287652 80.77094775 -305.33496666 80.76493073 C-307.24818145 80.76603158 -309.16140646 80.77399372 -311.07456017 80.7893219 C-313.68713828 80.80922794 -316.29855834 80.80443713 -318.91116333 80.79351807 C-319.66798499 80.80516943 -320.42480665 80.8168208 -321.20456231 80.82882524 C-326.34644886 80.77075044 -329.21294869 79.52424542 -333.1875 76.3125 C-336.81583663 72.49319828 -337.49750458 69.42970994 -337.6875 64.3125 C-337.49750458 59.19529006 -336.81583663 56.13180172 -333.1875 52.3125 C-328.47952704 48.50809305 -324.80564751 47.7407356 -318.91116333 47.83148193 C-318.09340986 47.82806423 -317.27565639 47.82464653 -316.43312252 47.82112527 C-313.70131145 47.81455259 -310.97048961 47.83651191 -308.23876953 47.85839844 C-306.27731855 47.85952705 -304.31586589 47.85889279 -302.35441589 47.85662842 C-297.03454469 47.85548088 -291.71503433 47.87899684 -286.39524698 47.90692425 C-280.83390031 47.93193115 -275.27254534 47.93427935 -269.71115112 47.93902588 C-259.18210409 47.95145771 -248.65322321 47.98428226 -238.12424934 48.02442384 C-226.13645363 48.06913497 -214.14864997 48.09112696 -202.16079164 48.11120558 C-177.50293565 48.1530146 -152.84522713 48.22337083 -128.1875 48.3125 C-127.99178406 47.49678024 -127.79606812 46.68106049 -127.59442139 45.84062195 C-127.33219788 44.76617325 -127.06997437 43.69172455 -126.79980469 42.5847168 C-126.41341827 40.98988716 -126.41341827 40.98988716 -126.01922607 39.36283875 C-124.92531174 35.3509298 -123.36406536 31.79556931 -121.4375 28.125 C-120.91687988 27.10829224 -120.91687988 27.10829224 -120.38574219 26.07104492 C-117.54095483 20.66426641 -114.18747725 15.93152135 -110.1875 11.3125 C-109.5790625 10.508125 -108.970625 9.70375 -108.34375 8.875 C-82.03400299 -22.39165587 -31.26412617 -23.74621855 0 0 Z M-85.59375 33.375 C-95.43640124 45.34057602 -97.65270632 58.23884446 -96.1875 73.3125 C-93.84708771 85.71111275 -86.08035948 96.65950605 -75.875 103.96875 C-63.79239325 111.6714118 -50.71703219 113.30009709 -36.7109375 110.65625 C-23.68824666 106.75280778 -13.06012753 97.66320272 -6.4765625 85.88671875 C-0.84948129 74.64960809 -0.13710628 60.86586095 -3.75 48.8125 C-8.69578454 36.22164712 -18.03893001 26.16804343 -30.1875 20.3125 C-36.33612265 17.7810678 -41.86705749 16.78839738 -48.5 16.875 C-49.74221313 16.88744751 -49.74221313 16.88744751 -51.00952148 16.90014648 C-64.97187254 17.28235989 -76.05038832 23.29144804 -85.59375 33.375 Z " fill="#FFFFFF" transform="translate(385.1875,95.6875)"/>
</svg>
