<?xml version="1.0" encoding="UTF-8"?>
<!DOCTYPE svg PUBLIC "-//W3C//DTD SVG 1.1//EN" "http://www.w3.org/Graphics/SVG/1.1/DTD/svg11.dtd">
<svg xmlns="http://www.w3.org/2000/svg" version="1.1" width="512px" height="512px" style="shape-rendering:geometricPrecision; text-rendering:geometricPrecision; image-rendering:optimizeQuality; fill-rule:evenodd; clip-rule:evenodd" xmlns:xlink="http://www.w3.org/1999/xlink">
<g><path style="opacity:0.983" fill="#020201" d="M 511.5,314.5 C 511.5,363.167 511.5,411.833 511.5,460.5C 502.113,486.532 483.78,496.366 456.5,490C 435.62,479.752 426.62,462.918 429.5,439.5C 313.5,439.5 197.5,439.5 81.5,439.5C 84.3795,462.918 75.3795,479.752 54.5,490C 27.2202,496.366 8.88688,486.532 -0.5,460.5C -0.5,411.833 -0.5,363.167 -0.5,314.5C 3.1114,291.17 12.9447,270.837 29,253.5C 29.3333,196.5 29.6667,139.5 30,82.5C 35.8424,45.9909 57.0091,24.8242 93.5,19C 200.833,18.3333 308.167,18.3333 415.5,19C 451.997,24.8301 473.163,45.9967 479,82.5C 479.333,138.833 479.667,195.167 480,251.5C 497.439,269.045 507.939,290.045 511.5,314.5 Z"/></g>
<g><path style="opacity:1" fill="#feb853" d="M 458.5,85.5 C 458.832,135.336 458.499,185.003 457.5,234.5C 451.944,230.869 445.944,228.202 439.5,226.5C 439.667,212.496 439.5,198.496 439,184.5C 433.353,159.853 418.187,145.019 393.5,140C 358.167,139.333 322.833,139.333 287.5,140C 274.664,143.577 263.997,150.41 255.5,160.5C 246.304,149.565 234.637,142.731 220.5,140C 184.833,139.333 149.167,139.333 113.5,140C 91.0372,146.796 77.2039,161.629 72,184.5C 71.5001,198.496 71.3334,212.496 71.5,226.5C 64.3351,228.416 57.6684,231.416 51.5,235.5C 50.5011,185.336 50.1678,135.003 50.5,84.5C 54.4859,61.3437 67.8192,46.5104 90.5,40C 199.833,39.3333 309.167,39.3333 418.5,40C 441.643,46.6373 454.976,61.8039 458.5,85.5 Z"/></g>
<g><path style="opacity:1" fill="#543d1b" d="M 458.5,85.5 C 459.831,135.335 459.831,185.335 458.5,235.5C 457.893,235.376 457.56,235.043 457.5,234.5C 458.499,185.003 458.832,135.336 458.5,85.5 Z"/></g>
<g><path style="opacity:1" fill="#5f451f" d="M 50.5,84.5 C 50.1678,135.003 50.5011,185.336 51.5,235.5C 51.44,236.043 51.1067,236.376 50.5,236.5C 49.1688,185.668 49.1688,135.002 50.5,84.5 Z"/></g>
<g><path style="opacity:1" fill="#e7eded" d="M 116.5,159.5 C 151.168,159.333 185.835,159.5 220.5,160C 233.096,164.262 241.262,172.762 245,185.5C 245.5,196.828 245.667,208.162 245.5,219.5C 194.137,219.18 142.804,219.513 91.5,220.5C 91.3335,208.829 91.5001,197.162 92,185.5C 95.9248,172.744 104.092,164.078 116.5,159.5 Z"/></g>
<g><path style="opacity:1" fill="#e9efef" d="M 418.5,185.5 C 418.5,196.833 418.5,208.167 418.5,219.5C 416.833,219.5 415.167,219.5 413.5,219.5C 364.181,218.533 314.848,218.2 265.5,218.5C 265.333,207.495 265.5,196.495 266,185.5C 269.738,172.762 277.904,164.262 290.5,160C 325.167,159.333 359.833,159.333 394.5,160C 407.189,164.186 415.189,172.686 418.5,185.5 Z"/></g>
<g><path style="opacity:1" fill="#b4b9b9" d="M 418.5,185.5 C 419.495,196.988 419.828,208.655 419.5,220.5C 417.265,220.795 415.265,220.461 413.5,219.5C 415.167,219.5 416.833,219.5 418.5,219.5C 418.5,208.167 418.5,196.833 418.5,185.5 Z"/></g>
<g><path style="opacity:1" fill="#00ceae" d="M 381.5,370.5 C 371.582,369.526 361.582,369.193 351.5,369.5C 350.14,360.811 345.14,357.645 336.5,360C 332.097,362.623 330.431,366.457 331.5,371.5C 321.76,369.564 311.76,368.898 301.5,369.5C 301.135,365.263 299.135,362.096 295.5,360C 203.501,359.5 111.501,359.333 19.5,359.5C 19.3334,345.163 19.5001,330.829 20,316.5C 29.4851,272.682 56.3185,246.849 100.5,239C 202.5,238.333 304.5,238.333 406.5,239C 453.306,245.141 481.473,271.307 491,317.5C 491.5,331.496 491.667,345.496 491.5,359.5C 456.498,359.333 421.498,359.5 386.5,360C 385,361.5 383.5,363 382,364.5C 381.505,366.473 381.338,368.473 381.5,370.5 Z"/></g>
<g><path style="opacity:1" fill="#030706" d="M 351.5,369.5 C 349.558,377.476 344.558,380.309 336.5,378C 334.235,376.242 332.568,374.075 331.5,371.5C 330.431,366.457 332.097,362.623 336.5,360C 345.14,357.645 350.14,360.811 351.5,369.5 Z"/></g>
<g><path style="opacity:1" fill="#65e0cd" d="M 301.5,369.5 C 311.76,368.898 321.76,369.564 331.5,371.5C 332.568,374.075 334.235,376.242 336.5,378C 344.558,380.309 349.558,377.476 351.5,369.5C 361.582,369.193 371.582,369.526 381.5,370.5C 382.134,373.643 383.8,376.143 386.5,378C 421.498,378.5 456.498,378.667 491.5,378.5C 491.5,391.833 491.5,405.167 491.5,418.5C 334.167,418.5 176.833,418.5 19.5,418.5C 19.5,405.167 19.5,391.833 19.5,378.5C 111.501,378.667 203.501,378.5 295.5,378C 298.846,376.149 300.846,373.316 301.5,369.5 Z"/></g>
<g><path style="opacity:1" fill="#fbc36a" d="M 19.5,438.5 C 33.1667,438.5 46.8333,438.5 60.5,438.5C 60.6662,444.842 60.4995,451.175 60,457.5C 53.4532,470.795 43.2865,474.628 29.5,469C 24.7685,466.044 21.6019,461.877 20,456.5C 19.5005,450.509 19.3338,444.509 19.5,438.5 Z"/></g>
<g><path style="opacity:1" fill="#fbc36a" d="M 450.5,438.5 C 464.167,438.5 477.833,438.5 491.5,438.5C 492.139,446.382 491.306,454.049 489,461.5C 480.752,472.156 470.585,474.323 458.5,468C 454.896,465.292 452.396,461.792 451,457.5C 450.5,451.175 450.334,444.842 450.5,438.5 Z"/></g>
</svg>
