<?xml version="1.0" encoding="UTF-8"?>
<svg version="1.1" xmlns="http://www.w3.org/2000/svg" width="512" height="512">
<path d="M0 0 C1.47559771 -0.00489165 2.95119159 -0.01108273 4.42677897 -0.01845789 C8.47347858 -0.03484599 12.51998322 -0.0325418 16.56670439 -0.02708292 C20.9342542 -0.02441131 25.30175219 -0.03894701 29.66928101 -0.05117798 C38.22291292 -0.07222895 46.77647705 -0.07677301 55.33013181 -0.07499009 C62.28354928 -0.07368225 69.23694562 -0.07748776 76.19035912 -0.08491516 C78.19362583 -0.08701437 80.19689254 -0.08911197 82.20015925 -0.09120798 C83.69581014 -0.09277327 83.69581014 -0.09277327 85.22167619 -0.09437019 C104.07837063 -0.11327137 122.93502615 -0.11222279 141.79172613 -0.10540086 C159.03727914 -0.09982604 176.28268357 -0.12064846 193.52820186 -0.15376133 C211.24029892 -0.18750581 228.95232483 -0.20266568 246.66445464 -0.1980443 C256.60667838 -0.19580031 266.54876481 -0.20103248 276.49096107 -0.22593689 C284.95564502 -0.24695983 293.42011635 -0.25053217 301.88480905 -0.2316373 C306.20208203 -0.22248541 310.51895871 -0.22131945 314.83620071 -0.24199295 C318.7922812 -0.26072716 322.74764151 -0.25617269 326.70369478 -0.23344713 C328.13097677 -0.22926747 329.55831423 -0.23344015 330.98553751 -0.24704307 C340.38441597 -0.33048783 348.46584332 0.47350586 355.53973228 7.20838785 C357.05493304 8.87568929 358.36759078 10.53162013 359.63444519 12.39440918 C360.17069519 13.13175293 360.70694519 13.86909668 361.25944519 14.62878418 C363.00597874 18.14169826 363.21051156 21.29653398 363.19694519 25.14440918 C363.1945282 25.85379639 363.19211121 26.56318359 363.18962097 27.29406738 C362.96191296 33.80309355 361.10227299 37.78344731 356.63444519 42.39440918 C356.14331238 42.90358887 355.65217957 43.41276855 355.14616394 43.93737793 C347.35092381 51.10227519 339.29525438 50.82987939 329.26889038 50.78881836 C327.79329267 50.79371001 326.3176988 50.79990109 324.84211141 50.80727625 C320.7954118 50.82366435 316.74890716 50.82136016 312.70218599 50.81590128 C308.33463618 50.81322967 303.96713819 50.82776537 299.59960938 50.83999634 C291.04597746 50.86104731 282.49241333 50.86559137 273.93875857 50.86380845 C266.9853411 50.86250061 260.03194476 50.86630612 253.07853127 50.87373352 C251.07526455 50.87583273 249.07199784 50.87793033 247.06873113 50.88002634 C246.07163054 50.88106987 245.07452995 50.8821134 244.04721419 50.88318855 C225.19051976 50.90208973 206.33386423 50.90104115 187.47716425 50.89421922 C170.23161124 50.8886444 152.98620681 50.90946682 135.74068853 50.94257969 C118.02859146 50.97632417 100.31656555 50.99148404 82.60443574 50.98686266 C72.662212 50.98461867 62.72012557 50.98985084 52.77792931 51.01475525 C44.31324537 51.03577819 35.84877403 51.03935053 27.38408133 51.02045566 C23.06680835 51.01130377 18.74993167 51.01013781 14.43268967 51.03081131 C10.47660918 51.04954552 6.52124887 51.04499105 2.5651956 51.02226549 C1.13791361 51.01808583 -0.28942385 51.02225851 -1.71664713 51.03586143 C-11.14202304 51.11954144 -19.21227043 50.30446905 -26.30013877 43.55113363 C-27.81055111 41.89231721 -29.12724512 40.26442416 -30.36555481 38.39440918 C-30.73809387 37.84397949 -31.11063293 37.2935498 -31.49446106 36.72644043 C-33.96912532 30.10144239 -33.63256485 20.27156867 -31.45539856 13.60925293 C-30.2489258 11.59587878 -29.03137219 10.04269164 -27.36555481 8.39440918 C-26.89633606 7.90972168 -26.42711731 7.42503418 -25.94367981 6.92565918 C-18.12463287 -0.30485735 -10.08275106 -0.04129195 0 0 Z " fill="#646464" transform="translate(91.36555480957031,230.6055908203125)"/>
<path d="M0 0 C1.47238301 -0.00549218 2.94475814 -0.01360572 4.41711408 -0.02408731 C8.43189988 -0.04511909 12.44578588 -0.02909804 16.46053159 -0.00658631 C20.80208441 0.01118479 25.14352495 -0.00581408 29.4850769 -0.01831055 C37.97696798 -0.0372389 46.46851796 -0.02412983 54.96038362 0.00021534 C64.85521207 0.02752134 74.74996023 0.02417393 84.64481679 0.01994868 C102.30090414 0.01357612 119.95682984 0.03686458 137.61286926 0.07608032 C154.73629171 0.11410293 171.85952481 0.12825002 188.98298645 0.11709595 C207.64464989 0.10497581 226.3062302 0.1053415 244.96788675 0.12806761 C246.95823912 0.13048212 248.94859149 0.1328941 250.93894386 0.1353035 C251.91816086 0.13651057 252.89737785 0.13771765 253.90626809 0.13896131 C260.80013341 0.14671324 267.69396774 0.14593492 274.58783531 0.14213181 C282.98911525 0.13788432 291.39022955 0.14836349 299.79146286 0.17735891 C304.07617357 0.1918287 308.36064326 0.20001659 312.6453743 0.19087219 C316.57030416 0.18269947 320.49473709 0.19310532 324.4195917 0.21812434 C325.83659962 0.22396379 327.25365463 0.22313821 328.67065027 0.21483819 C338.97888773 0.15995619 347.44990484 1.31461913 355.10237122 8.7484436 C357.28987122 11.7484436 357.28987122 11.7484436 359.10237122 14.7484436 C359.45944153 15.32207642 359.81651184 15.89570923 360.18440247 16.48672485 C362.55323915 22.32313524 362.31175937 30.69269419 360.00471497 36.5218811 C356.18215307 42.49527117 350.72897604 48.00613492 344.10237122 50.7484436 C341.29362798 51.00259393 341.29362798 51.00259393 337.97903824 51.00850582 C336.71501844 51.01557141 335.45099864 51.022637 334.1486752 51.0299167 C332.74320523 51.02766527 331.33773557 51.02521876 329.93226624 51.02259827 C328.44133509 51.02704963 326.9504063 51.03236333 325.459481 51.03846699 C321.35657541 51.05266983 317.25374548 51.05430985 313.15081882 51.05387008 C308.72804759 51.05551629 304.30530771 51.06857913 299.8825531 51.08006287 C290.20900806 51.10292744 280.53548494 51.11083506 270.86191654 51.11588931 C264.82276901 51.11914467 258.78362787 51.12566617 252.74448395 51.1328907 C236.02683339 51.15245861 219.30918878 51.16886167 202.59152603 51.17176723 C201.52140374 51.1719548 200.45128145 51.17214237 199.3487312 51.17233563 C197.17928807 51.17270188 195.00984493 51.17306558 192.8404018 51.17342674 C191.2250083 51.17370096 191.2250083 51.17370096 189.57698059 51.17398071 C188.49873853 51.17416126 187.42049648 51.17434181 186.30958042 51.17452783 C168.83616291 51.17806986 151.36286862 51.20509318 133.88949385 51.2424786 C115.95376515 51.28054644 98.01809761 51.2999246 80.0823276 51.30022675 C70.01044838 51.30081166 59.93871613 51.30932575 49.86687469 51.33822441 C41.29081312 51.36271793 32.71495211 51.37003493 24.13886502 51.35497689 C19.76312359 51.34779963 15.38777835 51.34870035 11.01208115 51.37138748 C7.00480346 51.39196536 2.99822687 51.38938877 -1.00904313 51.36851264 C-2.4572446 51.36501541 -3.90549653 51.3699378 -5.35363182 51.38421708 C-15.21513293 51.47517441 -20.97469105 50.35894789 -28.17497253 43.6156311 C-28.7228241 42.95820923 -29.27067566 42.30078735 -29.83512878 41.6234436 C-30.40102722 40.96086548 -30.96692566 40.29828735 -31.54997253 39.6156311 C-34.46774016 35.57304292 -34.11518179 31.20970815 -34.14762878 26.4359436 C-34.16825378 25.68893188 -34.18887878 24.94192017 -34.21012878 24.17227173 C-34.2614302 16.86823333 -31.70592681 12.22042237 -26.89762878 6.7484436 C-18.40372516 0.69993189 -10.13873767 -0.11521248 0 0 Z " fill="#646464" transform="translate(92.89762878417969,353.2515563964844)"/>
<path d="M0 0 C1.2680019 -0.00905664 2.5360038 -0.01811328 3.84243 -0.02744436 C5.24201616 -0.02234049 6.64160131 -0.01694842 8.04118538 -0.01129913 C9.53384457 -0.01618925 11.02649997 -0.02237962 12.51914895 -0.02975702 C16.61757459 -0.04616445 20.71580798 -0.043837 24.814255 -0.03838205 C29.2356358 -0.03571285 33.65696523 -0.05024159 38.07832527 -0.06247711 C46.73904009 -0.08353784 55.39968798 -0.0880716 64.06042539 -0.08628923 C71.09969624 -0.08498194 78.1389462 -0.08878405 85.17821312 -0.09621429 C87.20536522 -0.09831347 89.23251732 -0.10041108 91.25966942 -0.10250711 C92.26861965 -0.10355064 93.27756987 -0.10459417 94.31709434 -0.10566932 C113.40167847 -0.12457424 132.48622417 -0.1235207 151.57081379 -0.11669999 C169.03117611 -0.11112419 186.49139172 -0.13195113 203.95171975 -0.16506046 C221.8784777 -0.19879052 239.80516536 -0.21396666 257.73195565 -0.20934343 C267.7970908 -0.20709807 277.86209035 -0.21235169 287.92719841 -0.23723602 C296.49590071 -0.25824027 305.06439305 -0.26184983 313.63310395 -0.24293643 C318.00480261 -0.23377322 322.37610969 -0.23265331 326.74777794 -0.25329208 C330.7512854 -0.27198371 334.75408009 -0.26751952 338.75756027 -0.24474627 C340.20435186 -0.24055587 341.65119791 -0.24477545 343.09793197 -0.25834221 C352.92393248 -0.34419653 358.69205468 0.7629298 365.87275887 7.4807663 C366.41158699 8.12916473 366.95041512 8.77756317 367.50557137 9.44561005 C368.05986824 10.09658661 368.61416512 10.74756317 369.18525887 11.4182663 C373.88022885 17.80088765 373.4899964 24.77216586 372.63057137 32.38311005 C369.97964902 40.11412692 364.76382072 44.71103734 357.63057137 48.38311005 C353.76784068 50.19106639 350.73827443 50.63544432 346.48348141 50.64317226 C345.23960433 50.65023786 343.99572725 50.65730345 342.71415693 50.66458315 C341.33658874 50.66233186 339.95902086 50.65988537 338.58145332 50.65726471 C337.11583326 50.66171747 335.65021561 50.66703164 334.18460149 50.67313343 C330.15622554 50.68731948 326.12792673 50.68897661 322.09952939 50.68853652 C317.75512922 50.69018421 313.41076088 50.70324987 309.06637764 50.71472931 C299.56630572 50.73758268 290.06625613 50.74550035 280.56616044 50.75055575 C274.63369555 50.75381252 268.70123716 50.76033489 262.76877594 50.76755714 C246.34189532 50.78712387 229.91502073 50.80352753 213.48812771 50.80643368 C212.43684933 50.80662125 211.38557095 50.80680882 210.30243565 50.80700207 C208.17125301 50.80736832 206.04007036 50.80773202 203.90888772 50.80809318 C202.85097155 50.80827599 201.79305537 50.8084588 200.70308113 50.80864716 C199.11426876 50.80891798 199.11426876 50.80891798 197.49335917 50.80919427 C180.33174862 50.81273564 163.17026356 50.8397554 146.00869653 50.87714504 C128.38706985 50.91522961 110.76550543 50.93459117 93.14383668 50.93489319 C83.25075976 50.93547774 73.35783254 50.94396831 63.46479416 50.97289085 C55.04032785 50.99740676 46.61606582 51.00468624 38.19157348 50.98964333 C33.89455995 50.98247516 29.5979498 50.98332763 25.30098152 51.00605392 C21.36333461 51.02667992 17.42640023 51.02401038 13.48876073 51.00317908 C12.06814411 50.99969104 10.6474757 51.00456519 9.22692696 51.01888352 C-1.03205853 51.11558199 -8.45864304 49.66698684 -16.30692863 42.82061005 C-21.37337907 36.8329868 -22.56589865 32.9462087 -22.61942863 25.07061005 C-22.64005363 24.32359833 -22.66067863 23.57658661 -22.68192863 22.80693817 C-22.72298878 16.96099997 -21.48864346 13.02571449 -17.75614738 8.3713913 C-17.1954052 7.81838348 -16.63466301 7.26537567 -16.05692863 6.69561005 C-15.50392082 6.13486786 -14.95091301 5.57412567 -14.38114738 4.9963913 C-9.83101332 1.34744883 -5.79068095 0.00832376 0 0 Z " fill="#646464" transform="translate(81.36942863464355,107.61688995361328)"/>
</svg>
