<?xml version="1.0" encoding="UTF-8"?>
<!DOCTYPE svg PUBLIC "-//W3C//DTD SVG 1.1//EN" "http://www.w3.org/Graphics/SVG/1.1/DTD/svg11.dtd">
<svg xmlns="http://www.w3.org/2000/svg" version="1.1" width="512px" height="512px" style="shape-rendering:geometricPrecision; text-rendering:geometricPrecision; image-rendering:optimizeQuality; fill-rule:evenodd; clip-rule:evenodd" xmlns:xlink="http://www.w3.org/1999/xlink">
<g><path style="opacity:0.984" fill="#080503" d="M 317.5,167.5 C 314.355,169.191 311.021,169.691 307.5,169C 297.602,161.695 286.602,156.695 274.5,154C 224.888,143.104 175.222,142.77 125.5,153C 116.19,154.832 107.19,157.332 98.5,160.5C 79.7556,165.078 64.5889,175.078 53,190.5C 44.5,203.667 36,216.833 27.5,230C 42.4878,234.122 48.8211,243.955 46.5,259.5C 45.5418,261.302 44.8751,263.302 44.5,265.5C 38.7163,275.388 30.0496,279.388 18.5,277.5C 18.0782,285.693 19.0782,293.693 21.5,301.5C 24.1873,301.664 26.854,301.497 29.5,301C 33.0695,291.937 38.4028,284.103 45.5,277.5C 70.7514,258.061 96.4181,257.561 122.5,276C 130.809,282.797 136.476,291.297 139.5,301.5C 209.503,301.833 279.503,301.5 349.5,300.5C 359.533,277.306 377.2,264.64 402.5,262.5C 429.574,263.268 448.574,275.934 459.5,300.5C 468.81,301.498 478.143,301.832 487.5,301.5C 487.5,296.5 487.5,291.5 487.5,286.5C 481.158,286.666 474.825,286.5 468.5,286C 460.667,283.5 455.5,278.333 453,270.5C 452.5,261.506 452.334,252.506 452.5,243.5C 430.442,239.422 408.442,235.088 386.5,230.5C 385.841,240.986 380.507,247.82 370.5,251C 363.833,251.667 357.167,251.667 350.5,251C 347.048,250.108 344.048,248.442 341.5,246C 260.5,245.667 179.5,245.333 98.5,245C 85.3766,235.043 72.7099,224.543 60.5,213.5C 58.7015,208.192 59.2015,203.192 62,198.5C 68.1308,190.197 75.6308,183.531 84.5,178.5C 110.108,167.932 136.775,161.432 164.5,159C 202.24,156.057 239.573,158.724 276.5,167C 282.489,168.552 288.156,170.885 293.5,174C 307.979,185.645 322.312,197.478 336.5,209.5C 338.833,206.5 341.5,203.833 344.5,201.5C 340.149,197.314 335.649,193.314 331,189.5C 328.991,186.05 329.158,182.717 331.5,179.5C 331.918,178.778 332.584,178.278 333.5,178C 336.167,177.333 338.833,177.333 341.5,178C 348.98,184.903 356.646,191.569 364.5,198C 375.254,198.769 382.588,204.103 386.5,214C 413.134,219.793 439.8,225.46 466.5,231C 486.478,237.314 498.311,250.814 502,271.5C 502.333,281.833 502.667,292.167 503,302.5C 506.743,304.74 509.576,307.74 511.5,311.5C 511.5,318.167 511.5,324.833 511.5,331.5C 509.377,336.454 505.71,339.954 500.5,342C 486.821,342.167 473.154,342.667 459.5,343.5C 445.344,373.079 422.011,384.912 389.5,379C 370.678,373.344 357.345,361.511 349.5,343.5C 314.505,342.667 279.505,342.167 244.5,342C 241.778,340.728 240.444,338.561 240.5,335.5C 240.269,332.215 241.603,329.715 244.5,328C 278.165,327.5 311.832,327.333 345.5,327.5C 345.5,323.833 345.5,320.167 345.5,316.5C 282.833,316.5 220.167,316.5 157.5,316.5C 152.833,316.5 148.167,316.5 143.5,316.5C 143.5,320.167 143.5,323.833 143.5,327.5C 167.167,327.5 190.833,327.5 214.5,327.5C 218.412,328.744 220.412,331.411 220.5,335.5C 220.556,338.561 219.222,340.728 216.5,342C 191.167,342.333 165.833,342.667 140.5,343C 125.149,374.006 100.482,385.673 66.5,378C 49.1826,371.849 36.8492,360.349 29.5,343.5C 23.1928,342.669 16.8594,342.169 10.5,342C 5.28997,339.954 1.62331,336.454 -0.5,331.5C -0.5,324.833 -0.5,318.167 -0.5,311.5C 1.69608,308.468 3.69608,305.301 5.5,302C 1.71385,281.864 1.54718,261.698 5,241.5C 6.38916,237.056 8.05582,232.723 10,228.5C 21.3333,211.167 32.6667,193.833 44,176.5C 61.8085,157.508 83.6419,145.675 109.5,141C 169.589,126.727 229.589,127.06 289.5,142C 298.557,145.028 306.89,149.361 314.5,155C 318.436,158.444 319.436,162.611 317.5,167.5 Z"/></g>
<g><path style="opacity:0.998" fill="#f84553" d="M 317.5,167.5 C 321.847,171.845 326.514,175.845 331.5,179.5C 329.158,182.717 328.991,186.05 331,189.5C 335.649,193.314 340.149,197.314 344.5,201.5C 341.5,203.833 338.833,206.5 336.5,209.5C 322.312,197.478 307.979,185.645 293.5,174C 288.156,170.885 282.489,168.552 276.5,167C 239.573,158.724 202.24,156.057 164.5,159C 136.775,161.432 110.108,167.932 84.5,178.5C 88.5547,171.607 93.8881,165.774 100.5,161C 99.9056,160.536 99.2389,160.369 98.5,160.5C 107.19,157.332 116.19,154.832 125.5,153C 175.222,142.77 224.888,143.104 274.5,154C 286.602,156.695 297.602,161.695 307.5,169C 311.021,169.691 314.355,169.191 317.5,167.5 Z"/></g>
<g><path style="opacity:1" fill="#f72c38" d="M 98.5,160.5 C 99.2389,160.369 99.9056,160.536 100.5,161C 93.8881,165.774 88.5547,171.607 84.5,178.5C 75.6308,183.531 68.1308,190.197 62,198.5C 59.2015,203.192 58.7015,208.192 60.5,213.5C 57.6337,219.562 54.467,225.562 51,231.5C 49.1663,240.919 47.6663,250.252 46.5,259.5C 48.8211,243.955 42.4878,234.122 27.5,230C 36,216.833 44.5,203.667 53,190.5C 64.5889,175.078 79.7556,165.078 98.5,160.5 Z"/></g>
<g><path style="opacity:1" fill="#5fb6fc" d="M 222.5,173.5 C 222.5,192.167 222.5,210.833 222.5,229.5C 196.759,229.824 171.092,229.49 145.5,228.5C 142.994,211.475 140.327,194.475 137.5,177.5C 165.662,172.659 193.995,171.325 222.5,173.5 Z"/></g>
<g><path style="opacity:1" fill="#22a7fc" d="M 238.5,175.5 C 254.413,176.557 269.747,180.057 284.5,186C 301.024,199.698 317.358,213.531 333.5,227.5C 302.184,229.493 270.518,230.159 238.5,229.5C 238.5,211.5 238.5,193.5 238.5,175.5 Z"/></g>
<g><path style="opacity:1" fill="#22a5f9" d="M 130.5,229.5 C 125.821,229.666 121.155,229.499 116.5,229C 109.031,220.53 101.198,212.363 93,204.5C 92.2189,203.271 91.7189,201.938 91.5,200.5C 93.433,196.966 95.0997,193.3 96.5,189.5C 105.06,185.487 113.894,183.154 123,182.5C 125.934,198.105 128.434,213.771 130.5,229.5 Z"/></g>
<g><path style="opacity:1" fill="#028ff3" d="M 96.5,189.5 C 95.0997,193.3 93.433,196.966 91.5,200.5C 91.7189,201.938 92.2189,203.271 93,204.5C 101.198,212.363 109.031,220.53 116.5,229C 121.155,229.499 125.821,229.666 130.5,229.5C 121.343,230.658 112.009,230.824 102.5,230C 93.6857,222.687 85.019,215.187 76.5,207.5C 75.4173,206.635 75.2506,205.635 76,204.5C 81.5621,197.648 88.3954,192.648 96.5,189.5 Z"/></g>
<g><path style="opacity:1" fill="#aed6f6" d="M 361.5,214.5 C 360.538,221.412 360.205,228.412 360.5,235.5C 362.833,235.5 365.167,235.5 367.5,235.5C 362.684,236.65 357.684,236.816 352.5,236C 351.667,235.167 350.833,234.333 350,233.5C 349.333,227.833 349.333,222.167 350,216.5C 350.5,216 351,215.5 351.5,215C 354.817,214.502 358.15,214.335 361.5,214.5 Z"/></g>
<g><path style="opacity:1" fill="#dbe7f6" d="M 361.5,214.5 C 365.287,213.814 368.454,214.814 371,217.5C 371.667,222.5 371.667,227.5 371,232.5C 370.578,234.426 369.411,235.426 367.5,235.5C 365.167,235.5 362.833,235.5 360.5,235.5C 360.205,228.412 360.538,221.412 361.5,214.5 Z"/></g>
<g><path style="opacity:1" fill="#fd4655" d="M 60.5,213.5 C 72.7099,224.543 85.3766,235.043 98.5,245C 179.5,245.333 260.5,245.667 341.5,246C 344.048,248.442 347.048,250.108 350.5,251C 357.167,251.667 363.833,251.667 370.5,251C 380.507,247.82 385.841,240.986 386.5,230.5C 408.442,235.088 430.442,239.422 452.5,243.5C 452.334,252.506 452.5,261.506 453,270.5C 455.5,278.333 460.667,283.5 468.5,286C 474.825,286.5 481.158,286.666 487.5,286.5C 487.5,291.5 487.5,296.5 487.5,301.5C 478.143,301.832 468.81,301.498 459.5,300.5C 448.574,275.934 429.574,263.268 402.5,262.5C 377.2,264.64 359.533,277.306 349.5,300.5C 279.503,301.5 209.503,301.833 139.5,301.5C 136.476,291.297 130.809,282.797 122.5,276C 96.4181,257.561 70.7514,258.061 45.5,277.5C 45.8168,273.298 45.4834,269.298 44.5,265.5C 44.8751,263.302 45.5418,261.302 46.5,259.5C 47.6663,250.252 49.1663,240.919 51,231.5C 54.467,225.562 57.6337,219.562 60.5,213.5 Z"/></g>
<g><path style="opacity:1" fill="#3e76a2" d="M 222.5,173.5 C 223.497,192.326 223.83,211.326 223.5,230.5C 197.145,231.158 171.145,230.491 145.5,228.5C 171.092,229.49 196.759,229.824 222.5,229.5C 222.5,210.833 222.5,192.167 222.5,173.5 Z"/></g>
<g><path style="opacity:1" fill="#1974ae" d="M 238.5,175.5 C 238.5,193.5 238.5,211.5 238.5,229.5C 270.518,230.159 302.184,229.493 333.5,227.5C 334.404,228.209 334.737,229.209 334.5,230.5C 302.167,230.5 269.833,230.5 237.5,230.5C 237.17,211.992 237.503,193.659 238.5,175.5 Z"/></g>
<g><path style="opacity:1" fill="#f6cb01" d="M 19.5,245.5 C 30.3374,244.182 34.1707,248.848 31,259.5C 30.1667,260.333 29.3333,261.167 28.5,262C 25.1832,262.498 21.8499,262.665 18.5,262.5C 18.313,256.788 18.6463,251.121 19.5,245.5 Z"/></g>
<g><path style="opacity:1" fill="#6f5b01" d="M 468.5,248.5 C 467.51,254.645 467.177,260.978 467.5,267.5C 466.182,260.989 466.182,254.322 467.5,247.5C 468.107,247.624 468.44,247.957 468.5,248.5 Z"/></g>
<g><path style="opacity:1" fill="#f9ce01" d="M 468.5,248.5 C 476.771,253.367 482.438,260.367 485.5,269.5C 480.695,270.487 475.695,270.821 470.5,270.5C 469.167,269.833 468.167,268.833 467.5,267.5C 467.177,260.978 467.51,254.645 468.5,248.5 Z"/></g>
<g><path style="opacity:1" fill="#0b0503" d="M 156.5,258.5 C 161.959,258.103 167.292,258.603 172.5,260C 176.875,265.121 176.209,269.455 170.5,273C 165.5,273.667 160.5,273.667 155.5,273C 149.954,267.676 150.288,262.843 156.5,258.5 Z"/></g>
<g><path style="opacity:1" fill="#0b0503" d="M 250.5,258.5 C 255.959,258.103 261.292,258.603 266.5,260C 270.875,265.121 270.209,269.455 264.5,273C 259.5,273.667 254.5,273.667 249.5,273C 243.954,267.676 244.288,262.843 250.5,258.5 Z"/></g>
<g><path style="opacity:1" fill="#f52c37" d="M 44.5,265.5 C 45.4834,269.298 45.8168,273.298 45.5,277.5C 38.4028,284.103 33.0695,291.937 29.5,301C 26.854,301.497 24.1873,301.664 21.5,301.5C 19.0782,293.693 18.0782,285.693 18.5,277.5C 30.0496,279.388 38.7163,275.388 44.5,265.5 Z"/></g>
<g><path style="opacity:1" fill="#9e8201" d="M 485.5,269.5 C 486.043,269.56 486.376,269.893 486.5,270.5C 481.014,271.815 475.68,271.815 470.5,270.5C 475.695,270.821 480.695,270.487 485.5,269.5 Z"/></g>
<g><path style="opacity:1" fill="#524c53" d="M 91.5,278.5 C 84.248,278.552 78.4146,281.552 74,287.5C 73.3083,288.437 73.475,289.103 74.5,289.5C 55.0914,298.2 48.2581,312.866 54,333.5C 57.7129,342.378 63.8796,348.711 72.5,352.5C 72.0618,352.435 71.7284,352.601 71.5,353C 74.8333,356.333 78.1667,359.667 81.5,363C 84.3508,364.289 87.3508,364.789 90.5,364.5C 65.5293,366.066 49.3627,354.733 42,330.5C 39.3728,299.299 53.5395,281.633 84.5,277.5C 87.0254,277.503 89.3587,277.837 91.5,278.5 Z"/></g>
<g><path style="opacity:1" fill="#635c65" d="M 91.5,278.5 C 114.002,283.001 126.335,296.668 128.5,319.5C 128.432,339.494 119.432,353.661 101.5,362C 97.9296,363.31 94.263,364.143 90.5,364.5C 87.3508,364.789 84.3508,364.289 81.5,363C 78.1667,359.667 74.8333,356.333 71.5,353C 71.7284,352.601 72.0618,352.435 72.5,352.5C 90.0464,357.487 103.88,352.487 114,337.5C 122.806,313.618 115.306,297.452 91.5,289C 85.7963,288.313 80.1296,288.479 74.5,289.5C 73.475,289.103 73.3083,288.437 74,287.5C 78.4146,281.552 84.248,278.552 91.5,278.5 Z"/></g>
<g><path style="opacity:1" fill="#524c53" d="M 409.5,278.5 C 406.436,278.144 403.769,278.977 401.5,281C 398.833,283.667 396.167,286.333 393.5,289C 393.728,289.399 394.062,289.565 394.5,289.5C 371.041,301.046 365.541,318.379 378,341.5C 382.629,346.879 388.129,350.879 394.5,353.5C 393.475,353.897 393.308,354.563 394,355.5C 398.031,360.756 403.198,363.756 409.5,364.5C 385.909,365.796 370.076,355.129 362,332.5C 358.072,304.09 369.905,285.924 397.5,278C 401.689,277.188 405.689,277.355 409.5,278.5 Z"/></g>
<g><path style="opacity:1" fill="#635c65" d="M 409.5,278.5 C 426.227,280.383 438.06,289.049 445,304.5C 453.181,333.305 443.348,353.138 415.5,364C 413.527,364.495 411.527,364.662 409.5,364.5C 403.198,363.756 398.031,360.756 394,355.5C 393.308,354.563 393.475,353.897 394.5,353.5C 420.394,357.101 434.728,345.934 437.5,320C 435.77,303.931 427.104,293.597 411.5,289C 405.782,288.26 400.115,288.427 394.5,289.5C 394.062,289.565 393.728,289.399 393.5,289C 396.167,286.333 398.833,283.667 401.5,281C 403.769,278.977 406.436,278.144 409.5,278.5 Z"/></g>
<g><path style="opacity:1" fill="#070605" d="M 72.5,352.5 C 63.8796,348.711 57.7129,342.378 54,333.5C 48.2581,312.866 55.0914,298.2 74.5,289.5C 80.1296,288.479 85.7963,288.313 91.5,289C 115.306,297.452 122.806,313.618 114,337.5C 103.88,352.487 90.0464,357.487 72.5,352.5 Z"/></g>
<g><path style="opacity:1" fill="#070604" d="M 394.5,353.5 C 388.129,350.879 382.629,346.879 378,341.5C 365.541,318.379 371.041,301.046 394.5,289.5C 400.115,288.427 405.782,288.26 411.5,289C 427.104,293.597 435.77,303.931 437.5,320C 434.728,345.934 420.394,357.101 394.5,353.5 Z"/></g>
<g><path style="opacity:1" fill="#aed7f7" d="M 92.5,305.5 C 85.5478,314.58 84.7145,324.247 90,334.5C 91.1096,336.037 92.6096,336.703 94.5,336.5C 83.1547,342.421 74.3213,339.754 68,328.5C 64.4928,313.833 70.1595,305.5 85,303.5C 87.8655,303.3 90.3655,303.967 92.5,305.5 Z"/></g>
<g><path style="opacity:1" fill="#afd8f8" d="M 412.5,305.5 C 405.833,316.167 405.833,326.833 412.5,337.5C 402.101,341.756 393.934,339.089 388,329.5C 383.717,315.052 388.884,306.385 403.5,303.5C 406.785,303.447 409.785,304.114 412.5,305.5 Z"/></g>
<g><path style="opacity:1" fill="#dce9f8" d="M 92.5,305.5 C 102.834,311.688 105.334,320.354 100,331.5C 98.2962,333.373 96.4628,335.04 94.5,336.5C 92.6096,336.703 91.1096,336.037 90,334.5C 84.7145,324.247 85.5478,314.58 92.5,305.5 Z"/></g>
<g><path style="opacity:1" fill="#dbe7f6" d="M 412.5,305.5 C 423.258,312.189 425.425,321.189 419,332.5C 417.242,334.765 415.075,336.432 412.5,337.5C 405.833,326.833 405.833,316.167 412.5,305.5 Z"/></g>
<g><path style="opacity:1" fill="#a9d1f0" d="M 14.5,316.5 C 18.5,316.5 22.5,316.5 26.5,316.5C 26.5,320.167 26.5,323.833 26.5,327.5C 22.8183,327.665 19.1516,327.499 15.5,327C 14.5442,323.606 14.2108,320.106 14.5,316.5 Z"/></g>
<g><path style="opacity:1" fill="#adceea" d="M 157.5,316.5 C 157.5,319.833 157.5,323.167 157.5,326.5C 176.674,326.17 195.674,326.503 214.5,327.5C 190.833,327.5 167.167,327.5 143.5,327.5C 143.5,323.833 143.5,320.167 143.5,316.5C 148.167,316.5 152.833,316.5 157.5,316.5 Z"/></g>
<g><path style="opacity:1" fill="#dce8f6" d="M 157.5,316.5 C 220.167,316.5 282.833,316.5 345.5,316.5C 345.5,320.167 345.5,323.833 345.5,327.5C 311.832,327.333 278.165,327.5 244.5,328C 241.603,329.715 240.269,332.215 240.5,335.5C 233.833,335.5 227.167,335.5 220.5,335.5C 220.412,331.411 218.412,328.744 214.5,327.5C 195.674,326.503 176.674,326.17 157.5,326.5C 157.5,323.167 157.5,319.833 157.5,316.5 Z"/></g>
<g><path style="opacity:1" fill="#dae5f4" d="M 463.5,316.5 C 474.5,316.5 485.5,316.5 496.5,316.5C 496.789,320.106 496.456,323.606 495.5,327C 484.839,327.5 474.172,327.667 463.5,327.5C 463.5,323.833 463.5,320.167 463.5,316.5 Z"/></g>
</svg>
