<?xml version="1.0" encoding="UTF-8"?>
<!DOCTYPE svg PUBLIC "-//W3C//DTD SVG 1.1//EN" "http://www.w3.org/Graphics/SVG/1.1/DTD/svg11.dtd">
<svg xmlns="http://www.w3.org/2000/svg" version="1.1" width="512px" height="512px" style="shape-rendering:geometricPrecision; text-rendering:geometricPrecision; image-rendering:optimizeQuality; fill-rule:evenodd; clip-rule:evenodd" xmlns:xlink="http://www.w3.org/1999/xlink">
<g><path style="opacity:0.983" fill="#080503" d="M 511.5,441.5 C 511.5,448.167 511.5,454.833 511.5,461.5C 509.377,466.454 505.71,469.954 500.5,472C 486.821,472.167 473.154,472.667 459.5,473.5C 445.344,503.079 422.011,514.912 389.5,509C 370.678,503.344 357.345,491.511 349.5,473.5C 279.836,472.333 210.169,472.167 140.5,473C 124.259,505.281 98.5921,516.614 63.5,507C 47.6968,500.363 36.3634,489.197 29.5,473.5C 23.1928,472.669 16.8594,472.169 10.5,472C 5.28997,469.954 1.62331,466.454 -0.5,461.5C -0.5,454.833 -0.5,448.167 -0.5,441.5C 1.69608,438.468 3.69608,435.301 5.5,432C 3.0866,421.647 2.0866,411.147 2.5,400.5C 0.882177,383.625 4.38218,367.958 13,353.5C 22.5823,339.337 31.9156,325.004 41,310.5C 51.5492,296.952 64.7158,286.785 80.5,280C 133.158,261.816 187.158,256.149 242.5,263C 258.4,264.817 274.067,267.817 289.5,272C 304.33,277.257 317.664,284.924 329.5,295C 340.734,306.48 352.401,317.48 364.5,328C 375.254,328.769 382.588,334.103 386.5,344C 410.427,349.315 434.427,354.315 458.5,359C 482.563,363.397 497.063,377.563 502,401.5C 502.333,411.833 502.667,422.167 503,432.5C 506.743,434.74 509.576,437.74 511.5,441.5 Z"/></g>
<g><path style="opacity:1" fill="#f74453" d="M 84.5,308.5 C 88.5547,301.607 93.8881,295.774 100.5,291C 99.9056,290.536 99.2389,290.369 98.5,290.5C 136.824,278.623 176.157,273.79 216.5,276C 232.572,277.415 248.572,279.415 264.5,282C 281.671,284.757 297.337,291.09 311.5,301C 322.439,310.619 333.106,320.453 343.5,330.5C 344.521,331.002 344.688,331.668 344,332.5C 340.996,334.339 338.496,336.673 336.5,339.5C 324.06,329.896 312.06,319.73 300.5,309C 289.497,300.884 277.163,295.884 263.5,294C 209.588,283.697 156.255,286.031 103.5,301C 96.9169,302.962 90.5836,305.462 84.5,308.5 Z"/></g>
<g><path style="opacity:1" fill="#f72c38" d="M 98.5,290.5 C 99.2389,290.369 99.9056,290.536 100.5,291C 93.8881,295.774 88.5547,301.607 84.5,308.5C 75.6308,313.531 68.1308,320.197 62,328.5C 59.2015,333.192 58.7015,338.192 60.5,343.5C 57.6337,349.562 54.467,355.562 51,361.5C 49.1663,370.919 47.6663,380.252 46.5,389.5C 48.8211,373.955 42.4878,364.122 27.5,360C 36,346.833 44.5,333.667 53,320.5C 64.5889,305.078 79.7556,295.078 98.5,290.5 Z"/></g>
<g><path style="opacity:1" fill="#5fb6fc" d="M 222.5,303.5 C 222.5,322.167 222.5,340.833 222.5,359.5C 196.759,359.824 171.092,359.49 145.5,358.5C 142.994,341.475 140.327,324.475 137.5,307.5C 165.662,302.659 193.995,301.325 222.5,303.5 Z"/></g>
<g><path style="opacity:1" fill="#22a7fc" d="M 238.5,305.5 C 254.413,306.557 269.747,310.057 284.5,316C 301.024,329.698 317.358,343.531 333.5,357.5C 302.184,359.493 270.518,360.159 238.5,359.5C 238.5,341.5 238.5,323.5 238.5,305.5 Z"/></g>
<g><path style="opacity:1" fill="#22a5f9" d="M 130.5,359.5 C 125.821,359.666 121.155,359.499 116.5,359C 109.031,350.53 101.198,342.363 93,334.5C 92.2189,333.271 91.7189,331.938 91.5,330.5C 93.433,326.966 95.0997,323.3 96.5,319.5C 105.06,315.487 113.894,313.154 123,312.5C 125.934,328.105 128.434,343.771 130.5,359.5 Z"/></g>
<g><path style="opacity:1" fill="#028ff3" d="M 96.5,319.5 C 95.0997,323.3 93.433,326.966 91.5,330.5C 91.7189,331.938 92.2189,333.271 93,334.5C 101.198,342.363 109.031,350.53 116.5,359C 121.155,359.499 125.821,359.666 130.5,359.5C 121.343,360.658 112.009,360.824 102.5,360C 93.6857,352.687 85.019,345.187 76.5,337.5C 75.4173,336.635 75.2506,335.635 76,334.5C 81.5621,327.648 88.3954,322.648 96.5,319.5 Z"/></g>
<g><path style="opacity:1" fill="#aed6f6" d="M 361.5,344.5 C 360.538,351.412 360.205,358.412 360.5,365.5C 362.833,365.5 365.167,365.5 367.5,365.5C 362.684,366.65 357.684,366.816 352.5,366C 351.667,365.167 350.833,364.333 350,363.5C 349.333,357.833 349.333,352.167 350,346.5C 350.5,346 351,345.5 351.5,345C 354.817,344.502 358.15,344.335 361.5,344.5 Z"/></g>
<g><path style="opacity:1" fill="#dbe7f6" d="M 361.5,344.5 C 365.287,343.814 368.454,344.814 371,347.5C 371.667,352.5 371.667,357.5 371,362.5C 370.578,364.426 369.411,365.426 367.5,365.5C 365.167,365.5 362.833,365.5 360.5,365.5C 360.205,358.412 360.538,351.412 361.5,344.5 Z"/></g>
<g><path style="opacity:1" fill="#fd4655" d="M 60.5,343.5 C 72.7099,354.543 85.3766,365.043 98.5,375C 179.5,375.333 260.5,375.667 341.5,376C 344.048,378.442 347.048,380.108 350.5,381C 359.038,382.158 367.371,381.492 375.5,379C 382.286,374.708 385.953,368.542 386.5,360.5C 408.442,365.088 430.442,369.422 452.5,373.5C 452.334,382.506 452.5,391.506 453,400.5C 455.5,408.333 460.667,413.5 468.5,416C 474.825,416.5 481.158,416.666 487.5,416.5C 487.5,421.5 487.5,426.5 487.5,431.5C 478.143,431.832 468.81,431.498 459.5,430.5C 448.574,405.934 429.574,393.268 402.5,392.5C 377.2,394.64 359.533,407.306 349.5,430.5C 279.503,431.5 209.503,431.833 139.5,431.5C 131.559,410.005 116.226,397.172 93.5,393C 75.2786,390.719 59.2786,395.552 45.5,407.5C 45.8168,403.298 45.4834,399.298 44.5,395.5C 44.8751,393.302 45.5418,391.302 46.5,389.5C 47.6663,380.252 49.1663,370.919 51,361.5C 54.467,355.562 57.6337,349.562 60.5,343.5 Z"/></g>
<g><path style="opacity:1" fill="#3e76a2" d="M 222.5,303.5 C 223.497,322.326 223.83,341.326 223.5,360.5C 197.145,361.158 171.145,360.491 145.5,358.5C 171.092,359.49 196.759,359.824 222.5,359.5C 222.5,340.833 222.5,322.167 222.5,303.5 Z"/></g>
<g><path style="opacity:1" fill="#1974ae" d="M 238.5,305.5 C 238.5,323.5 238.5,341.5 238.5,359.5C 270.518,360.159 302.184,359.493 333.5,357.5C 334.404,358.209 334.737,359.209 334.5,360.5C 302.167,360.5 269.833,360.5 237.5,360.5C 237.17,341.992 237.503,323.659 238.5,305.5 Z"/></g>
<g><path style="opacity:1" fill="#f6cb01" d="M 19.5,375.5 C 30.3374,374.182 34.1707,378.848 31,389.5C 30.1667,390.333 29.3333,391.167 28.5,392C 25.1832,392.498 21.8499,392.665 18.5,392.5C 18.313,386.788 18.6463,381.121 19.5,375.5 Z"/></g>
<g><path style="opacity:1" fill="#6f5b01" d="M 468.5,378.5 C 467.51,384.645 467.177,390.978 467.5,397.5C 466.182,390.989 466.182,384.322 467.5,377.5C 468.107,377.624 468.44,377.957 468.5,378.5 Z"/></g>
<g><path style="opacity:1" fill="#f9ce01" d="M 468.5,378.5 C 476.771,383.367 482.438,390.367 485.5,399.5C 480.695,400.487 475.695,400.821 470.5,400.5C 469.167,399.833 468.167,398.833 467.5,397.5C 467.177,390.978 467.51,384.645 468.5,378.5 Z"/></g>
<g><path style="opacity:1" fill="#0b0503" d="M 156.5,388.5 C 161.959,388.103 167.292,388.603 172.5,390C 176.875,395.121 176.209,399.455 170.5,403C 165.5,403.667 160.5,403.667 155.5,403C 149.954,397.676 150.288,392.843 156.5,388.5 Z"/></g>
<g><path style="opacity:1" fill="#0b0503" d="M 250.5,388.5 C 255.959,388.103 261.292,388.603 266.5,390C 270.875,395.121 270.209,399.455 264.5,403C 259.5,403.667 254.5,403.667 249.5,403C 243.954,397.676 244.288,392.843 250.5,388.5 Z"/></g>
<g><path style="opacity:1" fill="#f52c37" d="M 44.5,395.5 C 45.4834,399.298 45.8168,403.298 45.5,407.5C 38.5668,413.941 33.4001,421.608 30,430.5C 27.2809,431.444 24.4475,431.777 21.5,431.5C 19.0782,423.693 18.0782,415.693 18.5,407.5C 30.0496,409.388 38.7163,405.388 44.5,395.5 Z"/></g>
<g><path style="opacity:1" fill="#9e8201" d="M 485.5,399.5 C 486.043,399.56 486.376,399.893 486.5,400.5C 481.014,401.815 475.68,401.815 470.5,400.5C 475.695,400.821 480.695,400.487 485.5,399.5 Z"/></g>
<g><path style="opacity:1" fill="#524c53" d="M 91.5,408.5 C 84.248,408.552 78.4146,411.552 74,417.5C 73.3083,418.437 73.475,419.103 74.5,419.5C 55.0914,428.2 48.2581,442.866 54,463.5C 57.7129,472.378 63.8796,478.711 72.5,482.5C 72.0618,482.435 71.7284,482.601 71.5,483C 74.8333,486.333 78.1667,489.667 81.5,493C 84.3508,494.289 87.3508,494.789 90.5,494.5C 65.5293,496.066 49.3627,484.733 42,460.5C 39.3728,429.299 53.5395,411.633 84.5,407.5C 87.0254,407.503 89.3587,407.837 91.5,408.5 Z"/></g>
<g><path style="opacity:1" fill="#635c65" d="M 91.5,408.5 C 114.002,413.001 126.335,426.668 128.5,449.5C 128.432,469.494 119.432,483.661 101.5,492C 97.9296,493.31 94.263,494.143 90.5,494.5C 87.3508,494.789 84.3508,494.289 81.5,493C 78.1667,489.667 74.8333,486.333 71.5,483C 71.7284,482.601 72.0618,482.435 72.5,482.5C 90.0464,487.487 103.88,482.487 114,467.5C 122.806,443.618 115.306,427.452 91.5,419C 85.7963,418.313 80.1296,418.479 74.5,419.5C 73.475,419.103 73.3083,418.437 74,417.5C 78.4146,411.552 84.248,408.552 91.5,408.5 Z"/></g>
<g><path style="opacity:1" fill="#524c53" d="M 409.5,408.5 C 406.436,408.144 403.769,408.977 401.5,411C 398.833,413.667 396.167,416.333 393.5,419C 393.728,419.399 394.062,419.565 394.5,419.5C 371.041,431.046 365.541,448.379 378,471.5C 382.629,476.879 388.129,480.879 394.5,483.5C 393.475,483.897 393.308,484.563 394,485.5C 398.031,490.756 403.198,493.756 409.5,494.5C 385.909,495.796 370.076,485.129 362,462.5C 358.072,434.09 369.905,415.924 397.5,408C 401.689,407.188 405.689,407.355 409.5,408.5 Z"/></g>
<g><path style="opacity:1" fill="#635c65" d="M 409.5,408.5 C 426.227,410.383 438.06,419.049 445,434.5C 453.181,463.305 443.348,483.138 415.5,494C 413.527,494.495 411.527,494.662 409.5,494.5C 403.198,493.756 398.031,490.756 394,485.5C 393.308,484.563 393.475,483.897 394.5,483.5C 420.394,487.101 434.728,475.934 437.5,450C 435.77,433.931 427.104,423.597 411.5,419C 405.782,418.26 400.115,418.427 394.5,419.5C 394.062,419.565 393.728,419.399 393.5,419C 396.167,416.333 398.833,413.667 401.5,411C 403.769,408.977 406.436,408.144 409.5,408.5 Z"/></g>
<g><path style="opacity:1" fill="#070605" d="M 72.5,482.5 C 63.8796,478.711 57.7129,472.378 54,463.5C 48.2581,442.866 55.0914,428.2 74.5,419.5C 80.1296,418.479 85.7963,418.313 91.5,419C 115.306,427.452 122.806,443.618 114,467.5C 103.88,482.487 90.0464,487.487 72.5,482.5 Z"/></g>
<g><path style="opacity:1" fill="#070604" d="M 394.5,483.5 C 388.129,480.879 382.629,476.879 378,471.5C 365.541,448.379 371.041,431.046 394.5,419.5C 400.115,418.427 405.782,418.26 411.5,419C 427.104,423.597 435.77,433.931 437.5,450C 434.728,475.934 420.394,487.101 394.5,483.5 Z"/></g>
<g><path style="opacity:1" fill="#aed7f7" d="M 92.5,435.5 C 85.5478,444.58 84.7145,454.247 90,464.5C 91.1096,466.037 92.6096,466.703 94.5,466.5C 83.1547,472.421 74.3213,469.754 68,458.5C 64.4928,443.833 70.1595,435.5 85,433.5C 87.8655,433.3 90.3655,433.967 92.5,435.5 Z"/></g>
<g><path style="opacity:1" fill="#afd8f8" d="M 412.5,435.5 C 405.833,446.167 405.833,456.833 412.5,467.5C 402.101,471.756 393.934,469.089 388,459.5C 383.717,445.052 388.884,436.385 403.5,433.5C 406.785,433.447 409.785,434.114 412.5,435.5 Z"/></g>
<g><path style="opacity:1" fill="#dce9f8" d="M 92.5,435.5 C 102.834,441.688 105.334,450.354 100,461.5C 98.2962,463.373 96.4628,465.04 94.5,466.5C 92.6096,466.703 91.1096,466.037 90,464.5C 84.7145,454.247 85.5478,444.58 92.5,435.5 Z"/></g>
<g><path style="opacity:1" fill="#dbe7f6" d="M 412.5,435.5 C 423.258,442.189 425.425,451.189 419,462.5C 417.242,464.765 415.075,466.432 412.5,467.5C 405.833,456.833 405.833,446.167 412.5,435.5 Z"/></g>
<g><path style="opacity:1" fill="#a9d1f0" d="M 14.5,446.5 C 18.5,446.5 22.5,446.5 26.5,446.5C 26.5,450.167 26.5,453.833 26.5,457.5C 22.8183,457.665 19.1516,457.499 15.5,457C 14.5442,453.606 14.2108,450.106 14.5,446.5 Z"/></g>
<g><path style="opacity:1" fill="#acc9e2" d="M 157.5,446.5 C 157.5,449.833 157.5,453.167 157.5,456.5C 220.167,456.5 282.833,456.5 345.5,456.5C 278.335,457.499 211.002,457.832 143.5,457.5C 143.5,453.833 143.5,450.167 143.5,446.5C 148.167,446.5 152.833,446.5 157.5,446.5 Z"/></g>
<g><path style="opacity:1" fill="#deebf9" d="M 157.5,446.5 C 220.167,446.5 282.833,446.5 345.5,446.5C 345.5,449.833 345.5,453.167 345.5,456.5C 282.833,456.5 220.167,456.5 157.5,456.5C 157.5,453.167 157.5,449.833 157.5,446.5 Z"/></g>
<g><path style="opacity:1" fill="#dae5f4" d="M 463.5,446.5 C 474.5,446.5 485.5,446.5 496.5,446.5C 496.789,450.106 496.456,453.606 495.5,457C 484.839,457.5 474.172,457.667 463.5,457.5C 463.5,453.833 463.5,450.167 463.5,446.5 Z"/></g>
</svg>
