<?xml version="1.0" encoding="UTF-8"?>
<svg version="1.1" xmlns="http://www.w3.org/2000/svg" width="512" height="512">
<path d="M0 0 C1.01790619 0.00215515 2.03581238 0.0043103 3.08456421 0.00653076 C17.69363523 0.05620146 32.02575853 0.30709809 46.375 3.3125 C47.34985352 3.51117676 48.32470703 3.70985352 49.32910156 3.91455078 C108.89482498 16.37463238 165.24866419 48.2648637 202.375 97.3125 C202.79023926 97.85132812 203.20547852 98.39015625 203.63330078 98.9453125 C228.13415115 130.81517547 244.62642134 167.36831241 252.6875 206.75 C252.83485596 207.46889404 252.98221191 208.18778809 253.1340332 208.9284668 C256.10789088 224.57475609 256.74800362 240.04818046 256.6875 255.9375 C256.68534485 256.95540619 256.6831897 257.97331238 256.68096924 259.02206421 C256.63129854 273.63113523 256.38040191 287.96325853 253.375 302.3125 C253.07698486 303.77478027 253.07698486 303.77478027 252.77294922 305.26660156 C242.52138226 354.27446698 220.18217348 398.27864199 185.375 434.3125 C184.77606934 434.93334473 184.17713867 435.55418945 183.56005859 436.19384766 C175.89623497 444.09500259 168.15501606 451.64016955 159.375 458.3125 C158.83472168 458.72918945 158.29444336 459.14587891 157.73779297 459.57519531 C125.8687531 484.07334707 89.31685217 500.56439938 49.9375 508.625 C49.21860596 508.77235596 48.49971191 508.91971191 47.7590332 509.0715332 C33.08339502 511.86090125 18.55831162 512.66142619 3.64770508 512.62817383 C0.70811513 512.6250221 -2.2304558 512.64854926 -5.16992188 512.67382812 C-18.54306192 512.71848737 -31.43916711 511.51301542 -44.625 509.3125 C-46.33055054 509.03031616 -46.33055054 509.03031616 -48.07055664 508.74243164 C-50.6662622 508.27617402 -53.23774939 507.7574418 -55.8125 507.1875 C-57.20142456 506.88054199 -57.20142456 506.88054199 -58.6184082 506.56738281 C-103.71300222 496.08183329 -144.40193368 473.34639441 -177.625 441.3125 C-178.58889648 440.38945068 -178.58889648 440.38945068 -179.57226562 439.44775391 C-188.74836539 430.62136647 -197.09816554 421.58141996 -204.625 411.3125 C-205.26211914 410.45857666 -205.26211914 410.45857666 -205.91210938 409.58740234 C-212.42768015 400.84658179 -218.26088547 391.80163672 -223.625 382.3125 C-224.0271875 381.60528809 -224.429375 380.89807617 -224.84375 380.16943359 C-237.8691741 357.03404164 -246.61801461 331.86287591 -251.9375 305.875 C-252.08485596 305.15610596 -252.23221191 304.43721191 -252.3840332 303.6965332 C-255.35789088 288.05024391 -255.99800362 272.57681954 -255.9375 256.6875 C-255.93534485 255.66959381 -255.9331897 254.65168762 -255.93096924 253.60293579 C-255.88129854 238.99386477 -255.63040191 224.66174147 -252.625 210.3125 C-252.42632324 209.33764648 -252.22764648 208.36279297 -252.02294922 207.35839844 C-241.90232806 158.9765226 -219.9858123 114.98821731 -185.625 79.3125 C-184.99287598 78.65314453 -184.36075195 77.99378906 -183.70947266 77.31445312 C-174.56502521 67.82619695 -165.26765991 59.0862956 -154.625 51.3125 C-153.47394983 50.45443848 -152.32290823 49.59636549 -151.171875 48.73828125 C-142.98224019 42.70072604 -134.47961724 37.31792698 -125.625 32.3125 C-124.91778809 31.9103125 -124.21057617 31.508125 -123.48193359 31.09375 C-100.34654164 18.0683259 -75.17537591 9.31948539 -49.1875 4 C-48.46860596 3.85264404 -47.74971191 3.70528809 -47.0090332 3.5534668 C-31.36274391 0.57960912 -15.88931954 -0.06050362 0 0 Z " fill="#25D366" transform="translate(255.625,-0.3125)"/>
<path d="M0 0 C0.82315201 -0.0096579 1.64630402 -0.0193158 2.49440002 -0.02926636 C5.13693794 -0.05395003 7.7792345 -0.06663727 10.421875 -0.07421875 C11.32038177 -0.07716949 12.21888855 -0.08012024 13.1446228 -0.0831604 C26.26643087 -0.09299123 38.49452406 0.59904171 51.171875 4.23828125 C52.68587891 4.59599609 52.68587891 4.59599609 54.23046875 4.9609375 C80.21249088 11.25846681 104.71955484 25.08766164 124.171875 43.23828125 C124.81656738 43.83382812 125.46125977 44.429375 126.12548828 45.04296875 C143.74057569 61.46951701 156.5702018 80.55839899 166.484375 102.42578125 C166.95484253 103.45735352 166.95484253 103.45735352 167.43481445 104.50976562 C184.98820973 144.58352388 182.86236703 190.71723125 167.51513672 230.94726562 C159.10860944 251.54341024 146.96935347 268.83214572 132.171875 285.23828125 C131.49640625 285.98722656 130.8209375 286.73617188 130.125 287.5078125 C124.11393041 293.8142979 117.15147086 299.05963429 110.171875 304.23828125 C109.31577637 304.87685059 109.31577637 304.87685059 108.44238281 305.52832031 C90.14045735 318.97356021 68.67051679 328.02629775 46.609375 332.98828125 C45.67544922 333.19952637 44.74152344 333.41077148 43.77929688 333.62841797 C20.24145559 338.62589753 -5.52380589 337.96553415 -28.828125 332.23828125 C-29.58480469 332.0563623 -30.34148437 331.87444336 -31.12109375 331.68701172 C-43.13337395 328.71317509 -55.0290981 324.19874878 -65.82714844 318.11132812 C-70.95269484 315.87499895 -78.59487309 318.76136456 -83.890625 320.05078125 C-84.99688232 320.31580444 -84.99688232 320.31580444 -86.12548828 320.58618164 C-92.72339796 322.18153724 -99.27993552 323.92259498 -105.83105469 325.69970703 C-111.93038494 327.34458754 -118.04476569 328.93388435 -124.15527344 330.53662109 C-126.02852002 331.02837399 -127.90154859 331.52095776 -129.77441406 332.01416016 C-132.83355305 332.81968463 -135.89328656 333.62291824 -138.953125 334.42578125 C-139.90058594 334.67569824 -140.84804687 334.92561523 -141.82421875 335.18310547 C-147.46918308 336.66121583 -153.12395935 338.00762793 -158.828125 339.23828125 C-155.71700202 325.50762676 -152.11549451 311.97056009 -148.12890625 298.46875 C-144.60355803 286.52451617 -141.12940846 274.57911957 -138.36669922 262.43041992 C-137.828125 260.23828125 -137.828125 260.23828125 -137.09033203 258.0246582 C-135.35213611 252.32155378 -136.19042082 249.14242677 -138.90405273 243.89477539 C-139.37399658 243.03875732 -139.84394043 242.18273926 -140.328125 241.30078125 C-147.43793569 227.40729797 -151.94200634 213.58398537 -154.828125 198.23828125 C-154.99658936 197.59842285 -155.16505371 196.95856445 -155.33862305 196.29931641 C-157.35631715 188.05058748 -157.16479878 179.71181942 -157.14379883 171.27294922 C-157.14065673 168.6398708 -157.16409379 166.00793877 -157.18945312 163.375 C-157.22945556 152.61668225 -156.22941104 142.73359473 -153.828125 132.23828125 C-153.53404689 130.87957033 -153.24116849 129.52059921 -152.94946289 128.16137695 C-146.5063057 98.90170296 -130.85706375 73.15836443 -110.828125 51.23828125 C-110.08046875 50.4184375 -109.3328125 49.59859375 -108.5625 48.75390625 C-81.33059347 20.31169277 -39.48409556 0.38769366 0 0 Z " fill="#25D366" transform="translate(245.828125,87.76171875)"/>
<path d="M0 0 C0.82315201 -0.0096579 1.64630402 -0.0193158 2.49440002 -0.02926636 C5.13693794 -0.05395003 7.7792345 -0.06663727 10.421875 -0.07421875 C11.32038177 -0.07716949 12.21888855 -0.08012024 13.1446228 -0.0831604 C26.26643087 -0.09299123 38.49452406 0.59904171 51.171875 4.23828125 C52.68587891 4.59599609 52.68587891 4.59599609 54.23046875 4.9609375 C80.21249088 11.25846681 104.71955484 25.08766164 124.171875 43.23828125 C124.81656738 43.83382812 125.46125977 44.429375 126.12548828 45.04296875 C143.74057569 61.46951701 156.5702018 80.55839899 166.484375 102.42578125 C166.95484253 103.45735352 166.95484253 103.45735352 167.43481445 104.50976562 C184.98820973 144.58352388 182.86236703 190.71723125 167.51513672 230.94726562 C159.10860944 251.54341024 146.96935347 268.83214572 132.171875 285.23828125 C131.49640625 285.98722656 130.8209375 286.73617188 130.125 287.5078125 C124.11393041 293.8142979 117.15147086 299.05963429 110.171875 304.23828125 C109.31577637 304.87685059 109.31577637 304.87685059 108.44238281 305.52832031 C90.14045735 318.97356021 68.67051679 328.02629775 46.609375 332.98828125 C45.67544922 333.19952637 44.74152344 333.41077148 43.77929688 333.62841797 C20.24145559 338.62589753 -5.52380589 337.96553415 -28.828125 332.23828125 C-29.58480469 332.0563623 -30.34148437 331.87444336 -31.12109375 331.68701172 C-43.13337395 328.71317509 -55.0290981 324.19874878 -65.82714844 318.11132812 C-70.95269484 315.87499895 -78.59487309 318.76136456 -83.890625 320.05078125 C-84.99688232 320.31580444 -84.99688232 320.31580444 -86.12548828 320.58618164 C-92.72339796 322.18153724 -99.27993552 323.92259498 -105.83105469 325.69970703 C-111.93038494 327.34458754 -118.04476569 328.93388435 -124.15527344 330.53662109 C-126.02852002 331.02837399 -127.90154859 331.52095776 -129.77441406 332.01416016 C-132.83355305 332.81968463 -135.89328656 333.62291824 -138.953125 334.42578125 C-139.90058594 334.67569824 -140.84804687 334.92561523 -141.82421875 335.18310547 C-147.46918308 336.66121583 -153.12395935 338.00762793 -158.828125 339.23828125 C-155.71700202 325.50762676 -152.11549451 311.97056009 -148.12890625 298.46875 C-144.60355803 286.52451617 -141.12940846 274.57911957 -138.36669922 262.43041992 C-137.828125 260.23828125 -137.828125 260.23828125 -137.09033203 258.0246582 C-135.35213611 252.32155378 -136.19042082 249.14242677 -138.90405273 243.89477539 C-139.37399658 243.03875732 -139.84394043 242.18273926 -140.328125 241.30078125 C-147.43793569 227.40729797 -151.94200634 213.58398537 -154.828125 198.23828125 C-154.99658936 197.59842285 -155.16505371 196.95856445 -155.33862305 196.29931641 C-157.35631715 188.05058748 -157.16479878 179.71181942 -157.14379883 171.27294922 C-157.14065673 168.6398708 -157.16409379 166.00793877 -157.18945312 163.375 C-157.22945556 152.61668225 -156.22941104 142.73359473 -153.828125 132.23828125 C-153.53404689 130.87957033 -153.24116849 129.52059921 -152.94946289 128.16137695 C-146.5063057 98.90170296 -130.85706375 73.15836443 -110.828125 51.23828125 C-110.08046875 50.4184375 -109.3328125 49.59859375 -108.5625 48.75390625 C-81.33059347 20.31169277 -39.48409556 0.38769366 0 0 Z M-19.828125 31.23828125 C-21.06820312 31.52832031 -22.30828125 31.81835938 -23.5859375 32.1171875 C-61.54180236 41.43079294 -91.90454191 66.72650425 -111.953125 99.80078125 C-129.5391896 131.55537563 -134.39296385 170.59982838 -124.3515625 205.57421875 C-120.37175627 218.54448781 -114.99114491 230.62450445 -107.765625 242.11328125 C-104.09098783 248.76499735 -106.39792086 254.94954972 -108.39453125 261.88793945 C-109.03355325 264.04890891 -109.68818752 266.20456093 -110.34765625 268.359375 C-112.04154759 273.9022856 -113.6397286 279.46978228 -115.203125 285.05078125 C-115.47793701 285.99985352 -115.75274902 286.94892578 -116.03588867 287.92675781 C-116.28443604 288.81975586 -116.5329834 289.71275391 -116.7890625 290.6328125 C-117.12623291 291.82161011 -117.12623291 291.82161011 -117.47021484 293.03442383 C-117.85929726 295.43022669 -117.58246682 296.95211047 -116.828125 299.23828125 C-98.69592991 294.8446715 -98.69592991 294.8446715 -80.703125 289.92578125 C-79.14851563 289.49265625 -79.14851563 289.49265625 -77.5625 289.05078125 C-74.84130252 288.28867001 -74.84130252 288.28867001 -72.34375 287.23828125 C-67.8667379 285.71668237 -65.65231557 285.85620615 -61.2890625 287.87890625 C-59.2567731 289.0220371 -57.26349859 290.21527602 -55.27392578 291.43115234 C-27.26094051 308.53826925 9.48090813 312.57342291 41.171875 305.23828125 C78.49096014 295.22990545 110.15722018 274.52767352 130.49609375 241.1796875 C144.17769085 217.16513595 150.36769253 194.15923739 150.546875 166.61328125 C150.55500214 165.8745578 150.56312927 165.13583435 150.57150269 164.37472534 C150.68497196 150.58562502 149.03804086 137.33066789 144.484375 124.23828125 C144.23018799 123.49610352 143.97600098 122.75392578 143.71411133 121.98925781 C130.85767788 85.77113401 103.71647921 56.68693227 69.21435547 40.19042969 C42.03216957 27.51883932 9.32611378 23.5365379 -19.828125 31.23828125 Z " fill="#FCFEFD" transform="translate(245.828125,87.76171875)"/>
<path d="M0 0 C0.70318359 -0.03287109 1.40636719 -0.06574219 2.13085938 -0.09960938 C5.8717685 -0.13817545 7.71884106 0.1497863 10.61499023 2.57446289 C13.18222035 5.57754594 14.56031663 8.166124 16.0703125 11.8046875 C16.58207031 13.02027344 17.09382813 14.23585937 17.62109375 15.48828125 C18.14354924 16.76288968 18.66568232 18.03763032 19.1875 19.3125 C19.7163133 20.57990109 20.24625255 21.846833 20.77734375 23.11328125 C21.75850841 25.45672727 22.73168167 27.80289483 23.69970703 30.15185547 C24.41271552 31.87089312 25.13120698 33.58836781 25.90252686 35.28204346 C27.98675661 39.89171697 28.41217324 42.48869812 27.0625 47.4375 C25.30366786 50.60339785 23.38239683 53.07551148 20.984375 55.7890625 C20.24703125 56.64242187 19.5096875 57.49578125 18.75 58.375 C18.03199219 59.16777344 17.31398437 59.96054688 16.57421875 60.77734375 C14.48523486 64.45330765 14.9920908 66.40562535 16.0625 70.4375 C26.59897713 91.25065071 45.62571031 106.2218337 66.0625 116.4375 C66.6620752 116.73914063 67.26165039 117.04078125 67.87939453 117.3515625 C71.74928623 119.16819386 74.81372962 120.17164128 79.0625 119.4375 C81.71591384 117.36863289 81.71591384 117.36863289 84 114.5 C84.85335937 113.50355469 85.70671875 112.50710938 86.5859375 111.48046875 C89.36823567 108.06184055 92.12640617 104.63299348 94.78515625 101.1171875 C96.0625 99.4375 96.0625 99.4375 97.0625 98.4375 C102.68319879 98.84000299 107.03444277 100.50664511 112.078125 102.9296875 C113.18459381 103.44959763 113.18459381 103.44959763 114.31341553 103.98001099 C115.86179757 104.71018521 117.40802038 105.44495424 118.95214844 106.18408203 C121.31411001 107.3132697 123.68365008 108.42517328 126.0546875 109.53515625 C127.56297785 110.24899121 129.07080708 110.96380147 130.578125 111.6796875 C131.28439026 112.01104706 131.99065552 112.34240662 132.71832275 112.68380737 C138.97762668 115.69867126 138.97762668 115.69867126 141.0625 118.4375 C142.94390451 127.21738773 139.53953651 137.38416753 135 144.8125 C122.78186571 155.73083277 110.4841025 159.45100811 94.3984375 158.875 C86.47393893 158.36647603 79.43253737 156.29165352 72.0625 153.4375 C70.81702393 152.96280273 70.81702393 152.96280273 69.54638672 152.47851562 C47.0114045 143.73918734 29.56413211 130.9038243 12.0625 114.4375 C11.35351562 113.78265625 10.64453125 113.1278125 9.9140625 112.453125 C3.56865433 106.39261271 -1.68934701 99.44021812 -6.9375 92.4375 C-7.44394043 91.76477051 -7.95038086 91.09204102 -8.47216797 90.39892578 C-21.61052115 72.80549523 -32.09331619 55.23101721 -29.9375 32.4375 C-27.34710526 20.18800625 -20.67954817 8.4024322 -10.19140625 1.24609375 C-6.83497131 0.04196544 -3.52279728 0.02890171 0 0 Z " fill="#FDFEFD" transform="translate(200.9375,177.5625)"/>
</svg>
