<?xml version="1.0" encoding="UTF-8"?>
<svg version="1.1" xmlns="http://www.w3.org/2000/svg" width="512" height="512">
<path d="M0 0 C6.41822402 3.81657298 10.49565752 8.85289115 12.48046875 16.08984375 C12.72656441 19.21758842 12.72656441 19.21758842 12.72097778 22.61984253 C12.72510178 24.56326286 12.72510178 24.56326286 12.72930908 26.54594421 C12.72223213 27.96926974 12.71496253 29.39259431 12.70751953 30.81591797 C12.706955 32.3241729 12.70727279 33.83242837 12.70840454 35.34068298 C12.70897743 39.42495658 12.69723348 43.50911227 12.68325663 47.59335852 C12.67073862 51.86546573 12.66957792 56.13757576 12.66720581 60.40969849 C12.66099419 68.49499002 12.64458767 76.58022735 12.62450683 84.66549504 C12.60213794 93.87222285 12.59115191 103.07895328 12.58111596 112.28570151 C12.56022117 131.2204463 12.52505136 150.15514066 12.48046875 169.08984375 C13.26069366 169.08615658 14.04091856 169.08246941 14.84478664 169.0786705 C33.84992673 168.99024293 52.85502563 168.92409693 71.86032772 168.88259506 C81.05124752 168.8619904 90.24202981 168.83390996 99.43286133 168.78808594 C107.44578523 168.7481539 115.45860951 168.72239571 123.47163016 168.71348977 C127.71251961 168.70828577 131.95312412 168.69609847 136.19392204 168.66692352 C140.19041313 168.6396536 144.18650347 168.63142194 148.18307877 168.63741302 C149.64513519 168.63631794 151.10720583 168.62843298 152.56918144 168.61302185 C161.36119532 168.5249349 169.65138932 168.4917794 176.34934902 174.86931992 C182.08556341 181.16102555 182.99172015 186.10500402 182.859375 194.6015625 C182.1692508 200.95497397 179.14094426 204.75508781 174.54296875 208.96484375 C169.491283 212.47009508 165.03640799 213.34034611 158.95046997 213.33035278 C157.65485641 213.33310211 156.35924286 213.33585144 155.02436829 213.33868408 C153.60104276 213.33160713 152.17771819 213.32433753 150.75439453 213.31689453 C149.2461396 213.31633 147.73788413 213.31664779 146.22962952 213.31777954 C142.14535592 213.31835243 138.06120023 213.30660848 133.97695398 213.29263163 C129.70484677 213.28011362 125.43273674 213.27895292 121.16061401 213.27658081 C113.07532248 213.27036919 104.99008515 213.25396267 96.90481746 213.23388183 C87.69808965 213.21151294 78.49135922 213.20052691 69.28461099 213.19049096 C50.3498662 213.16959617 31.41517184 213.13442636 12.48046875 213.08984375 C12.48599951 214.26018111 12.48599951 214.26018111 12.491642 215.45416164 C12.58006957 234.45930173 12.64621557 253.46440063 12.68771744 272.46970272 C12.7083221 281.66062252 12.73640254 290.85140481 12.78222656 300.04223633 C12.8221586 308.05516023 12.84791679 316.06798451 12.85682273 324.08100516 C12.86202673 328.32189461 12.87421403 332.56249912 12.90338898 336.80329704 C12.9306589 340.79978813 12.93889056 344.79587847 12.93289948 348.79245377 C12.93399456 350.25451019 12.94187952 351.71658083 12.95729065 353.17855644 C13.0453776 361.97057032 13.0785331 370.26076432 6.70099258 376.95872402 C0.40928695 382.69493841 -4.53469152 383.60109515 -13.03125 383.46875 C-19.38466147 382.7786258 -23.18477531 379.75031926 -27.39453125 375.15234375 C-30.89978258 370.100658 -31.77003361 365.64578299 -31.76004028 359.55984497 C-31.76416428 357.61642464 -31.76416428 357.61642464 -31.76837158 355.63374329 C-31.76129463 354.21041776 -31.75402503 352.78709319 -31.74658203 351.36376953 C-31.7460175 349.8555146 -31.74633529 348.34725913 -31.74746704 346.83900452 C-31.74803993 342.75473092 -31.73629598 338.67057523 -31.72231913 334.58632898 C-31.70980112 330.31422177 -31.70864042 326.04211174 -31.70626831 321.76998901 C-31.70005669 313.68469748 -31.68365017 305.59946015 -31.66356933 297.51419246 C-31.64120044 288.30746465 -31.63021441 279.10073422 -31.62017846 269.89398599 C-31.59928367 250.9592412 -31.56411386 232.02454684 -31.51953125 213.08984375 C-32.68986861 213.09537451 -32.68986861 213.09537451 -33.88384914 213.101017 C-52.88898923 213.18944457 -71.89408813 213.25559057 -90.89939022 213.29709244 C-100.09031002 213.3176971 -109.28109231 213.34577754 -118.47192383 213.39160156 C-126.48484773 213.4315336 -134.49767201 213.45729179 -142.51069266 213.46619773 C-146.75158211 213.47140173 -150.99218662 213.48358903 -155.23298454 213.51276398 C-159.22947563 213.5400339 -163.22556597 213.54826556 -167.22214127 213.54227448 C-168.68419769 213.54336956 -170.14626833 213.55125452 -171.60824394 213.56666565 C-180.40025782 213.6547526 -188.69045182 213.6879081 -195.38841152 207.31036758 C-201.12462591 201.01866195 -202.03078265 196.07468348 -201.8984375 187.578125 C-201.2083133 181.22471353 -198.18000676 177.42459969 -193.58203125 173.21484375 C-188.5303455 169.70959242 -184.07547049 168.83934139 -177.98953247 168.84933472 C-176.69391891 168.84658539 -175.39830536 168.84383606 -174.06343079 168.84100342 C-172.64010526 168.84808037 -171.21678069 168.85534997 -169.79345703 168.86279297 C-168.2852021 168.8633575 -166.77694663 168.86303971 -165.26869202 168.86190796 C-161.18441842 168.86133507 -157.10026273 168.87307902 -153.01601648 168.88705587 C-148.74390927 168.89957388 -144.47179924 168.90073458 -140.19967651 168.90310669 C-132.11438498 168.90931831 -124.02914765 168.92572483 -115.94387996 168.94580567 C-106.73715215 168.96817456 -97.53042172 168.97916059 -88.32367349 168.98919654 C-69.3889287 169.01009133 -50.45423434 169.04526114 -31.51953125 169.08984375 C-31.52321842 168.30961884 -31.52690559 167.52939394 -31.5307045 166.72552586 C-31.61913207 147.72038577 -31.68527807 128.71528687 -31.72677994 109.70998478 C-31.7473846 100.51906498 -31.77546504 91.32828269 -31.82128906 82.13745117 C-31.8612211 74.12452727 -31.88697929 66.11170299 -31.89588523 58.09868234 C-31.90108923 53.85779289 -31.91327653 49.61718838 -31.94245148 45.37639046 C-31.9697214 41.37989937 -31.97795306 37.38380903 -31.97196198 33.38723373 C-31.97305706 31.92517731 -31.98094202 30.46310667 -31.99635315 29.00113106 C-32.0844401 20.20911718 -32.1175956 11.91892318 -25.74005508 5.22096348 C-18.50444351 -1.37581992 -9.51404972 -3.43685827 0 0 Z " fill="#4C4C4C" transform="translate(265.51953125,64.91015625)"/>
</svg>
