<?xml version="1.0" encoding="UTF-8"?>
<svg version="1.1" xmlns="http://www.w3.org/2000/svg" width="512" height="512">
<path d="M0 0 C1.22558445 -0.00644889 2.45116891 -0.01289778 3.71389228 -0.0195421 C5.06562581 -0.01660012 6.41735893 -0.01346471 7.76909161 -0.01015663 C9.21153825 -0.01389447 10.65398287 -0.01849653 12.09642428 -0.02388728 C16.05606677 -0.03611616 20.01562477 -0.03585695 23.97528183 -0.03349853 C28.24738531 -0.03309033 32.5194617 -0.04412973 36.79155254 -0.05361366 C45.15982032 -0.07022391 53.52805991 -0.07572322 61.89634279 -0.07683842 C68.69866336 -0.07778886 75.50097464 -0.08189896 82.30329227 -0.08823967 C101.59039208 -0.10585198 120.87746962 -0.11507853 140.16457752 -0.11357872 C141.20426904 -0.11349881 142.24396056 -0.1134189 143.31515789 -0.11333656 C144.87659994 -0.11321392 144.87659994 -0.11321392 146.46958628 -0.1130888 C163.34079715 -0.11227586 180.21191876 -0.13141572 197.08310381 -0.1596133 C214.40756371 -0.18833991 231.73198006 -0.20215372 249.05646437 -0.20042574 C258.78235499 -0.19976178 268.50815202 -0.20525707 278.23402119 -0.22678185 C286.51464463 -0.24499068 294.79513205 -0.2493434 303.07576684 -0.235763 C307.29969954 -0.2292319 311.52337127 -0.22912116 315.74727917 -0.2464695 C319.6169048 -0.26219913 323.48606252 -0.25933802 327.35567673 -0.24190123 C328.75268939 -0.23883108 330.14973696 -0.24246442 331.54670844 -0.25362138 C340.12190253 -0.31755102 348.16815888 -0.16556278 354.69253379 6.03658736 C360.42269262 12.33379044 361.33206134 17.27006523 361.19967937 25.76898766 C360.50955517 32.12239913 357.48124864 35.92251296 352.88327312 40.13226891 C347.96332438 43.54611089 343.57420091 44.50662328 337.64154625 44.51453781 C336.4159618 44.5209867 335.19037734 44.5274356 333.92765397 44.53407991 C332.57592044 44.53113793 331.22418732 44.52800252 329.87245464 44.52469444 C328.430008 44.52843228 326.98756338 44.53303434 325.54512197 44.53842509 C321.58547948 44.55065398 317.62592148 44.55039476 313.66626441 44.54803634 C309.39416094 44.54762814 305.12208455 44.55866754 300.84999371 44.56815147 C292.48172593 44.58476173 284.11348634 44.59026103 275.74520346 44.59137623 C268.94288289 44.59232667 262.14057161 44.59643677 255.33825397 44.60277748 C236.05115417 44.62038979 216.76407663 44.62961634 197.47696873 44.62811653 C196.43727721 44.62803662 195.39758568 44.62795671 194.32638836 44.62787437 C193.28542699 44.62779261 192.24446562 44.62771085 191.17195997 44.62762661 C174.3007491 44.62681367 157.42962749 44.64595353 140.55844244 44.67415111 C123.23398254 44.70287773 105.90956619 44.71669153 88.58508188 44.71496356 C78.85919126 44.71429959 69.13339423 44.71979488 59.40752506 44.74131966 C51.12690162 44.75952849 42.8464142 44.76388121 34.56577941 44.75030081 C30.34184671 44.74376972 26.11817498 44.74365897 21.89426708 44.76100731 C18.02464145 44.77673694 14.15548373 44.77387583 10.28586952 44.75643905 C8.88885686 44.75336889 7.49180929 44.75700223 6.09483781 44.7681592 C-2.48035628 44.83208883 -10.52661263 44.68010059 -17.05098754 38.47795045 C-22.78114637 32.18074737 -23.69051509 27.24447258 -23.55813313 18.74555016 C-22.86800892 12.39213868 -19.83970239 8.59202485 -15.24172688 4.38226891 C-10.32177813 0.96842692 -5.93265466 0.00791453 0 0 Z " fill="#4C4C4C" transform="translate(87.17922687530518,233.74273109436035)"/>
</svg>
