<?xml version="1.0" encoding="UTF-8"?>
<svg version="1.1" xmlns="http://www.w3.org/2000/svg" width="512" height="512">
<path d="M0 0 C12.46816099 9.84943271 20.52360057 22.75002778 25.32275391 37.76855469 C25.32275391 38.75855469 25.32275391 39.74855469 25.32275391 40.76855469 C26.17789644 40.76578931 27.03303898 40.76302393 27.91409492 40.76017475 C48.72076471 40.69392422 69.52741633 40.64427861 90.33416939 40.61311817 C100.39615797 40.59764872 110.45807614 40.57655768 120.52001953 40.54223633 C129.28991997 40.5123364 138.05976943 40.49298025 146.82971942 40.4862892 C151.47342864 40.48237796 156.11699198 40.47318431 160.76065445 40.45136452 C165.13217951 40.43099003 169.50349872 40.42472284 173.87506676 40.42923164 C175.47866497 40.42840687 177.08227013 40.42244691 178.68582726 40.41093826 C180.8778903 40.39597871 183.06917946 40.39961318 185.26126099 40.40779114 C187.10023799 40.40364307 187.10023799 40.40364307 188.97636604 40.3994112 C194.07960632 40.96235488 197.32634742 42.92377527 201.19775391 46.20605469 C204.18093921 50.06094998 204.01489118 54.28114283 203.81103516 58.98730469 C203.32275391 61.76855469 203.32275391 61.76855469 201.13525391 64.83105469 C200.20712891 65.47042969 199.27900391 66.10980469 198.32275391 66.76855469 C197.58369214 67.29607488 196.84463037 67.82359507 196.0831728 68.36710072 C192.62978548 70.12037207 190.21039892 70.13798182 186.34355164 70.12931824 C185.65324272 70.13188151 184.96293379 70.13444479 184.25170642 70.13708574 C181.94531512 70.14201577 179.63958266 70.12554431 177.33325195 70.10913086 C175.67736324 70.10828441 174.02147339 70.10876007 172.36558533 70.11045837 C167.87419037 70.11131908 163.38303579 70.09368115 158.89169669 70.0727365 C154.19651238 70.05398224 149.50132256 70.05222025 144.80610657 70.04866028 C135.91681215 70.03933614 127.02762841 70.01471735 118.13838273 69.98461181 C108.01755597 69.9510793 97.89672391 69.93458468 87.77585542 69.9195255 C66.95809314 69.88816814 46.1404305 69.83540043 25.32275391 69.76855469 C25.17201416 70.87303955 25.02127441 71.97752441 24.8659668 73.11547852 C22.51110874 88.95176668 10.77078177 102.74341026 -1.70849609 112.02246094 C-4.9544955 114.13959174 -8.23659279 115.98609434 -11.67724609 117.76855469 C-12.79873047 118.37054688 -13.92021484 118.97253906 -15.07568359 119.59277344 C-28.91288896 126.25596932 -48.15179035 126.68528645 -62.67431641 122.01708984 C-65.81620516 120.80508294 -68.70506615 119.36238191 -71.67724609 117.76855469 C-72.80775391 117.18847656 -73.93826172 116.60839844 -75.10302734 116.01074219 C-91.01028292 107.07576197 -102.08207663 93.31074301 -108.08349609 76.10839844 C-108.67724609 73.76855469 -108.67724609 73.76855469 -108.67724609 69.76855469 C-110.0684668 69.80783081 -110.0684668 69.80783081 -111.48779297 69.84790039 C-114.96191224 69.93362485 -118.43489195 69.99604228 -121.90966797 70.04321289 C-123.40724533 70.06820476 -124.9047026 70.10221096 -126.40185547 70.14575195 C-141.3914954 70.57045842 -141.3914954 70.57045842 -147.31201172 66.14428711 C-150.66928781 62.76119505 -151.09864694 60.12632496 -151.30224609 55.51855469 C-151.26390459 51.70144456 -151.21767407 49.53092177 -148.99365234 46.39355469 C-143.64262267 41.68072121 -139.71801175 40.64185768 -132.60302734 40.67089844 C-131.57727852 40.67302086 -131.57727852 40.67302086 -130.5308075 40.67518616 C-128.35040888 40.68077592 -126.17011359 40.69332647 -123.98974609 40.70605469 C-122.50992987 40.71107101 -121.03011203 40.71563369 -119.55029297 40.71972656 C-115.92591053 40.73074198 -112.3015884 40.74799957 -108.67724609 40.76855469 C-108.52795654 39.82850586 -108.37866699 38.88845703 -108.22485352 37.91992188 C-105.51504146 22.32551527 -94.30197873 8.11567013 -81.80224609 -1.10644531 C-56.36610379 -17.60774016 -24.77639448 -18.19099473 0 0 Z M-70.67724609 26.76855469 C-79.01290093 35.87424692 -81.99028019 45.80408501 -81.82568359 57.96777344 C-81.21893815 69.41610201 -76.0564384 78.99607494 -67.67724609 86.76855469 C-59.20433197 93.37354242 -49.26380634 96.26105781 -38.55224609 95.70605469 C-26.61311321 94.21169682 -16.91798949 89.37287515 -9.36474609 79.89355469 C-2.69044213 70.3085126 -0.52928703 60.09982194 -1.95068359 48.54589844 C-3.90096273 38.11374495 -9.14994866 28.80058205 -17.86474609 22.64355469 C-35.21632506 11.6982706 -55.26759135 12.66204199 -70.67724609 26.76855469 Z " fill="#646464" transform="translate(229.67724609375,282.2314453125)"/>
<path d="M0 0 C1.04542969 0.495 2.09085937 0.99 3.16796875 1.5 C19.20381887 9.79798195 30.53464188 24.82990022 36.40625 41.66015625 C37 44 37 44 37 48 C37.93271729 47.97905273 38.86543457 47.95810547 39.82641602 47.93652344 C43.31349726 47.86802604 46.79985541 47.81804554 50.28735352 47.78027344 C51.79170062 47.76025637 53.29597089 47.73303373 54.80004883 47.69824219 C56.97236162 47.64928055 59.14363906 47.62693347 61.31640625 47.609375 C62.62037354 47.58842773 63.92434082 47.56748047 65.26782227 47.54589844 C70.47691125 48.17969876 74.10011551 50.13928839 77.89453125 53.85546875 C80.32641661 58.57315447 79.99055504 63.90483251 79 69 C76.10890716 73.06225313 72.70038559 75.4332048 68 77 C65.64319787 77.08397157 63.28405919 77.10728187 60.92578125 77.09765625 C59.90003242 77.09553383 59.90003242 77.09553383 58.8535614 77.09336853 C56.67316278 77.08777876 54.49286749 77.07522822 52.3125 77.0625 C50.83268378 77.05748367 49.35286594 77.052921 47.87304688 77.04882812 C44.24866443 77.03781271 40.6243423 77.02055512 37 77 C36.78283325 78.39545044 36.78283325 78.39545044 36.5612793 79.8190918 C33.85089685 95.17949759 22.86791378 108.98958554 10.75 118.25 C-5.52995694 129.48930082 -23.78042676 133.61008542 -43.25 130.37890625 C-61.3794127 126.71799103 -75.99760367 116.52513001 -86.875 101.75 C-91.43601427 94.82124608 -97 85.47733742 -97 77 C-97.85514254 77.00276538 -98.71028507 77.00553076 -99.59134102 77.00837994 C-120.39801081 77.07463047 -141.20466242 77.12427607 -162.01141548 77.15543652 C-172.07340406 77.17090596 -182.13532223 77.19199701 -192.19726562 77.22631836 C-200.96716607 77.25621828 -209.73701552 77.27557444 -218.50696552 77.28226548 C-223.15067473 77.28617673 -227.79423808 77.29537037 -232.43790054 77.31719017 C-236.80942561 77.33756466 -241.18074481 77.34383185 -245.55231285 77.33932304 C-247.15591107 77.34014781 -248.75951622 77.34610778 -250.36307335 77.35761642 C-252.5551364 77.37257598 -254.74642555 77.3689415 -256.93850708 77.36076355 C-258.16449175 77.36352893 -259.39047642 77.36629431 -260.65361214 77.36914349 C-265.51513881 76.83286348 -268.83693088 74.75852334 -272.875 72.125 C-276.21537276 67.21268711 -276.03382338 61.76089167 -275 56 C-272.37230915 51.69676981 -269.5999248 49.925035 -265 48 C-261.63799477 47.63085651 -261.63799477 47.63085651 -257.90054321 47.63923645 C-256.86379819 47.63539154 -256.86379819 47.63539154 -255.80610883 47.63146895 C-253.50282195 47.62654906 -251.20019859 47.6429935 -248.89697266 47.65942383 C-247.24093644 47.66027049 -245.58489909 47.65979419 -243.92886353 47.65809631 C-239.44165959 47.65723647 -234.9546968 47.6748605 -230.46754885 47.69581819 C-225.77503975 47.71458675 -221.08252497 47.71633557 -216.38998413 47.71989441 C-207.5078061 47.72921434 -198.625739 47.75382745 -189.74360979 47.78394288 C-179.63001487 47.81748848 -169.51641462 47.8339733 -159.40277791 47.84902918 C-138.60179006 47.88037702 -117.80090202 47.93313655 -97 48 C-96.84926025 46.89551514 -96.69852051 45.79103027 -96.54321289 44.65307617 C-94.18835483 28.81678801 -82.44802786 15.02514443 -69.96875 5.74609375 C-66.72275059 3.62896295 -63.4406533 1.78246034 -60 0 C-58.87851562 -0.60199219 -57.75703125 -1.20398438 -56.6015625 -1.82421875 C-39.45255446 -10.0821868 -16.6332002 -8.75637331 0 0 Z M-62.5 37.76171875 C-66.62784713 43.92124064 -69.58569289 50.54247197 -70 58 C-70.03867187 58.69609375 -70.07734375 59.3921875 -70.1171875 60.109375 C-70.46016516 71.16087743 -67.0100972 80.20763738 -60.75 89.25 C-52.91382038 97.08617962 -42.7077638 102.34900111 -31.55859375 103.02734375 C-20.89591457 102.91339145 -11.14276108 99.0925005 -2.625 92.6875 C5.71623465 84.14766453 9.9226429 74.58951596 10.1875 62.6875 C10.02699265 50.826007 6.07630046 41.58928411 -2 32.8515625 C-9.71288428 25.71111885 -19.54321961 22.14566956 -30 21.625 C-42.82505623 22.28882279 -54.3857524 27.71643627 -62.5 37.76171875 Z " fill="#646464" transform="translate(354,112)"/>
</svg>
